G04 #@! TF.GenerationSoftware,KiCad,Pcbnew,5.0.1*
G04 #@! TF.CreationDate,2019-01-27T14:18:01-03:00*
G04 #@! TF.ProjectId,StepperDriver,537465707065724472697665722E6B69,1.0*
G04 #@! TF.SameCoordinates,Original*
G04 #@! TF.FileFunction,Copper,L1,Top,Signal*
G04 #@! TF.FilePolarity,Positive*
%FSLAX46Y46*%
G04 Gerber Fmt 4.6, Leading zero omitted, Abs format (unit mm)*
G04 Created by KiCad (PCBNEW 5.0.1) date Sun 27 Jan 2019 14:18:01 -03*
%MOMM*%
%LPD*%
G01*
G04 APERTURE LIST*
G04 #@! TA.AperFunction,ComponentPad*
%ADD10R,1.700000X1.700000*%
G04 #@! TD*
G04 #@! TA.AperFunction,ComponentPad*
%ADD11O,1.700000X1.700000*%
G04 #@! TD*
G04 #@! TA.AperFunction,ComponentPad*
%ADD12R,1.600000X1.600000*%
G04 #@! TD*
G04 #@! TA.AperFunction,ComponentPad*
%ADD13O,1.600000X1.600000*%
G04 #@! TD*
G04 #@! TA.AperFunction,ComponentPad*
%ADD14C,1.400000*%
G04 #@! TD*
G04 #@! TA.AperFunction,ComponentPad*
%ADD15R,2.100000X2.100000*%
G04 #@! TD*
G04 #@! TA.AperFunction,ComponentPad*
%ADD16C,2.100000*%
G04 #@! TD*
G04 #@! TA.AperFunction,Conductor*
%ADD17C,0.100000*%
G04 #@! TD*
G04 #@! TA.AperFunction,ComponentPad*
%ADD18C,1.700000*%
G04 #@! TD*
G04 #@! TA.AperFunction,ComponentPad*
%ADD19O,1.950000X1.700000*%
G04 #@! TD*
G04 #@! TA.AperFunction,ComponentPad*
%ADD20C,1.600000*%
G04 #@! TD*
G04 #@! TA.AperFunction,Conductor*
%ADD21C,0.254000*%
G04 #@! TD*
G04 APERTURE END LIST*
D10*
G04 #@! TO.P,J1,1*
G04 #@! TO.N,Net-(J1-Pad1)*
X134700000Y-91910000D03*
D11*
G04 #@! TO.P,J1,2*
G04 #@! TO.N,Net-(J1-Pad2)*
X134700000Y-94450000D03*
G04 #@! TO.P,J1,3*
G04 #@! TO.N,Net-(J1-Pad3)*
X134700000Y-96990000D03*
G04 #@! TO.P,J1,4*
G04 #@! TO.N,Net-(J1-Pad4)*
X134700000Y-99530000D03*
G04 #@! TO.P,J1,5*
G04 #@! TO.N,Net-(J1-Pad5)*
X134700000Y-102070000D03*
G04 #@! TO.P,J1,6*
G04 #@! TO.N,Net-(J1-Pad6)*
X134700000Y-104610000D03*
G04 #@! TO.P,J1,7*
G04 #@! TO.N,Net-(J1-Pad7)*
X134700000Y-107150000D03*
G04 #@! TD*
D12*
G04 #@! TO.P,U1,1*
G04 #@! TO.N,Net-(J1-Pad1)*
X141110000Y-88485000D03*
D13*
G04 #@! TO.P,U1,9*
G04 #@! TO.N,MOTOR_PWR*
X148730000Y-106265000D03*
G04 #@! TO.P,U1,2*
G04 #@! TO.N,Net-(J1-Pad2)*
X141110000Y-91025000D03*
G04 #@! TO.P,U1,10*
G04 #@! TO.N,Net-(J4-Pad7)*
X148730000Y-103725000D03*
G04 #@! TO.P,U1,3*
G04 #@! TO.N,Net-(J1-Pad3)*
X141110000Y-93565000D03*
G04 #@! TO.P,U1,11*
G04 #@! TO.N,Net-(J4-Pad6)*
X148730000Y-101185000D03*
G04 #@! TO.P,U1,4*
G04 #@! TO.N,Net-(J1-Pad4)*
X141110000Y-96105000D03*
G04 #@! TO.P,U1,12*
G04 #@! TO.N,Net-(J4-Pad5)*
X148730000Y-98645000D03*
G04 #@! TO.P,U1,5*
G04 #@! TO.N,Net-(J1-Pad5)*
X141110000Y-98645000D03*
G04 #@! TO.P,U1,13*
G04 #@! TO.N,Net-(J3-Pad4)*
X148730000Y-96105000D03*
G04 #@! TO.P,U1,6*
G04 #@! TO.N,Net-(J1-Pad6)*
X141110000Y-101185000D03*
G04 #@! TO.P,U1,14*
G04 #@! TO.N,Net-(J3-Pad3)*
X148730000Y-93565000D03*
G04 #@! TO.P,U1,7*
G04 #@! TO.N,Net-(J1-Pad7)*
X141110000Y-103725000D03*
G04 #@! TO.P,U1,15*
G04 #@! TO.N,Net-(J3-Pad2)*
X148730000Y-91025000D03*
G04 #@! TO.P,U1,8*
G04 #@! TO.N,GND*
X141110000Y-106265000D03*
G04 #@! TO.P,U1,16*
G04 #@! TO.N,Net-(J3-Pad1)*
X148730000Y-88485000D03*
G04 #@! TD*
D14*
G04 #@! TO.P,C2,1*
G04 #@! TO.N,MOTOR_PWR*
X146190000Y-109440000D03*
G04 #@! TO.P,C2,2*
G04 #@! TO.N,GND*
X143690000Y-109440000D03*
G04 #@! TD*
D11*
G04 #@! TO.P,J4,7*
G04 #@! TO.N,Net-(J4-Pad7)*
X152354000Y-103725000D03*
G04 #@! TO.P,J4,6*
G04 #@! TO.N,Net-(J4-Pad6)*
X152354000Y-101185000D03*
G04 #@! TO.P,J4,5*
G04 #@! TO.N,Net-(J4-Pad5)*
X152354000Y-98645000D03*
G04 #@! TO.P,J4,4*
G04 #@! TO.N,Net-(J3-Pad4)*
X152354000Y-96105000D03*
G04 #@! TO.P,J4,3*
G04 #@! TO.N,Net-(J3-Pad3)*
X152354000Y-93565000D03*
G04 #@! TO.P,J4,2*
G04 #@! TO.N,Net-(J3-Pad2)*
X152354000Y-91025000D03*
D10*
G04 #@! TO.P,J4,1*
G04 #@! TO.N,Net-(J3-Pad1)*
X152354000Y-88485000D03*
G04 #@! TD*
D15*
G04 #@! TO.P,J2,1*
G04 #@! TO.N,MOTOR_PWR*
X147360000Y-116760000D03*
D16*
G04 #@! TO.P,J2,2*
G04 #@! TO.N,GND*
X142280000Y-116760000D03*
G04 #@! TD*
D17*
G04 #@! TO.N,Net-(J3-Pad1)*
G04 #@! TO.C,J3*
G36*
X160749504Y-91401204D02*
X160773773Y-91404804D01*
X160797571Y-91410765D01*
X160820671Y-91419030D01*
X160842849Y-91429520D01*
X160863893Y-91442133D01*
X160883598Y-91456747D01*
X160901777Y-91473223D01*
X160918253Y-91491402D01*
X160932867Y-91511107D01*
X160945480Y-91532151D01*
X160955970Y-91554329D01*
X160964235Y-91577429D01*
X160970196Y-91601227D01*
X160973796Y-91625496D01*
X160975000Y-91650000D01*
X160975000Y-92850000D01*
X160973796Y-92874504D01*
X160970196Y-92898773D01*
X160964235Y-92922571D01*
X160955970Y-92945671D01*
X160945480Y-92967849D01*
X160932867Y-92988893D01*
X160918253Y-93008598D01*
X160901777Y-93026777D01*
X160883598Y-93043253D01*
X160863893Y-93057867D01*
X160842849Y-93070480D01*
X160820671Y-93080970D01*
X160797571Y-93089235D01*
X160773773Y-93095196D01*
X160749504Y-93098796D01*
X160725000Y-93100000D01*
X159275000Y-93100000D01*
X159250496Y-93098796D01*
X159226227Y-93095196D01*
X159202429Y-93089235D01*
X159179329Y-93080970D01*
X159157151Y-93070480D01*
X159136107Y-93057867D01*
X159116402Y-93043253D01*
X159098223Y-93026777D01*
X159081747Y-93008598D01*
X159067133Y-92988893D01*
X159054520Y-92967849D01*
X159044030Y-92945671D01*
X159035765Y-92922571D01*
X159029804Y-92898773D01*
X159026204Y-92874504D01*
X159025000Y-92850000D01*
X159025000Y-91650000D01*
X159026204Y-91625496D01*
X159029804Y-91601227D01*
X159035765Y-91577429D01*
X159044030Y-91554329D01*
X159054520Y-91532151D01*
X159067133Y-91511107D01*
X159081747Y-91491402D01*
X159098223Y-91473223D01*
X159116402Y-91456747D01*
X159136107Y-91442133D01*
X159157151Y-91429520D01*
X159179329Y-91419030D01*
X159202429Y-91410765D01*
X159226227Y-91404804D01*
X159250496Y-91401204D01*
X159275000Y-91400000D01*
X160725000Y-91400000D01*
X160749504Y-91401204D01*
X160749504Y-91401204D01*
G37*
D18*
G04 #@! TD*
G04 #@! TO.P,J3,1*
G04 #@! TO.N,Net-(J3-Pad1)*
X160000000Y-92250000D03*
D19*
G04 #@! TO.P,J3,2*
G04 #@! TO.N,Net-(J3-Pad2)*
X160000000Y-94750000D03*
G04 #@! TO.P,J3,3*
G04 #@! TO.N,Net-(J3-Pad3)*
X160000000Y-97250000D03*
G04 #@! TO.P,J3,4*
G04 #@! TO.N,Net-(J3-Pad4)*
X160000000Y-99750000D03*
G04 #@! TO.P,J3,5*
G04 #@! TO.N,MOTOR_PWR*
X160000000Y-102250000D03*
G04 #@! TD*
D12*
G04 #@! TO.P,C1,1*
G04 #@! TO.N,MOTOR_PWR*
X153250000Y-118050000D03*
D20*
G04 #@! TO.P,C1,2*
G04 #@! TO.N,GND*
X155250000Y-118050000D03*
G04 #@! TD*
D21*
G04 #@! TO.N,MOTOR_PWR*
G36*
X164765001Y-123015000D02*
X130985000Y-123015000D01*
X130985000Y-119305431D01*
X132015000Y-119305431D01*
X132015000Y-120194569D01*
X132355259Y-121016026D01*
X132983974Y-121644741D01*
X133805431Y-121985000D01*
X134694569Y-121985000D01*
X135516026Y-121644741D01*
X136144741Y-121016026D01*
X136485000Y-120194569D01*
X136485000Y-119305431D01*
X136144741Y-118483974D01*
X135516026Y-117855259D01*
X134694569Y-117515000D01*
X133805431Y-117515000D01*
X132983974Y-117855259D01*
X132355259Y-118483974D01*
X132015000Y-119305431D01*
X130985000Y-119305431D01*
X130985000Y-116424833D01*
X140595000Y-116424833D01*
X140595000Y-117095167D01*
X140851526Y-117714476D01*
X141325524Y-118188474D01*
X141944833Y-118445000D01*
X142615167Y-118445000D01*
X143234476Y-118188474D01*
X143708474Y-117714476D01*
X143965000Y-117095167D01*
X143965000Y-117045750D01*
X145675000Y-117045750D01*
X145675000Y-117936310D01*
X145771673Y-118169699D01*
X145950302Y-118348327D01*
X146183691Y-118445000D01*
X147074250Y-118445000D01*
X147233000Y-118286250D01*
X147233000Y-116887000D01*
X147487000Y-116887000D01*
X147487000Y-118286250D01*
X147645750Y-118445000D01*
X148536309Y-118445000D01*
X148769698Y-118348327D01*
X148782275Y-118335750D01*
X151815000Y-118335750D01*
X151815000Y-118976310D01*
X151911673Y-119209699D01*
X152090302Y-119388327D01*
X152323691Y-119485000D01*
X152964250Y-119485000D01*
X153123000Y-119326250D01*
X153123000Y-118177000D01*
X151973750Y-118177000D01*
X151815000Y-118335750D01*
X148782275Y-118335750D01*
X148948327Y-118169699D01*
X149045000Y-117936310D01*
X149045000Y-117123690D01*
X151815000Y-117123690D01*
X151815000Y-117764250D01*
X151973750Y-117923000D01*
X153123000Y-117923000D01*
X153123000Y-116773750D01*
X153377000Y-116773750D01*
X153377000Y-117923000D01*
X153397000Y-117923000D01*
X153397000Y-118177000D01*
X153377000Y-118177000D01*
X153377000Y-119326250D01*
X153535750Y-119485000D01*
X154176309Y-119485000D01*
X154409698Y-119388327D01*
X154503856Y-119294170D01*
X154964561Y-119485000D01*
X155535439Y-119485000D01*
X155968956Y-119305431D01*
X159265000Y-119305431D01*
X159265000Y-120194569D01*
X159605259Y-121016026D01*
X160233974Y-121644741D01*
X161055431Y-121985000D01*
X161944569Y-121985000D01*
X162766026Y-121644741D01*
X163394741Y-121016026D01*
X163735000Y-120194569D01*
X163735000Y-119305431D01*
X163394741Y-118483974D01*
X162766026Y-117855259D01*
X161944569Y-117515000D01*
X161055431Y-117515000D01*
X160233974Y-117855259D01*
X159605259Y-118483974D01*
X159265000Y-119305431D01*
X155968956Y-119305431D01*
X156062862Y-119266534D01*
X156466534Y-118862862D01*
X156685000Y-118335439D01*
X156685000Y-117764561D01*
X156466534Y-117237138D01*
X156062862Y-116833466D01*
X155535439Y-116615000D01*
X154964561Y-116615000D01*
X154503856Y-116805830D01*
X154409698Y-116711673D01*
X154176309Y-116615000D01*
X153535750Y-116615000D01*
X153377000Y-116773750D01*
X153123000Y-116773750D01*
X152964250Y-116615000D01*
X152323691Y-116615000D01*
X152090302Y-116711673D01*
X151911673Y-116890301D01*
X151815000Y-117123690D01*
X149045000Y-117123690D01*
X149045000Y-117045750D01*
X148886250Y-116887000D01*
X147487000Y-116887000D01*
X147233000Y-116887000D01*
X145833750Y-116887000D01*
X145675000Y-117045750D01*
X143965000Y-117045750D01*
X143965000Y-116424833D01*
X143708474Y-115805524D01*
X143486640Y-115583690D01*
X145675000Y-115583690D01*
X145675000Y-116474250D01*
X145833750Y-116633000D01*
X147233000Y-116633000D01*
X147233000Y-115233750D01*
X147487000Y-115233750D01*
X147487000Y-116633000D01*
X148886250Y-116633000D01*
X149045000Y-116474250D01*
X149045000Y-115583690D01*
X148948327Y-115350301D01*
X148769698Y-115171673D01*
X148536309Y-115075000D01*
X147645750Y-115075000D01*
X147487000Y-115233750D01*
X147233000Y-115233750D01*
X147074250Y-115075000D01*
X146183691Y-115075000D01*
X145950302Y-115171673D01*
X145771673Y-115350301D01*
X145675000Y-115583690D01*
X143486640Y-115583690D01*
X143234476Y-115331526D01*
X142615167Y-115075000D01*
X141944833Y-115075000D01*
X141325524Y-115331526D01*
X140851526Y-115805524D01*
X140595000Y-116424833D01*
X130985000Y-116424833D01*
X130985000Y-109174452D01*
X142355000Y-109174452D01*
X142355000Y-109705548D01*
X142558242Y-110196217D01*
X142933783Y-110571758D01*
X143424452Y-110775000D01*
X143955548Y-110775000D01*
X144446217Y-110571758D01*
X144642700Y-110375275D01*
X145434331Y-110375275D01*
X145496169Y-110611042D01*
X145997122Y-110787419D01*
X146527440Y-110758664D01*
X146883831Y-110611042D01*
X146945669Y-110375275D01*
X146190000Y-109619605D01*
X145434331Y-110375275D01*
X144642700Y-110375275D01*
X144821758Y-110196217D01*
X144933279Y-109926983D01*
X145018958Y-110133831D01*
X145254725Y-110195669D01*
X146010395Y-109440000D01*
X146369605Y-109440000D01*
X147125275Y-110195669D01*
X147361042Y-110133831D01*
X147537419Y-109632878D01*
X147508664Y-109102560D01*
X147361042Y-108746169D01*
X147125275Y-108684331D01*
X146369605Y-109440000D01*
X146010395Y-109440000D01*
X145254725Y-108684331D01*
X145018958Y-108746169D01*
X144940225Y-108969788D01*
X144821758Y-108683783D01*
X144642700Y-108504725D01*
X145434331Y-108504725D01*
X146190000Y-109260395D01*
X146945669Y-108504725D01*
X146883831Y-108268958D01*
X146382878Y-108092581D01*
X145852560Y-108121336D01*
X145496169Y-108268958D01*
X145434331Y-108504725D01*
X144642700Y-108504725D01*
X144446217Y-108308242D01*
X143955548Y-108105000D01*
X143424452Y-108105000D01*
X142933783Y-108308242D01*
X142558242Y-108683783D01*
X142355000Y-109174452D01*
X130985000Y-109174452D01*
X130985000Y-94450000D01*
X133185908Y-94450000D01*
X133301161Y-95029418D01*
X133629375Y-95520625D01*
X133927761Y-95720000D01*
X133629375Y-95919375D01*
X133301161Y-96410582D01*
X133185908Y-96990000D01*
X133301161Y-97569418D01*
X133629375Y-98060625D01*
X133927761Y-98260000D01*
X133629375Y-98459375D01*
X133301161Y-98950582D01*
X133185908Y-99530000D01*
X133301161Y-100109418D01*
X133629375Y-100600625D01*
X133927761Y-100800000D01*
X133629375Y-100999375D01*
X133301161Y-101490582D01*
X133185908Y-102070000D01*
X133301161Y-102649418D01*
X133629375Y-103140625D01*
X133927761Y-103340000D01*
X133629375Y-103539375D01*
X133301161Y-104030582D01*
X133185908Y-104610000D01*
X133301161Y-105189418D01*
X133629375Y-105680625D01*
X133927761Y-105880000D01*
X133629375Y-106079375D01*
X133301161Y-106570582D01*
X133185908Y-107150000D01*
X133301161Y-107729418D01*
X133629375Y-108220625D01*
X134120582Y-108548839D01*
X134553744Y-108635000D01*
X134846256Y-108635000D01*
X135279418Y-108548839D01*
X135770625Y-108220625D01*
X136098839Y-107729418D01*
X136214092Y-107150000D01*
X136098839Y-106570582D01*
X135770625Y-106079375D01*
X135472239Y-105880000D01*
X135770625Y-105680625D01*
X136098839Y-105189418D01*
X136214092Y-104610000D01*
X136098839Y-104030582D01*
X135770625Y-103539375D01*
X135472239Y-103340000D01*
X135770625Y-103140625D01*
X136098839Y-102649418D01*
X136214092Y-102070000D01*
X136098839Y-101490582D01*
X135770625Y-100999375D01*
X135472239Y-100800000D01*
X135770625Y-100600625D01*
X136098839Y-100109418D01*
X136214092Y-99530000D01*
X136098839Y-98950582D01*
X135770625Y-98459375D01*
X135472239Y-98260000D01*
X135770625Y-98060625D01*
X136098839Y-97569418D01*
X136214092Y-96990000D01*
X136098839Y-96410582D01*
X135770625Y-95919375D01*
X135472239Y-95720000D01*
X135770625Y-95520625D01*
X136098839Y-95029418D01*
X136214092Y-94450000D01*
X136098839Y-93870582D01*
X135770625Y-93379375D01*
X135752381Y-93367184D01*
X135797765Y-93358157D01*
X136007809Y-93217809D01*
X136148157Y-93007765D01*
X136197440Y-92760000D01*
X136197440Y-91060000D01*
X136190479Y-91025000D01*
X139646887Y-91025000D01*
X139758260Y-91584909D01*
X140075423Y-92059577D01*
X140427758Y-92295000D01*
X140075423Y-92530423D01*
X139758260Y-93005091D01*
X139646887Y-93565000D01*
X139758260Y-94124909D01*
X140075423Y-94599577D01*
X140427758Y-94835000D01*
X140075423Y-95070423D01*
X139758260Y-95545091D01*
X139646887Y-96105000D01*
X139758260Y-96664909D01*
X140075423Y-97139577D01*
X140427758Y-97375000D01*
X140075423Y-97610423D01*
X139758260Y-98085091D01*
X139646887Y-98645000D01*
X139758260Y-99204909D01*
X140075423Y-99679577D01*
X140427758Y-99915000D01*
X140075423Y-100150423D01*
X139758260Y-100625091D01*
X139646887Y-101185000D01*
X139758260Y-101744909D01*
X140075423Y-102219577D01*
X140427758Y-102455000D01*
X140075423Y-102690423D01*
X139758260Y-103165091D01*
X139646887Y-103725000D01*
X139758260Y-104284909D01*
X140075423Y-104759577D01*
X140427758Y-104995000D01*
X140075423Y-105230423D01*
X139758260Y-105705091D01*
X139646887Y-106265000D01*
X139758260Y-106824909D01*
X140075423Y-107299577D01*
X140550091Y-107616740D01*
X140968667Y-107700000D01*
X141251333Y-107700000D01*
X141669909Y-107616740D01*
X142144577Y-107299577D01*
X142461740Y-106824909D01*
X142503684Y-106614039D01*
X147338096Y-106614039D01*
X147498959Y-107002423D01*
X147874866Y-107417389D01*
X148380959Y-107656914D01*
X148603000Y-107535629D01*
X148603000Y-106392000D01*
X148857000Y-106392000D01*
X148857000Y-107535629D01*
X149079041Y-107656914D01*
X149585134Y-107417389D01*
X149961041Y-107002423D01*
X150121904Y-106614039D01*
X149999915Y-106392000D01*
X148857000Y-106392000D01*
X148603000Y-106392000D01*
X147460085Y-106392000D01*
X147338096Y-106614039D01*
X142503684Y-106614039D01*
X142573113Y-106265000D01*
X142461740Y-105705091D01*
X142144577Y-105230423D01*
X141792242Y-104995000D01*
X142144577Y-104759577D01*
X142461740Y-104284909D01*
X142573113Y-103725000D01*
X142461740Y-103165091D01*
X142144577Y-102690423D01*
X141792242Y-102455000D01*
X142144577Y-102219577D01*
X142461740Y-101744909D01*
X142573113Y-101185000D01*
X142461740Y-100625091D01*
X142144577Y-100150423D01*
X141792242Y-99915000D01*
X142144577Y-99679577D01*
X142461740Y-99204909D01*
X142573113Y-98645000D01*
X142461740Y-98085091D01*
X142144577Y-97610423D01*
X141792242Y-97375000D01*
X142144577Y-97139577D01*
X142461740Y-96664909D01*
X142573113Y-96105000D01*
X142461740Y-95545091D01*
X142144577Y-95070423D01*
X141792242Y-94835000D01*
X142144577Y-94599577D01*
X142461740Y-94124909D01*
X142573113Y-93565000D01*
X142461740Y-93005091D01*
X142144577Y-92530423D01*
X141792242Y-92295000D01*
X142144577Y-92059577D01*
X142461740Y-91584909D01*
X142573113Y-91025000D01*
X142461740Y-90465091D01*
X142144577Y-89990423D01*
X142023894Y-89909785D01*
X142157765Y-89883157D01*
X142367809Y-89742809D01*
X142508157Y-89532765D01*
X142557440Y-89285000D01*
X142557440Y-88485000D01*
X147266887Y-88485000D01*
X147378260Y-89044909D01*
X147695423Y-89519577D01*
X148047758Y-89755000D01*
X147695423Y-89990423D01*
X147378260Y-90465091D01*
X147266887Y-91025000D01*
X147378260Y-91584909D01*
X147695423Y-92059577D01*
X148047758Y-92295000D01*
X147695423Y-92530423D01*
X147378260Y-93005091D01*
X147266887Y-93565000D01*
X147378260Y-94124909D01*
X147695423Y-94599577D01*
X148047758Y-94835000D01*
X147695423Y-95070423D01*
X147378260Y-95545091D01*
X147266887Y-96105000D01*
X147378260Y-96664909D01*
X147695423Y-97139577D01*
X148047758Y-97375000D01*
X147695423Y-97610423D01*
X147378260Y-98085091D01*
X147266887Y-98645000D01*
X147378260Y-99204909D01*
X147695423Y-99679577D01*
X148047758Y-99915000D01*
X147695423Y-100150423D01*
X147378260Y-100625091D01*
X147266887Y-101185000D01*
X147378260Y-101744909D01*
X147695423Y-102219577D01*
X148047758Y-102455000D01*
X147695423Y-102690423D01*
X147378260Y-103165091D01*
X147266887Y-103725000D01*
X147378260Y-104284909D01*
X147695423Y-104759577D01*
X148079108Y-105015947D01*
X147874866Y-105112611D01*
X147498959Y-105527577D01*
X147338096Y-105915961D01*
X147460085Y-106138000D01*
X148603000Y-106138000D01*
X148603000Y-106118000D01*
X148857000Y-106118000D01*
X148857000Y-106138000D01*
X149999915Y-106138000D01*
X150121904Y-105915961D01*
X149961041Y-105527577D01*
X149585134Y-105112611D01*
X149380892Y-105015947D01*
X149764577Y-104759577D01*
X150081740Y-104284909D01*
X150193113Y-103725000D01*
X150081740Y-103165091D01*
X149764577Y-102690423D01*
X149412242Y-102455000D01*
X149764577Y-102219577D01*
X150081740Y-101744909D01*
X150193113Y-101185000D01*
X150081740Y-100625091D01*
X149764577Y-100150423D01*
X149412242Y-99915000D01*
X149764577Y-99679577D01*
X150081740Y-99204909D01*
X150193113Y-98645000D01*
X150081740Y-98085091D01*
X149764577Y-97610423D01*
X149412242Y-97375000D01*
X149764577Y-97139577D01*
X150081740Y-96664909D01*
X150193113Y-96105000D01*
X150081740Y-95545091D01*
X149764577Y-95070423D01*
X149412242Y-94835000D01*
X149764577Y-94599577D01*
X150081740Y-94124909D01*
X150193113Y-93565000D01*
X150081740Y-93005091D01*
X149764577Y-92530423D01*
X149412242Y-92295000D01*
X149764577Y-92059577D01*
X150081740Y-91584909D01*
X150193113Y-91025000D01*
X150839908Y-91025000D01*
X150955161Y-91604418D01*
X151283375Y-92095625D01*
X151581761Y-92295000D01*
X151283375Y-92494375D01*
X150955161Y-92985582D01*
X150839908Y-93565000D01*
X150955161Y-94144418D01*
X151283375Y-94635625D01*
X151581761Y-94835000D01*
X151283375Y-95034375D01*
X150955161Y-95525582D01*
X150839908Y-96105000D01*
X150955161Y-96684418D01*
X151283375Y-97175625D01*
X151581761Y-97375000D01*
X151283375Y-97574375D01*
X150955161Y-98065582D01*
X150839908Y-98645000D01*
X150955161Y-99224418D01*
X151283375Y-99715625D01*
X151581761Y-99915000D01*
X151283375Y-100114375D01*
X150955161Y-100605582D01*
X150839908Y-101185000D01*
X150955161Y-101764418D01*
X151283375Y-102255625D01*
X151581761Y-102455000D01*
X151283375Y-102654375D01*
X150955161Y-103145582D01*
X150839908Y-103725000D01*
X150955161Y-104304418D01*
X151283375Y-104795625D01*
X151774582Y-105123839D01*
X152207744Y-105210000D01*
X152500256Y-105210000D01*
X152933418Y-105123839D01*
X153424625Y-104795625D01*
X153752839Y-104304418D01*
X153868092Y-103725000D01*
X153752839Y-103145582D01*
X153424625Y-102654375D01*
X153353559Y-102606890D01*
X158433524Y-102606890D01*
X158672503Y-103121193D01*
X159097429Y-103515053D01*
X159640733Y-103716320D01*
X159873000Y-103576165D01*
X159873000Y-102377000D01*
X160127000Y-102377000D01*
X160127000Y-103576165D01*
X160359267Y-103716320D01*
X160902571Y-103515053D01*
X161327497Y-103121193D01*
X161566476Y-102606890D01*
X161445155Y-102377000D01*
X160127000Y-102377000D01*
X159873000Y-102377000D01*
X158554845Y-102377000D01*
X158433524Y-102606890D01*
X153353559Y-102606890D01*
X153126239Y-102455000D01*
X153424625Y-102255625D01*
X153752839Y-101764418D01*
X153868092Y-101185000D01*
X153752839Y-100605582D01*
X153424625Y-100114375D01*
X153126239Y-99915000D01*
X153424625Y-99715625D01*
X153752839Y-99224418D01*
X153868092Y-98645000D01*
X153752839Y-98065582D01*
X153424625Y-97574375D01*
X153126239Y-97375000D01*
X153424625Y-97175625D01*
X153752839Y-96684418D01*
X153868092Y-96105000D01*
X153752839Y-95525582D01*
X153424625Y-95034375D01*
X153126239Y-94835000D01*
X153253450Y-94750000D01*
X158360908Y-94750000D01*
X158476161Y-95329418D01*
X158804375Y-95820625D01*
X159072829Y-96000000D01*
X158804375Y-96179375D01*
X158476161Y-96670582D01*
X158360908Y-97250000D01*
X158476161Y-97829418D01*
X158804375Y-98320625D01*
X159072829Y-98500000D01*
X158804375Y-98679375D01*
X158476161Y-99170582D01*
X158360908Y-99750000D01*
X158476161Y-100329418D01*
X158804375Y-100820625D01*
X159077687Y-101003246D01*
X158672503Y-101378807D01*
X158433524Y-101893110D01*
X158554845Y-102123000D01*
X159873000Y-102123000D01*
X159873000Y-102103000D01*
X160127000Y-102103000D01*
X160127000Y-102123000D01*
X161445155Y-102123000D01*
X161566476Y-101893110D01*
X161327497Y-101378807D01*
X160922313Y-101003246D01*
X161195625Y-100820625D01*
X161523839Y-100329418D01*
X161639092Y-99750000D01*
X161523839Y-99170582D01*
X161195625Y-98679375D01*
X160927171Y-98500000D01*
X161195625Y-98320625D01*
X161523839Y-97829418D01*
X161639092Y-97250000D01*
X161523839Y-96670582D01*
X161195625Y-96179375D01*
X160927171Y-96000000D01*
X161195625Y-95820625D01*
X161523839Y-95329418D01*
X161639092Y-94750000D01*
X161523839Y-94170582D01*
X161195625Y-93679375D01*
X161131844Y-93636758D01*
X161359586Y-93484586D01*
X161554126Y-93193435D01*
X161622440Y-92850000D01*
X161622440Y-91650000D01*
X161554126Y-91306565D01*
X161359586Y-91015414D01*
X161068435Y-90820874D01*
X160725000Y-90752560D01*
X159275000Y-90752560D01*
X158931565Y-90820874D01*
X158640414Y-91015414D01*
X158445874Y-91306565D01*
X158377560Y-91650000D01*
X158377560Y-92850000D01*
X158445874Y-93193435D01*
X158640414Y-93484586D01*
X158868156Y-93636758D01*
X158804375Y-93679375D01*
X158476161Y-94170582D01*
X158360908Y-94750000D01*
X153253450Y-94750000D01*
X153424625Y-94635625D01*
X153752839Y-94144418D01*
X153868092Y-93565000D01*
X153752839Y-92985582D01*
X153424625Y-92494375D01*
X153126239Y-92295000D01*
X153424625Y-92095625D01*
X153752839Y-91604418D01*
X153868092Y-91025000D01*
X153752839Y-90445582D01*
X153424625Y-89954375D01*
X153406381Y-89942184D01*
X153451765Y-89933157D01*
X153661809Y-89792809D01*
X153802157Y-89582765D01*
X153851440Y-89335000D01*
X153851440Y-87635000D01*
X153802157Y-87387235D01*
X153661809Y-87177191D01*
X153451765Y-87036843D01*
X153204000Y-86987560D01*
X151504000Y-86987560D01*
X151256235Y-87036843D01*
X151046191Y-87177191D01*
X150905843Y-87387235D01*
X150856560Y-87635000D01*
X150856560Y-89335000D01*
X150905843Y-89582765D01*
X151046191Y-89792809D01*
X151256235Y-89933157D01*
X151301619Y-89942184D01*
X151283375Y-89954375D01*
X150955161Y-90445582D01*
X150839908Y-91025000D01*
X150193113Y-91025000D01*
X150081740Y-90465091D01*
X149764577Y-89990423D01*
X149412242Y-89755000D01*
X149764577Y-89519577D01*
X150081740Y-89044909D01*
X150193113Y-88485000D01*
X150081740Y-87925091D01*
X149764577Y-87450423D01*
X149289909Y-87133260D01*
X148871333Y-87050000D01*
X148588667Y-87050000D01*
X148170091Y-87133260D01*
X147695423Y-87450423D01*
X147378260Y-87925091D01*
X147266887Y-88485000D01*
X142557440Y-88485000D01*
X142557440Y-87685000D01*
X142508157Y-87437235D01*
X142367809Y-87227191D01*
X142157765Y-87086843D01*
X141910000Y-87037560D01*
X140310000Y-87037560D01*
X140062235Y-87086843D01*
X139852191Y-87227191D01*
X139711843Y-87437235D01*
X139662560Y-87685000D01*
X139662560Y-89285000D01*
X139711843Y-89532765D01*
X139852191Y-89742809D01*
X140062235Y-89883157D01*
X140196106Y-89909785D01*
X140075423Y-89990423D01*
X139758260Y-90465091D01*
X139646887Y-91025000D01*
X136190479Y-91025000D01*
X136148157Y-90812235D01*
X136007809Y-90602191D01*
X135797765Y-90461843D01*
X135550000Y-90412560D01*
X133850000Y-90412560D01*
X133602235Y-90461843D01*
X133392191Y-90602191D01*
X133251843Y-90812235D01*
X133202560Y-91060000D01*
X133202560Y-92760000D01*
X133251843Y-93007765D01*
X133392191Y-93217809D01*
X133602235Y-93358157D01*
X133647619Y-93367184D01*
X133629375Y-93379375D01*
X133301161Y-93870582D01*
X133185908Y-94450000D01*
X130985000Y-94450000D01*
X130985000Y-85055431D01*
X132015000Y-85055431D01*
X132015000Y-85944569D01*
X132355259Y-86766026D01*
X132983974Y-87394741D01*
X133805431Y-87735000D01*
X134694569Y-87735000D01*
X135516026Y-87394741D01*
X136144741Y-86766026D01*
X136485000Y-85944569D01*
X136485000Y-85055431D01*
X159265000Y-85055431D01*
X159265000Y-85944569D01*
X159605259Y-86766026D01*
X160233974Y-87394741D01*
X161055431Y-87735000D01*
X161944569Y-87735000D01*
X162766026Y-87394741D01*
X163394741Y-86766026D01*
X163735000Y-85944569D01*
X163735000Y-85055431D01*
X163394741Y-84233974D01*
X162766026Y-83605259D01*
X161944569Y-83265000D01*
X161055431Y-83265000D01*
X160233974Y-83605259D01*
X159605259Y-84233974D01*
X159265000Y-85055431D01*
X136485000Y-85055431D01*
X136144741Y-84233974D01*
X135516026Y-83605259D01*
X134694569Y-83265000D01*
X133805431Y-83265000D01*
X132983974Y-83605259D01*
X132355259Y-84233974D01*
X132015000Y-85055431D01*
X130985000Y-85055431D01*
X130985000Y-82235000D01*
X164765000Y-82235000D01*
X164765001Y-123015000D01*
X164765001Y-123015000D01*
G37*
X164765001Y-123015000D02*
X130985000Y-123015000D01*
X130985000Y-119305431D01*
X132015000Y-119305431D01*
X132015000Y-120194569D01*
X132355259Y-121016026D01*
X132983974Y-121644741D01*
X133805431Y-121985000D01*
X134694569Y-121985000D01*
X135516026Y-121644741D01*
X136144741Y-121016026D01*
X136485000Y-120194569D01*
X136485000Y-119305431D01*
X136144741Y-118483974D01*
X135516026Y-117855259D01*
X134694569Y-117515000D01*
X133805431Y-117515000D01*
X132983974Y-117855259D01*
X132355259Y-118483974D01*
X132015000Y-119305431D01*
X130985000Y-119305431D01*
X130985000Y-116424833D01*
X140595000Y-116424833D01*
X140595000Y-117095167D01*
X140851526Y-117714476D01*
X141325524Y-118188474D01*
X141944833Y-118445000D01*
X142615167Y-118445000D01*
X143234476Y-118188474D01*
X143708474Y-117714476D01*
X143965000Y-117095167D01*
X143965000Y-117045750D01*
X145675000Y-117045750D01*
X145675000Y-117936310D01*
X145771673Y-118169699D01*
X145950302Y-118348327D01*
X146183691Y-118445000D01*
X147074250Y-118445000D01*
X147233000Y-118286250D01*
X147233000Y-116887000D01*
X147487000Y-116887000D01*
X147487000Y-118286250D01*
X147645750Y-118445000D01*
X148536309Y-118445000D01*
X148769698Y-118348327D01*
X148782275Y-118335750D01*
X151815000Y-118335750D01*
X151815000Y-118976310D01*
X151911673Y-119209699D01*
X152090302Y-119388327D01*
X152323691Y-119485000D01*
X152964250Y-119485000D01*
X153123000Y-119326250D01*
X153123000Y-118177000D01*
X151973750Y-118177000D01*
X151815000Y-118335750D01*
X148782275Y-118335750D01*
X148948327Y-118169699D01*
X149045000Y-117936310D01*
X149045000Y-117123690D01*
X151815000Y-117123690D01*
X151815000Y-117764250D01*
X151973750Y-117923000D01*
X153123000Y-117923000D01*
X153123000Y-116773750D01*
X153377000Y-116773750D01*
X153377000Y-117923000D01*
X153397000Y-117923000D01*
X153397000Y-118177000D01*
X153377000Y-118177000D01*
X153377000Y-119326250D01*
X153535750Y-119485000D01*
X154176309Y-119485000D01*
X154409698Y-119388327D01*
X154503856Y-119294170D01*
X154964561Y-119485000D01*
X155535439Y-119485000D01*
X155968956Y-119305431D01*
X159265000Y-119305431D01*
X159265000Y-120194569D01*
X159605259Y-121016026D01*
X160233974Y-121644741D01*
X161055431Y-121985000D01*
X161944569Y-121985000D01*
X162766026Y-121644741D01*
X163394741Y-121016026D01*
X163735000Y-120194569D01*
X163735000Y-119305431D01*
X163394741Y-118483974D01*
X162766026Y-117855259D01*
X161944569Y-117515000D01*
X161055431Y-117515000D01*
X160233974Y-117855259D01*
X159605259Y-118483974D01*
X159265000Y-119305431D01*
X155968956Y-119305431D01*
X156062862Y-119266534D01*
X156466534Y-118862862D01*
X156685000Y-118335439D01*
X156685000Y-117764561D01*
X156466534Y-117237138D01*
X156062862Y-116833466D01*
X155535439Y-116615000D01*
X154964561Y-116615000D01*
X154503856Y-116805830D01*
X154409698Y-116711673D01*
X154176309Y-116615000D01*
X153535750Y-116615000D01*
X153377000Y-116773750D01*
X153123000Y-116773750D01*
X152964250Y-116615000D01*
X152323691Y-116615000D01*
X152090302Y-116711673D01*
X151911673Y-116890301D01*
X151815000Y-117123690D01*
X149045000Y-117123690D01*
X149045000Y-117045750D01*
X148886250Y-116887000D01*
X147487000Y-116887000D01*
X147233000Y-116887000D01*
X145833750Y-116887000D01*
X145675000Y-117045750D01*
X143965000Y-117045750D01*
X143965000Y-116424833D01*
X143708474Y-115805524D01*
X143486640Y-115583690D01*
X145675000Y-115583690D01*
X145675000Y-116474250D01*
X145833750Y-116633000D01*
X147233000Y-116633000D01*
X147233000Y-115233750D01*
X147487000Y-115233750D01*
X147487000Y-116633000D01*
X148886250Y-116633000D01*
X149045000Y-116474250D01*
X149045000Y-115583690D01*
X148948327Y-115350301D01*
X148769698Y-115171673D01*
X148536309Y-115075000D01*
X147645750Y-115075000D01*
X147487000Y-115233750D01*
X147233000Y-115233750D01*
X147074250Y-115075000D01*
X146183691Y-115075000D01*
X145950302Y-115171673D01*
X145771673Y-115350301D01*
X145675000Y-115583690D01*
X143486640Y-115583690D01*
X143234476Y-115331526D01*
X142615167Y-115075000D01*
X141944833Y-115075000D01*
X141325524Y-115331526D01*
X140851526Y-115805524D01*
X140595000Y-116424833D01*
X130985000Y-116424833D01*
X130985000Y-109174452D01*
X142355000Y-109174452D01*
X142355000Y-109705548D01*
X142558242Y-110196217D01*
X142933783Y-110571758D01*
X143424452Y-110775000D01*
X143955548Y-110775000D01*
X144446217Y-110571758D01*
X144642700Y-110375275D01*
X145434331Y-110375275D01*
X145496169Y-110611042D01*
X145997122Y-110787419D01*
X146527440Y-110758664D01*
X146883831Y-110611042D01*
X146945669Y-110375275D01*
X146190000Y-109619605D01*
X145434331Y-110375275D01*
X144642700Y-110375275D01*
X144821758Y-110196217D01*
X144933279Y-109926983D01*
X145018958Y-110133831D01*
X145254725Y-110195669D01*
X146010395Y-109440000D01*
X146369605Y-109440000D01*
X147125275Y-110195669D01*
X147361042Y-110133831D01*
X147537419Y-109632878D01*
X147508664Y-109102560D01*
X147361042Y-108746169D01*
X147125275Y-108684331D01*
X146369605Y-109440000D01*
X146010395Y-109440000D01*
X145254725Y-108684331D01*
X145018958Y-108746169D01*
X144940225Y-108969788D01*
X144821758Y-108683783D01*
X144642700Y-108504725D01*
X145434331Y-108504725D01*
X146190000Y-109260395D01*
X146945669Y-108504725D01*
X146883831Y-108268958D01*
X146382878Y-108092581D01*
X145852560Y-108121336D01*
X145496169Y-108268958D01*
X145434331Y-108504725D01*
X144642700Y-108504725D01*
X144446217Y-108308242D01*
X143955548Y-108105000D01*
X143424452Y-108105000D01*
X142933783Y-108308242D01*
X142558242Y-108683783D01*
X142355000Y-109174452D01*
X130985000Y-109174452D01*
X130985000Y-94450000D01*
X133185908Y-94450000D01*
X133301161Y-95029418D01*
X133629375Y-95520625D01*
X133927761Y-95720000D01*
X133629375Y-95919375D01*
X133301161Y-96410582D01*
X133185908Y-96990000D01*
X133301161Y-97569418D01*
X133629375Y-98060625D01*
X133927761Y-98260000D01*
X133629375Y-98459375D01*
X133301161Y-98950582D01*
X133185908Y-99530000D01*
X133301161Y-100109418D01*
X133629375Y-100600625D01*
X133927761Y-100800000D01*
X133629375Y-100999375D01*
X133301161Y-101490582D01*
X133185908Y-102070000D01*
X133301161Y-102649418D01*
X133629375Y-103140625D01*
X133927761Y-103340000D01*
X133629375Y-103539375D01*
X133301161Y-104030582D01*
X133185908Y-104610000D01*
X133301161Y-105189418D01*
X133629375Y-105680625D01*
X133927761Y-105880000D01*
X133629375Y-106079375D01*
X133301161Y-106570582D01*
X133185908Y-107150000D01*
X133301161Y-107729418D01*
X133629375Y-108220625D01*
X134120582Y-108548839D01*
X134553744Y-108635000D01*
X134846256Y-108635000D01*
X135279418Y-108548839D01*
X135770625Y-108220625D01*
X136098839Y-107729418D01*
X136214092Y-107150000D01*
X136098839Y-106570582D01*
X135770625Y-106079375D01*
X135472239Y-105880000D01*
X135770625Y-105680625D01*
X136098839Y-105189418D01*
X136214092Y-104610000D01*
X136098839Y-104030582D01*
X135770625Y-103539375D01*
X135472239Y-103340000D01*
X135770625Y-103140625D01*
X136098839Y-102649418D01*
X136214092Y-102070000D01*
X136098839Y-101490582D01*
X135770625Y-100999375D01*
X135472239Y-100800000D01*
X135770625Y-100600625D01*
X136098839Y-100109418D01*
X136214092Y-99530000D01*
X136098839Y-98950582D01*
X135770625Y-98459375D01*
X135472239Y-98260000D01*
X135770625Y-98060625D01*
X136098839Y-97569418D01*
X136214092Y-96990000D01*
X136098839Y-96410582D01*
X135770625Y-95919375D01*
X135472239Y-95720000D01*
X135770625Y-95520625D01*
X136098839Y-95029418D01*
X136214092Y-94450000D01*
X136098839Y-93870582D01*
X135770625Y-93379375D01*
X135752381Y-93367184D01*
X135797765Y-93358157D01*
X136007809Y-93217809D01*
X136148157Y-93007765D01*
X136197440Y-92760000D01*
X136197440Y-91060000D01*
X136190479Y-91025000D01*
X139646887Y-91025000D01*
X139758260Y-91584909D01*
X140075423Y-92059577D01*
X140427758Y-92295000D01*
X140075423Y-92530423D01*
X139758260Y-93005091D01*
X139646887Y-93565000D01*
X139758260Y-94124909D01*
X140075423Y-94599577D01*
X140427758Y-94835000D01*
X140075423Y-95070423D01*
X139758260Y-95545091D01*
X139646887Y-96105000D01*
X139758260Y-96664909D01*
X140075423Y-97139577D01*
X140427758Y-97375000D01*
X140075423Y-97610423D01*
X139758260Y-98085091D01*
X139646887Y-98645000D01*
X139758260Y-99204909D01*
X140075423Y-99679577D01*
X140427758Y-99915000D01*
X140075423Y-100150423D01*
X139758260Y-100625091D01*
X139646887Y-101185000D01*
X139758260Y-101744909D01*
X140075423Y-102219577D01*
X140427758Y-102455000D01*
X140075423Y-102690423D01*
X139758260Y-103165091D01*
X139646887Y-103725000D01*
X139758260Y-104284909D01*
X140075423Y-104759577D01*
X140427758Y-104995000D01*
X140075423Y-105230423D01*
X139758260Y-105705091D01*
X139646887Y-106265000D01*
X139758260Y-106824909D01*
X140075423Y-107299577D01*
X140550091Y-107616740D01*
X140968667Y-107700000D01*
X141251333Y-107700000D01*
X141669909Y-107616740D01*
X142144577Y-107299577D01*
X142461740Y-106824909D01*
X142503684Y-106614039D01*
X147338096Y-106614039D01*
X147498959Y-107002423D01*
X147874866Y-107417389D01*
X148380959Y-107656914D01*
X148603000Y-107535629D01*
X148603000Y-106392000D01*
X148857000Y-106392000D01*
X148857000Y-107535629D01*
X149079041Y-107656914D01*
X149585134Y-107417389D01*
X149961041Y-107002423D01*
X150121904Y-106614039D01*
X149999915Y-106392000D01*
X148857000Y-106392000D01*
X148603000Y-106392000D01*
X147460085Y-106392000D01*
X147338096Y-106614039D01*
X142503684Y-106614039D01*
X142573113Y-106265000D01*
X142461740Y-105705091D01*
X142144577Y-105230423D01*
X141792242Y-104995000D01*
X142144577Y-104759577D01*
X142461740Y-104284909D01*
X142573113Y-103725000D01*
X142461740Y-103165091D01*
X142144577Y-102690423D01*
X141792242Y-102455000D01*
X142144577Y-102219577D01*
X142461740Y-101744909D01*
X142573113Y-101185000D01*
X142461740Y-100625091D01*
X142144577Y-100150423D01*
X141792242Y-99915000D01*
X142144577Y-99679577D01*
X142461740Y-99204909D01*
X142573113Y-98645000D01*
X142461740Y-98085091D01*
X142144577Y-97610423D01*
X141792242Y-97375000D01*
X142144577Y-97139577D01*
X142461740Y-96664909D01*
X142573113Y-96105000D01*
X142461740Y-95545091D01*
X142144577Y-95070423D01*
X141792242Y-94835000D01*
X142144577Y-94599577D01*
X142461740Y-94124909D01*
X142573113Y-93565000D01*
X142461740Y-93005091D01*
X142144577Y-92530423D01*
X141792242Y-92295000D01*
X142144577Y-92059577D01*
X142461740Y-91584909D01*
X142573113Y-91025000D01*
X142461740Y-90465091D01*
X142144577Y-89990423D01*
X142023894Y-89909785D01*
X142157765Y-89883157D01*
X142367809Y-89742809D01*
X142508157Y-89532765D01*
X142557440Y-89285000D01*
X142557440Y-88485000D01*
X147266887Y-88485000D01*
X147378260Y-89044909D01*
X147695423Y-89519577D01*
X148047758Y-89755000D01*
X147695423Y-89990423D01*
X147378260Y-90465091D01*
X147266887Y-91025000D01*
X147378260Y-91584909D01*
X147695423Y-92059577D01*
X148047758Y-92295000D01*
X147695423Y-92530423D01*
X147378260Y-93005091D01*
X147266887Y-93565000D01*
X147378260Y-94124909D01*
X147695423Y-94599577D01*
X148047758Y-94835000D01*
X147695423Y-95070423D01*
X147378260Y-95545091D01*
X147266887Y-96105000D01*
X147378260Y-96664909D01*
X147695423Y-97139577D01*
X148047758Y-97375000D01*
X147695423Y-97610423D01*
X147378260Y-98085091D01*
X147266887Y-98645000D01*
X147378260Y-99204909D01*
X147695423Y-99679577D01*
X148047758Y-99915000D01*
X147695423Y-100150423D01*
X147378260Y-100625091D01*
X147266887Y-101185000D01*
X147378260Y-101744909D01*
X147695423Y-102219577D01*
X148047758Y-102455000D01*
X147695423Y-102690423D01*
X147378260Y-103165091D01*
X147266887Y-103725000D01*
X147378260Y-104284909D01*
X147695423Y-104759577D01*
X148079108Y-105015947D01*
X147874866Y-105112611D01*
X147498959Y-105527577D01*
X147338096Y-105915961D01*
X147460085Y-106138000D01*
X148603000Y-106138000D01*
X148603000Y-106118000D01*
X148857000Y-106118000D01*
X148857000Y-106138000D01*
X149999915Y-106138000D01*
X150121904Y-105915961D01*
X149961041Y-105527577D01*
X149585134Y-105112611D01*
X149380892Y-105015947D01*
X149764577Y-104759577D01*
X150081740Y-104284909D01*
X150193113Y-103725000D01*
X150081740Y-103165091D01*
X149764577Y-102690423D01*
X149412242Y-102455000D01*
X149764577Y-102219577D01*
X150081740Y-101744909D01*
X150193113Y-101185000D01*
X150081740Y-100625091D01*
X149764577Y-100150423D01*
X149412242Y-99915000D01*
X149764577Y-99679577D01*
X150081740Y-99204909D01*
X150193113Y-98645000D01*
X150081740Y-98085091D01*
X149764577Y-97610423D01*
X149412242Y-97375000D01*
X149764577Y-97139577D01*
X150081740Y-96664909D01*
X150193113Y-96105000D01*
X150081740Y-95545091D01*
X149764577Y-95070423D01*
X149412242Y-94835000D01*
X149764577Y-94599577D01*
X150081740Y-94124909D01*
X150193113Y-93565000D01*
X150081740Y-93005091D01*
X149764577Y-92530423D01*
X149412242Y-92295000D01*
X149764577Y-92059577D01*
X150081740Y-91584909D01*
X150193113Y-91025000D01*
X150839908Y-91025000D01*
X150955161Y-91604418D01*
X151283375Y-92095625D01*
X151581761Y-92295000D01*
X151283375Y-92494375D01*
X150955161Y-92985582D01*
X150839908Y-93565000D01*
X150955161Y-94144418D01*
X151283375Y-94635625D01*
X151581761Y-94835000D01*
X151283375Y-95034375D01*
X150955161Y-95525582D01*
X150839908Y-96105000D01*
X150955161Y-96684418D01*
X151283375Y-97175625D01*
X151581761Y-97375000D01*
X151283375Y-97574375D01*
X150955161Y-98065582D01*
X150839908Y-98645000D01*
X150955161Y-99224418D01*
X151283375Y-99715625D01*
X151581761Y-99915000D01*
X151283375Y-100114375D01*
X150955161Y-100605582D01*
X150839908Y-101185000D01*
X150955161Y-101764418D01*
X151283375Y-102255625D01*
X151581761Y-102455000D01*
X151283375Y-102654375D01*
X150955161Y-103145582D01*
X150839908Y-103725000D01*
X150955161Y-104304418D01*
X151283375Y-104795625D01*
X151774582Y-105123839D01*
X152207744Y-105210000D01*
X152500256Y-105210000D01*
X152933418Y-105123839D01*
X153424625Y-104795625D01*
X153752839Y-104304418D01*
X153868092Y-103725000D01*
X153752839Y-103145582D01*
X153424625Y-102654375D01*
X153353559Y-102606890D01*
X158433524Y-102606890D01*
X158672503Y-103121193D01*
X159097429Y-103515053D01*
X159640733Y-103716320D01*
X159873000Y-103576165D01*
X159873000Y-102377000D01*
X160127000Y-102377000D01*
X160127000Y-103576165D01*
X160359267Y-103716320D01*
X160902571Y-103515053D01*
X161327497Y-103121193D01*
X161566476Y-102606890D01*
X161445155Y-102377000D01*
X160127000Y-102377000D01*
X159873000Y-102377000D01*
X158554845Y-102377000D01*
X158433524Y-102606890D01*
X153353559Y-102606890D01*
X153126239Y-102455000D01*
X153424625Y-102255625D01*
X153752839Y-101764418D01*
X153868092Y-101185000D01*
X153752839Y-100605582D01*
X153424625Y-100114375D01*
X153126239Y-99915000D01*
X153424625Y-99715625D01*
X153752839Y-99224418D01*
X153868092Y-98645000D01*
X153752839Y-98065582D01*
X153424625Y-97574375D01*
X153126239Y-97375000D01*
X153424625Y-97175625D01*
X153752839Y-96684418D01*
X153868092Y-96105000D01*
X153752839Y-95525582D01*
X153424625Y-95034375D01*
X153126239Y-94835000D01*
X153253450Y-94750000D01*
X158360908Y-94750000D01*
X158476161Y-95329418D01*
X158804375Y-95820625D01*
X159072829Y-96000000D01*
X158804375Y-96179375D01*
X158476161Y-96670582D01*
X158360908Y-97250000D01*
X158476161Y-97829418D01*
X158804375Y-98320625D01*
X159072829Y-98500000D01*
X158804375Y-98679375D01*
X158476161Y-99170582D01*
X158360908Y-99750000D01*
X158476161Y-100329418D01*
X158804375Y-100820625D01*
X159077687Y-101003246D01*
X158672503Y-101378807D01*
X158433524Y-101893110D01*
X158554845Y-102123000D01*
X159873000Y-102123000D01*
X159873000Y-102103000D01*
X160127000Y-102103000D01*
X160127000Y-102123000D01*
X161445155Y-102123000D01*
X161566476Y-101893110D01*
X161327497Y-101378807D01*
X160922313Y-101003246D01*
X161195625Y-100820625D01*
X161523839Y-100329418D01*
X161639092Y-99750000D01*
X161523839Y-99170582D01*
X161195625Y-98679375D01*
X160927171Y-98500000D01*
X161195625Y-98320625D01*
X161523839Y-97829418D01*
X161639092Y-97250000D01*
X161523839Y-96670582D01*
X161195625Y-96179375D01*
X160927171Y-96000000D01*
X161195625Y-95820625D01*
X161523839Y-95329418D01*
X161639092Y-94750000D01*
X161523839Y-94170582D01*
X161195625Y-93679375D01*
X161131844Y-93636758D01*
X161359586Y-93484586D01*
X161554126Y-93193435D01*
X161622440Y-92850000D01*
X161622440Y-91650000D01*
X161554126Y-91306565D01*
X161359586Y-91015414D01*
X161068435Y-90820874D01*
X160725000Y-90752560D01*
X159275000Y-90752560D01*
X158931565Y-90820874D01*
X158640414Y-91015414D01*
X158445874Y-91306565D01*
X158377560Y-91650000D01*
X158377560Y-92850000D01*
X158445874Y-93193435D01*
X158640414Y-93484586D01*
X158868156Y-93636758D01*
X158804375Y-93679375D01*
X158476161Y-94170582D01*
X158360908Y-94750000D01*
X153253450Y-94750000D01*
X153424625Y-94635625D01*
X153752839Y-94144418D01*
X153868092Y-93565000D01*
X153752839Y-92985582D01*
X153424625Y-92494375D01*
X153126239Y-92295000D01*
X153424625Y-92095625D01*
X153752839Y-91604418D01*
X153868092Y-91025000D01*
X153752839Y-90445582D01*
X153424625Y-89954375D01*
X153406381Y-89942184D01*
X153451765Y-89933157D01*
X153661809Y-89792809D01*
X153802157Y-89582765D01*
X153851440Y-89335000D01*
X153851440Y-87635000D01*
X153802157Y-87387235D01*
X153661809Y-87177191D01*
X153451765Y-87036843D01*
X153204000Y-86987560D01*
X151504000Y-86987560D01*
X151256235Y-87036843D01*
X151046191Y-87177191D01*
X150905843Y-87387235D01*
X150856560Y-87635000D01*
X150856560Y-89335000D01*
X150905843Y-89582765D01*
X151046191Y-89792809D01*
X151256235Y-89933157D01*
X151301619Y-89942184D01*
X151283375Y-89954375D01*
X150955161Y-90445582D01*
X150839908Y-91025000D01*
X150193113Y-91025000D01*
X150081740Y-90465091D01*
X149764577Y-89990423D01*
X149412242Y-89755000D01*
X149764577Y-89519577D01*
X150081740Y-89044909D01*
X150193113Y-88485000D01*
X150081740Y-87925091D01*
X149764577Y-87450423D01*
X149289909Y-87133260D01*
X148871333Y-87050000D01*
X148588667Y-87050000D01*
X148170091Y-87133260D01*
X147695423Y-87450423D01*
X147378260Y-87925091D01*
X147266887Y-88485000D01*
X142557440Y-88485000D01*
X142557440Y-87685000D01*
X142508157Y-87437235D01*
X142367809Y-87227191D01*
X142157765Y-87086843D01*
X141910000Y-87037560D01*
X140310000Y-87037560D01*
X140062235Y-87086843D01*
X139852191Y-87227191D01*
X139711843Y-87437235D01*
X139662560Y-87685000D01*
X139662560Y-89285000D01*
X139711843Y-89532765D01*
X139852191Y-89742809D01*
X140062235Y-89883157D01*
X140196106Y-89909785D01*
X140075423Y-89990423D01*
X139758260Y-90465091D01*
X139646887Y-91025000D01*
X136190479Y-91025000D01*
X136148157Y-90812235D01*
X136007809Y-90602191D01*
X135797765Y-90461843D01*
X135550000Y-90412560D01*
X133850000Y-90412560D01*
X133602235Y-90461843D01*
X133392191Y-90602191D01*
X133251843Y-90812235D01*
X133202560Y-91060000D01*
X133202560Y-92760000D01*
X133251843Y-93007765D01*
X133392191Y-93217809D01*
X133602235Y-93358157D01*
X133647619Y-93367184D01*
X133629375Y-93379375D01*
X133301161Y-93870582D01*
X133185908Y-94450000D01*
X130985000Y-94450000D01*
X130985000Y-85055431D01*
X132015000Y-85055431D01*
X132015000Y-85944569D01*
X132355259Y-86766026D01*
X132983974Y-87394741D01*
X133805431Y-87735000D01*
X134694569Y-87735000D01*
X135516026Y-87394741D01*
X136144741Y-86766026D01*
X136485000Y-85944569D01*
X136485000Y-85055431D01*
X159265000Y-85055431D01*
X159265000Y-85944569D01*
X159605259Y-86766026D01*
X160233974Y-87394741D01*
X161055431Y-87735000D01*
X161944569Y-87735000D01*
X162766026Y-87394741D01*
X163394741Y-86766026D01*
X163735000Y-85944569D01*
X163735000Y-85055431D01*
X163394741Y-84233974D01*
X162766026Y-83605259D01*
X161944569Y-83265000D01*
X161055431Y-83265000D01*
X160233974Y-83605259D01*
X159605259Y-84233974D01*
X159265000Y-85055431D01*
X136485000Y-85055431D01*
X136144741Y-84233974D01*
X135516026Y-83605259D01*
X134694569Y-83265000D01*
X133805431Y-83265000D01*
X132983974Y-83605259D01*
X132355259Y-84233974D01*
X132015000Y-85055431D01*
X130985000Y-85055431D01*
X130985000Y-82235000D01*
X164765000Y-82235000D01*
X164765001Y-123015000D01*
G04 #@! TD*
M02*
