G04 #@! TF.GenerationSoftware,KiCad,Pcbnew,5.0.1*
G04 #@! TF.CreationDate,2019-01-27T14:18:01-03:00*
G04 #@! TF.ProjectId,StepperDriver,537465707065724472697665722E6B69,1.0*
G04 #@! TF.SameCoordinates,Original*
G04 #@! TF.FileFunction,Copper,L2,Bot,Signal*
G04 #@! TF.FilePolarity,Positive*
%FSLAX46Y46*%
G04 Gerber Fmt 4.6, Leading zero omitted, Abs format (unit mm)*
G04 Created by KiCad (PCBNEW 5.0.1) date Sun 27 Jan 2019 14:18:01 -03*
%MOMM*%
%LPD*%
G01*
G04 APERTURE LIST*
G04 #@! TA.AperFunction,ComponentPad*
%ADD10R,1.700000X1.700000*%
G04 #@! TD*
G04 #@! TA.AperFunction,ComponentPad*
%ADD11O,1.700000X1.700000*%
G04 #@! TD*
G04 #@! TA.AperFunction,ComponentPad*
%ADD12R,1.600000X1.600000*%
G04 #@! TD*
G04 #@! TA.AperFunction,ComponentPad*
%ADD13O,1.600000X1.600000*%
G04 #@! TD*
G04 #@! TA.AperFunction,ComponentPad*
%ADD14C,1.400000*%
G04 #@! TD*
G04 #@! TA.AperFunction,ComponentPad*
%ADD15R,2.100000X2.100000*%
G04 #@! TD*
G04 #@! TA.AperFunction,ComponentPad*
%ADD16C,2.100000*%
G04 #@! TD*
G04 #@! TA.AperFunction,Conductor*
%ADD17C,0.100000*%
G04 #@! TD*
G04 #@! TA.AperFunction,ComponentPad*
%ADD18C,1.700000*%
G04 #@! TD*
G04 #@! TA.AperFunction,ComponentPad*
%ADD19O,1.950000X1.700000*%
G04 #@! TD*
G04 #@! TA.AperFunction,ComponentPad*
%ADD20C,1.600000*%
G04 #@! TD*
G04 #@! TA.AperFunction,Conductor*
%ADD21C,0.300000*%
G04 #@! TD*
G04 #@! TA.AperFunction,Conductor*
%ADD22C,0.500000*%
G04 #@! TD*
G04 #@! TA.AperFunction,Conductor*
%ADD23C,0.254000*%
G04 #@! TD*
G04 APERTURE END LIST*
D10*
G04 #@! TO.P,J1,1*
G04 #@! TO.N,Net-(J1-Pad1)*
X134700000Y-91910000D03*
D11*
G04 #@! TO.P,J1,2*
G04 #@! TO.N,Net-(J1-Pad2)*
X134700000Y-94450000D03*
G04 #@! TO.P,J1,3*
G04 #@! TO.N,Net-(J1-Pad3)*
X134700000Y-96990000D03*
G04 #@! TO.P,J1,4*
G04 #@! TO.N,Net-(J1-Pad4)*
X134700000Y-99530000D03*
G04 #@! TO.P,J1,5*
G04 #@! TO.N,Net-(J1-Pad5)*
X134700000Y-102070000D03*
G04 #@! TO.P,J1,6*
G04 #@! TO.N,Net-(J1-Pad6)*
X134700000Y-104610000D03*
G04 #@! TO.P,J1,7*
G04 #@! TO.N,Net-(J1-Pad7)*
X134700000Y-107150000D03*
G04 #@! TD*
D12*
G04 #@! TO.P,U1,1*
G04 #@! TO.N,Net-(J1-Pad1)*
X141110000Y-88485000D03*
D13*
G04 #@! TO.P,U1,9*
G04 #@! TO.N,MOTOR_PWR*
X148730000Y-106265000D03*
G04 #@! TO.P,U1,2*
G04 #@! TO.N,Net-(J1-Pad2)*
X141110000Y-91025000D03*
G04 #@! TO.P,U1,10*
G04 #@! TO.N,Net-(J4-Pad7)*
X148730000Y-103725000D03*
G04 #@! TO.P,U1,3*
G04 #@! TO.N,Net-(J1-Pad3)*
X141110000Y-93565000D03*
G04 #@! TO.P,U1,11*
G04 #@! TO.N,Net-(J4-Pad6)*
X148730000Y-101185000D03*
G04 #@! TO.P,U1,4*
G04 #@! TO.N,Net-(J1-Pad4)*
X141110000Y-96105000D03*
G04 #@! TO.P,U1,12*
G04 #@! TO.N,Net-(J4-Pad5)*
X148730000Y-98645000D03*
G04 #@! TO.P,U1,5*
G04 #@! TO.N,Net-(J1-Pad5)*
X141110000Y-98645000D03*
G04 #@! TO.P,U1,13*
G04 #@! TO.N,Net-(J3-Pad4)*
X148730000Y-96105000D03*
G04 #@! TO.P,U1,6*
G04 #@! TO.N,Net-(J1-Pad6)*
X141110000Y-101185000D03*
G04 #@! TO.P,U1,14*
G04 #@! TO.N,Net-(J3-Pad3)*
X148730000Y-93565000D03*
G04 #@! TO.P,U1,7*
G04 #@! TO.N,Net-(J1-Pad7)*
X141110000Y-103725000D03*
G04 #@! TO.P,U1,15*
G04 #@! TO.N,Net-(J3-Pad2)*
X148730000Y-91025000D03*
G04 #@! TO.P,U1,8*
G04 #@! TO.N,GND*
X141110000Y-106265000D03*
G04 #@! TO.P,U1,16*
G04 #@! TO.N,Net-(J3-Pad1)*
X148730000Y-88485000D03*
G04 #@! TD*
D14*
G04 #@! TO.P,C2,1*
G04 #@! TO.N,MOTOR_PWR*
X146190000Y-109440000D03*
G04 #@! TO.P,C2,2*
G04 #@! TO.N,GND*
X143690000Y-109440000D03*
G04 #@! TD*
D11*
G04 #@! TO.P,J4,7*
G04 #@! TO.N,Net-(J4-Pad7)*
X152354000Y-103725000D03*
G04 #@! TO.P,J4,6*
G04 #@! TO.N,Net-(J4-Pad6)*
X152354000Y-101185000D03*
G04 #@! TO.P,J4,5*
G04 #@! TO.N,Net-(J4-Pad5)*
X152354000Y-98645000D03*
G04 #@! TO.P,J4,4*
G04 #@! TO.N,Net-(J3-Pad4)*
X152354000Y-96105000D03*
G04 #@! TO.P,J4,3*
G04 #@! TO.N,Net-(J3-Pad3)*
X152354000Y-93565000D03*
G04 #@! TO.P,J4,2*
G04 #@! TO.N,Net-(J3-Pad2)*
X152354000Y-91025000D03*
D10*
G04 #@! TO.P,J4,1*
G04 #@! TO.N,Net-(J3-Pad1)*
X152354000Y-88485000D03*
G04 #@! TD*
D15*
G04 #@! TO.P,J2,1*
G04 #@! TO.N,MOTOR_PWR*
X147360000Y-116760000D03*
D16*
G04 #@! TO.P,J2,2*
G04 #@! TO.N,GND*
X142280000Y-116760000D03*
G04 #@! TD*
D17*
G04 #@! TO.N,Net-(J3-Pad1)*
G04 #@! TO.C,J3*
G36*
X160749504Y-91401204D02*
X160773773Y-91404804D01*
X160797571Y-91410765D01*
X160820671Y-91419030D01*
X160842849Y-91429520D01*
X160863893Y-91442133D01*
X160883598Y-91456747D01*
X160901777Y-91473223D01*
X160918253Y-91491402D01*
X160932867Y-91511107D01*
X160945480Y-91532151D01*
X160955970Y-91554329D01*
X160964235Y-91577429D01*
X160970196Y-91601227D01*
X160973796Y-91625496D01*
X160975000Y-91650000D01*
X160975000Y-92850000D01*
X160973796Y-92874504D01*
X160970196Y-92898773D01*
X160964235Y-92922571D01*
X160955970Y-92945671D01*
X160945480Y-92967849D01*
X160932867Y-92988893D01*
X160918253Y-93008598D01*
X160901777Y-93026777D01*
X160883598Y-93043253D01*
X160863893Y-93057867D01*
X160842849Y-93070480D01*
X160820671Y-93080970D01*
X160797571Y-93089235D01*
X160773773Y-93095196D01*
X160749504Y-93098796D01*
X160725000Y-93100000D01*
X159275000Y-93100000D01*
X159250496Y-93098796D01*
X159226227Y-93095196D01*
X159202429Y-93089235D01*
X159179329Y-93080970D01*
X159157151Y-93070480D01*
X159136107Y-93057867D01*
X159116402Y-93043253D01*
X159098223Y-93026777D01*
X159081747Y-93008598D01*
X159067133Y-92988893D01*
X159054520Y-92967849D01*
X159044030Y-92945671D01*
X159035765Y-92922571D01*
X159029804Y-92898773D01*
X159026204Y-92874504D01*
X159025000Y-92850000D01*
X159025000Y-91650000D01*
X159026204Y-91625496D01*
X159029804Y-91601227D01*
X159035765Y-91577429D01*
X159044030Y-91554329D01*
X159054520Y-91532151D01*
X159067133Y-91511107D01*
X159081747Y-91491402D01*
X159098223Y-91473223D01*
X159116402Y-91456747D01*
X159136107Y-91442133D01*
X159157151Y-91429520D01*
X159179329Y-91419030D01*
X159202429Y-91410765D01*
X159226227Y-91404804D01*
X159250496Y-91401204D01*
X159275000Y-91400000D01*
X160725000Y-91400000D01*
X160749504Y-91401204D01*
X160749504Y-91401204D01*
G37*
D18*
G04 #@! TD*
G04 #@! TO.P,J3,1*
G04 #@! TO.N,Net-(J3-Pad1)*
X160000000Y-92250000D03*
D19*
G04 #@! TO.P,J3,2*
G04 #@! TO.N,Net-(J3-Pad2)*
X160000000Y-94750000D03*
G04 #@! TO.P,J3,3*
G04 #@! TO.N,Net-(J3-Pad3)*
X160000000Y-97250000D03*
G04 #@! TO.P,J3,4*
G04 #@! TO.N,Net-(J3-Pad4)*
X160000000Y-99750000D03*
G04 #@! TO.P,J3,5*
G04 #@! TO.N,MOTOR_PWR*
X160000000Y-102250000D03*
G04 #@! TD*
D12*
G04 #@! TO.P,C1,1*
G04 #@! TO.N,MOTOR_PWR*
X153250000Y-118050000D03*
D20*
G04 #@! TO.P,C1,2*
G04 #@! TO.N,GND*
X155250000Y-118050000D03*
G04 #@! TD*
D21*
G04 #@! TO.N,Net-(J1-Pad2)*
X134700000Y-94450000D02*
X137685000Y-94450000D01*
X137685000Y-94450000D02*
X141110000Y-91025000D01*
G04 #@! TO.N,Net-(J1-Pad3)*
X134700000Y-96990000D02*
X137685000Y-96990000D01*
X137685000Y-96990000D02*
X141110000Y-93565000D01*
G04 #@! TO.N,Net-(J1-Pad4)*
X134700000Y-99530000D02*
X137685000Y-99530000D01*
X137685000Y-99530000D02*
X141110000Y-96105000D01*
G04 #@! TO.N,Net-(J1-Pad5)*
X137685000Y-102070000D02*
X141110000Y-98645000D01*
X134700000Y-102070000D02*
X137685000Y-102070000D01*
G04 #@! TO.N,Net-(J1-Pad6)*
X134700000Y-104610000D02*
X137685000Y-104610000D01*
X137685000Y-104610000D02*
X141110000Y-101185000D01*
G04 #@! TO.N,Net-(J1-Pad7)*
X137685000Y-107150000D02*
X141110000Y-103725000D01*
X134700000Y-107150000D02*
X137685000Y-107150000D01*
D22*
G04 #@! TO.N,Net-(J3-Pad1)*
X148730000Y-88485000D02*
X152354000Y-88485000D01*
X158250000Y-92250000D02*
X160000000Y-92250000D01*
X152354000Y-88485000D02*
X154485000Y-88485000D01*
X154485000Y-88485000D02*
X158250000Y-92250000D01*
G04 #@! TO.N,Net-(J3-Pad2)*
X148730000Y-91025000D02*
X152354000Y-91025000D01*
X152354000Y-91025000D02*
X154275000Y-91025000D01*
X154275000Y-91025000D02*
X158000000Y-94750000D01*
X158000000Y-94750000D02*
X160000000Y-94750000D01*
G04 #@! TO.N,Net-(J3-Pad3)*
X148730000Y-93565000D02*
X152354000Y-93565000D01*
X152354000Y-93565000D02*
X154315000Y-93565000D01*
X158000000Y-97250000D02*
X160000000Y-97250000D01*
X154315000Y-93565000D02*
X158000000Y-97250000D01*
G04 #@! TO.N,Net-(J3-Pad4)*
X148730000Y-96105000D02*
X152354000Y-96105000D01*
X158000000Y-99750000D02*
X160000000Y-99750000D01*
X152354000Y-96105000D02*
X154355000Y-96105000D01*
X154355000Y-96105000D02*
X158000000Y-99750000D01*
G04 #@! TO.N,Net-(J4-Pad5)*
X148730000Y-98645000D02*
X152354000Y-98645000D01*
G04 #@! TO.N,Net-(J4-Pad6)*
X148730000Y-101185000D02*
X152354000Y-101185000D01*
G04 #@! TO.N,Net-(J4-Pad7)*
X148730000Y-103725000D02*
X152354000Y-103725000D01*
D21*
G04 #@! TO.N,Net-(J1-Pad1)*
X134700000Y-91910000D02*
X137685000Y-91910000D01*
X137685000Y-91910000D02*
X141110000Y-88485000D01*
G04 #@! TD*
D23*
G04 #@! TO.N,GND*
G36*
X164765001Y-123015000D02*
X130985000Y-123015000D01*
X130985000Y-119305431D01*
X132015000Y-119305431D01*
X132015000Y-120194569D01*
X132355259Y-121016026D01*
X132983974Y-121644741D01*
X133805431Y-121985000D01*
X134694569Y-121985000D01*
X135516026Y-121644741D01*
X136144741Y-121016026D01*
X136485000Y-120194569D01*
X136485000Y-119305431D01*
X136144741Y-118483974D01*
X135609470Y-117948703D01*
X141270902Y-117948703D01*
X141375687Y-118220745D01*
X142003526Y-118455619D01*
X142673456Y-118432349D01*
X143184313Y-118220745D01*
X143289098Y-117948703D01*
X142280000Y-116939605D01*
X141270902Y-117948703D01*
X135609470Y-117948703D01*
X135516026Y-117855259D01*
X134694569Y-117515000D01*
X133805431Y-117515000D01*
X132983974Y-117855259D01*
X132355259Y-118483974D01*
X132015000Y-119305431D01*
X130985000Y-119305431D01*
X130985000Y-116483526D01*
X140584381Y-116483526D01*
X140607651Y-117153456D01*
X140819255Y-117664313D01*
X141091297Y-117769098D01*
X142100395Y-116760000D01*
X142459605Y-116760000D01*
X143468703Y-117769098D01*
X143740745Y-117664313D01*
X143975619Y-117036474D01*
X143952349Y-116366544D01*
X143740745Y-115855687D01*
X143468703Y-115750902D01*
X142459605Y-116760000D01*
X142100395Y-116760000D01*
X141091297Y-115750902D01*
X140819255Y-115855687D01*
X140584381Y-116483526D01*
X130985000Y-116483526D01*
X130985000Y-115571297D01*
X141270902Y-115571297D01*
X142280000Y-116580395D01*
X143150395Y-115710000D01*
X145662560Y-115710000D01*
X145662560Y-117810000D01*
X145711843Y-118057765D01*
X145852191Y-118267809D01*
X146062235Y-118408157D01*
X146310000Y-118457440D01*
X148410000Y-118457440D01*
X148657765Y-118408157D01*
X148867809Y-118267809D01*
X149008157Y-118057765D01*
X149057440Y-117810000D01*
X149057440Y-117250000D01*
X151802560Y-117250000D01*
X151802560Y-118850000D01*
X151851843Y-119097765D01*
X151992191Y-119307809D01*
X152202235Y-119448157D01*
X152450000Y-119497440D01*
X154050000Y-119497440D01*
X154297765Y-119448157D01*
X154507516Y-119308005D01*
X155033223Y-119496965D01*
X155603454Y-119469778D01*
X156000221Y-119305431D01*
X159265000Y-119305431D01*
X159265000Y-120194569D01*
X159605259Y-121016026D01*
X160233974Y-121644741D01*
X161055431Y-121985000D01*
X161944569Y-121985000D01*
X162766026Y-121644741D01*
X163394741Y-121016026D01*
X163735000Y-120194569D01*
X163735000Y-119305431D01*
X163394741Y-118483974D01*
X162766026Y-117855259D01*
X161944569Y-117515000D01*
X161055431Y-117515000D01*
X160233974Y-117855259D01*
X159605259Y-118483974D01*
X159265000Y-119305431D01*
X156000221Y-119305431D01*
X156004005Y-119303864D01*
X156078139Y-119057745D01*
X155250000Y-118229605D01*
X155235858Y-118243748D01*
X155056253Y-118064143D01*
X155070395Y-118050000D01*
X155429605Y-118050000D01*
X156257745Y-118878139D01*
X156503864Y-118804005D01*
X156696965Y-118266777D01*
X156669778Y-117696546D01*
X156503864Y-117295995D01*
X156257745Y-117221861D01*
X155429605Y-118050000D01*
X155070395Y-118050000D01*
X155056253Y-118035858D01*
X155235858Y-117856252D01*
X155250000Y-117870395D01*
X156078139Y-117042255D01*
X156004005Y-116796136D01*
X155466777Y-116603035D01*
X154896546Y-116630222D01*
X154506933Y-116791605D01*
X154297765Y-116651843D01*
X154050000Y-116602560D01*
X152450000Y-116602560D01*
X152202235Y-116651843D01*
X151992191Y-116792191D01*
X151851843Y-117002235D01*
X151802560Y-117250000D01*
X149057440Y-117250000D01*
X149057440Y-115710000D01*
X149008157Y-115462235D01*
X148867809Y-115252191D01*
X148657765Y-115111843D01*
X148410000Y-115062560D01*
X146310000Y-115062560D01*
X146062235Y-115111843D01*
X145852191Y-115252191D01*
X145711843Y-115462235D01*
X145662560Y-115710000D01*
X143150395Y-115710000D01*
X143289098Y-115571297D01*
X143184313Y-115299255D01*
X142556474Y-115064381D01*
X141886544Y-115087651D01*
X141375687Y-115299255D01*
X141270902Y-115571297D01*
X130985000Y-115571297D01*
X130985000Y-110375275D01*
X142934331Y-110375275D01*
X142996169Y-110611042D01*
X143497122Y-110787419D01*
X144027440Y-110758664D01*
X144383831Y-110611042D01*
X144445669Y-110375275D01*
X143690000Y-109619605D01*
X142934331Y-110375275D01*
X130985000Y-110375275D01*
X130985000Y-109247122D01*
X142342581Y-109247122D01*
X142371336Y-109777440D01*
X142518958Y-110133831D01*
X142754725Y-110195669D01*
X143510395Y-109440000D01*
X143869605Y-109440000D01*
X144625275Y-110195669D01*
X144861042Y-110133831D01*
X144939775Y-109910212D01*
X145058242Y-110196217D01*
X145433783Y-110571758D01*
X145924452Y-110775000D01*
X146455548Y-110775000D01*
X146946217Y-110571758D01*
X147321758Y-110196217D01*
X147525000Y-109705548D01*
X147525000Y-109174452D01*
X147321758Y-108683783D01*
X146946217Y-108308242D01*
X146455548Y-108105000D01*
X145924452Y-108105000D01*
X145433783Y-108308242D01*
X145058242Y-108683783D01*
X144946721Y-108953017D01*
X144861042Y-108746169D01*
X144625275Y-108684331D01*
X143869605Y-109440000D01*
X143510395Y-109440000D01*
X142754725Y-108684331D01*
X142518958Y-108746169D01*
X142342581Y-109247122D01*
X130985000Y-109247122D01*
X130985000Y-94450000D01*
X133185908Y-94450000D01*
X133301161Y-95029418D01*
X133629375Y-95520625D01*
X133927761Y-95720000D01*
X133629375Y-95919375D01*
X133301161Y-96410582D01*
X133185908Y-96990000D01*
X133301161Y-97569418D01*
X133629375Y-98060625D01*
X133927761Y-98260000D01*
X133629375Y-98459375D01*
X133301161Y-98950582D01*
X133185908Y-99530000D01*
X133301161Y-100109418D01*
X133629375Y-100600625D01*
X133927761Y-100800000D01*
X133629375Y-100999375D01*
X133301161Y-101490582D01*
X133185908Y-102070000D01*
X133301161Y-102649418D01*
X133629375Y-103140625D01*
X133927761Y-103340000D01*
X133629375Y-103539375D01*
X133301161Y-104030582D01*
X133185908Y-104610000D01*
X133301161Y-105189418D01*
X133629375Y-105680625D01*
X133927761Y-105880000D01*
X133629375Y-106079375D01*
X133301161Y-106570582D01*
X133185908Y-107150000D01*
X133301161Y-107729418D01*
X133629375Y-108220625D01*
X134120582Y-108548839D01*
X134553744Y-108635000D01*
X134846256Y-108635000D01*
X135279418Y-108548839D01*
X135345439Y-108504725D01*
X142934331Y-108504725D01*
X143690000Y-109260395D01*
X144445669Y-108504725D01*
X144383831Y-108268958D01*
X143882878Y-108092581D01*
X143352560Y-108121336D01*
X142996169Y-108268958D01*
X142934331Y-108504725D01*
X135345439Y-108504725D01*
X135770625Y-108220625D01*
X135961474Y-107935000D01*
X137607688Y-107935000D01*
X137685000Y-107950378D01*
X137762312Y-107935000D01*
X137762316Y-107935000D01*
X137991292Y-107889454D01*
X138250953Y-107715953D01*
X138294749Y-107650408D01*
X139675000Y-106270157D01*
X139675000Y-106392002D01*
X139840084Y-106392002D01*
X139718096Y-106614039D01*
X139878959Y-107002423D01*
X140254866Y-107417389D01*
X140760959Y-107656914D01*
X140983000Y-107535629D01*
X140983000Y-106392000D01*
X141237000Y-106392000D01*
X141237000Y-107535629D01*
X141459041Y-107656914D01*
X141965134Y-107417389D01*
X142341041Y-107002423D01*
X142501904Y-106614039D01*
X142379915Y-106392000D01*
X141237000Y-106392000D01*
X140983000Y-106392000D01*
X140963000Y-106392000D01*
X140963000Y-106138000D01*
X140983000Y-106138000D01*
X140983000Y-106118000D01*
X141237000Y-106118000D01*
X141237000Y-106138000D01*
X142379915Y-106138000D01*
X142501904Y-105915961D01*
X142341041Y-105527577D01*
X141965134Y-105112611D01*
X141760892Y-105015947D01*
X142144577Y-104759577D01*
X142461740Y-104284909D01*
X142573113Y-103725000D01*
X142461740Y-103165091D01*
X142144577Y-102690423D01*
X141792242Y-102455000D01*
X142144577Y-102219577D01*
X142461740Y-101744909D01*
X142573113Y-101185000D01*
X142461740Y-100625091D01*
X142144577Y-100150423D01*
X141792242Y-99915000D01*
X142144577Y-99679577D01*
X142461740Y-99204909D01*
X142573113Y-98645000D01*
X142461740Y-98085091D01*
X142144577Y-97610423D01*
X141792242Y-97375000D01*
X142144577Y-97139577D01*
X142461740Y-96664909D01*
X142573113Y-96105000D01*
X142461740Y-95545091D01*
X142144577Y-95070423D01*
X141792242Y-94835000D01*
X142144577Y-94599577D01*
X142461740Y-94124909D01*
X142573113Y-93565000D01*
X142461740Y-93005091D01*
X142144577Y-92530423D01*
X141792242Y-92295000D01*
X142144577Y-92059577D01*
X142461740Y-91584909D01*
X142573113Y-91025000D01*
X142461740Y-90465091D01*
X142144577Y-89990423D01*
X142023894Y-89909785D01*
X142157765Y-89883157D01*
X142367809Y-89742809D01*
X142508157Y-89532765D01*
X142557440Y-89285000D01*
X142557440Y-88485000D01*
X147266887Y-88485000D01*
X147378260Y-89044909D01*
X147695423Y-89519577D01*
X148047758Y-89755000D01*
X147695423Y-89990423D01*
X147378260Y-90465091D01*
X147266887Y-91025000D01*
X147378260Y-91584909D01*
X147695423Y-92059577D01*
X148047758Y-92295000D01*
X147695423Y-92530423D01*
X147378260Y-93005091D01*
X147266887Y-93565000D01*
X147378260Y-94124909D01*
X147695423Y-94599577D01*
X148047758Y-94835000D01*
X147695423Y-95070423D01*
X147378260Y-95545091D01*
X147266887Y-96105000D01*
X147378260Y-96664909D01*
X147695423Y-97139577D01*
X148047758Y-97375000D01*
X147695423Y-97610423D01*
X147378260Y-98085091D01*
X147266887Y-98645000D01*
X147378260Y-99204909D01*
X147695423Y-99679577D01*
X148047758Y-99915000D01*
X147695423Y-100150423D01*
X147378260Y-100625091D01*
X147266887Y-101185000D01*
X147378260Y-101744909D01*
X147695423Y-102219577D01*
X148047758Y-102455000D01*
X147695423Y-102690423D01*
X147378260Y-103165091D01*
X147266887Y-103725000D01*
X147378260Y-104284909D01*
X147695423Y-104759577D01*
X148047758Y-104995000D01*
X147695423Y-105230423D01*
X147378260Y-105705091D01*
X147266887Y-106265000D01*
X147378260Y-106824909D01*
X147695423Y-107299577D01*
X148170091Y-107616740D01*
X148588667Y-107700000D01*
X148871333Y-107700000D01*
X149289909Y-107616740D01*
X149764577Y-107299577D01*
X150081740Y-106824909D01*
X150193113Y-106265000D01*
X150081740Y-105705091D01*
X149764577Y-105230423D01*
X149412242Y-104995000D01*
X149764577Y-104759577D01*
X149864521Y-104610000D01*
X151159344Y-104610000D01*
X151283375Y-104795625D01*
X151774582Y-105123839D01*
X152207744Y-105210000D01*
X152500256Y-105210000D01*
X152933418Y-105123839D01*
X153424625Y-104795625D01*
X153752839Y-104304418D01*
X153868092Y-103725000D01*
X153752839Y-103145582D01*
X153424625Y-102654375D01*
X153126239Y-102455000D01*
X153424625Y-102255625D01*
X153752839Y-101764418D01*
X153868092Y-101185000D01*
X153752839Y-100605582D01*
X153424625Y-100114375D01*
X153126239Y-99915000D01*
X153424625Y-99715625D01*
X153752839Y-99224418D01*
X153868092Y-98645000D01*
X153752839Y-98065582D01*
X153424625Y-97574375D01*
X153126239Y-97375000D01*
X153424625Y-97175625D01*
X153548656Y-96990000D01*
X153988422Y-96990000D01*
X157312577Y-100314156D01*
X157361951Y-100388049D01*
X157435844Y-100437423D01*
X157435845Y-100437424D01*
X157448002Y-100445547D01*
X157654690Y-100583652D01*
X157912835Y-100635000D01*
X157912839Y-100635000D01*
X157999999Y-100652337D01*
X158087159Y-100635000D01*
X158680344Y-100635000D01*
X158804375Y-100820625D01*
X159072829Y-101000000D01*
X158804375Y-101179375D01*
X158476161Y-101670582D01*
X158360908Y-102250000D01*
X158476161Y-102829418D01*
X158804375Y-103320625D01*
X159295582Y-103648839D01*
X159728744Y-103735000D01*
X160271256Y-103735000D01*
X160704418Y-103648839D01*
X161195625Y-103320625D01*
X161523839Y-102829418D01*
X161639092Y-102250000D01*
X161523839Y-101670582D01*
X161195625Y-101179375D01*
X160927171Y-101000000D01*
X161195625Y-100820625D01*
X161523839Y-100329418D01*
X161639092Y-99750000D01*
X161523839Y-99170582D01*
X161195625Y-98679375D01*
X160927171Y-98500000D01*
X161195625Y-98320625D01*
X161523839Y-97829418D01*
X161639092Y-97250000D01*
X161523839Y-96670582D01*
X161195625Y-96179375D01*
X160927171Y-96000000D01*
X161195625Y-95820625D01*
X161523839Y-95329418D01*
X161639092Y-94750000D01*
X161523839Y-94170582D01*
X161195625Y-93679375D01*
X161131844Y-93636758D01*
X161359586Y-93484586D01*
X161554126Y-93193435D01*
X161622440Y-92850000D01*
X161622440Y-91650000D01*
X161554126Y-91306565D01*
X161359586Y-91015414D01*
X161068435Y-90820874D01*
X160725000Y-90752560D01*
X159275000Y-90752560D01*
X158931565Y-90820874D01*
X158640414Y-91015414D01*
X158490843Y-91239264D01*
X155172425Y-87920847D01*
X155123049Y-87846951D01*
X154830310Y-87651348D01*
X154572165Y-87600000D01*
X154572161Y-87600000D01*
X154485000Y-87582663D01*
X154397839Y-87600000D01*
X153844478Y-87600000D01*
X153802157Y-87387235D01*
X153661809Y-87177191D01*
X153451765Y-87036843D01*
X153204000Y-86987560D01*
X151504000Y-86987560D01*
X151256235Y-87036843D01*
X151046191Y-87177191D01*
X150905843Y-87387235D01*
X150863522Y-87600000D01*
X149864521Y-87600000D01*
X149764577Y-87450423D01*
X149289909Y-87133260D01*
X148871333Y-87050000D01*
X148588667Y-87050000D01*
X148170091Y-87133260D01*
X147695423Y-87450423D01*
X147378260Y-87925091D01*
X147266887Y-88485000D01*
X142557440Y-88485000D01*
X142557440Y-87685000D01*
X142508157Y-87437235D01*
X142367809Y-87227191D01*
X142157765Y-87086843D01*
X141910000Y-87037560D01*
X140310000Y-87037560D01*
X140062235Y-87086843D01*
X139852191Y-87227191D01*
X139711843Y-87437235D01*
X139662560Y-87685000D01*
X139662560Y-88822282D01*
X137359843Y-91125000D01*
X136197440Y-91125000D01*
X136197440Y-91060000D01*
X136148157Y-90812235D01*
X136007809Y-90602191D01*
X135797765Y-90461843D01*
X135550000Y-90412560D01*
X133850000Y-90412560D01*
X133602235Y-90461843D01*
X133392191Y-90602191D01*
X133251843Y-90812235D01*
X133202560Y-91060000D01*
X133202560Y-92760000D01*
X133251843Y-93007765D01*
X133392191Y-93217809D01*
X133602235Y-93358157D01*
X133647619Y-93367184D01*
X133629375Y-93379375D01*
X133301161Y-93870582D01*
X133185908Y-94450000D01*
X130985000Y-94450000D01*
X130985000Y-85055431D01*
X132015000Y-85055431D01*
X132015000Y-85944569D01*
X132355259Y-86766026D01*
X132983974Y-87394741D01*
X133805431Y-87735000D01*
X134694569Y-87735000D01*
X135516026Y-87394741D01*
X136144741Y-86766026D01*
X136485000Y-85944569D01*
X136485000Y-85055431D01*
X159265000Y-85055431D01*
X159265000Y-85944569D01*
X159605259Y-86766026D01*
X160233974Y-87394741D01*
X161055431Y-87735000D01*
X161944569Y-87735000D01*
X162766026Y-87394741D01*
X163394741Y-86766026D01*
X163735000Y-85944569D01*
X163735000Y-85055431D01*
X163394741Y-84233974D01*
X162766026Y-83605259D01*
X161944569Y-83265000D01*
X161055431Y-83265000D01*
X160233974Y-83605259D01*
X159605259Y-84233974D01*
X159265000Y-85055431D01*
X136485000Y-85055431D01*
X136144741Y-84233974D01*
X135516026Y-83605259D01*
X134694569Y-83265000D01*
X133805431Y-83265000D01*
X132983974Y-83605259D01*
X132355259Y-84233974D01*
X132015000Y-85055431D01*
X130985000Y-85055431D01*
X130985000Y-82235000D01*
X164765000Y-82235000D01*
X164765001Y-123015000D01*
X164765001Y-123015000D01*
G37*
X164765001Y-123015000D02*
X130985000Y-123015000D01*
X130985000Y-119305431D01*
X132015000Y-119305431D01*
X132015000Y-120194569D01*
X132355259Y-121016026D01*
X132983974Y-121644741D01*
X133805431Y-121985000D01*
X134694569Y-121985000D01*
X135516026Y-121644741D01*
X136144741Y-121016026D01*
X136485000Y-120194569D01*
X136485000Y-119305431D01*
X136144741Y-118483974D01*
X135609470Y-117948703D01*
X141270902Y-117948703D01*
X141375687Y-118220745D01*
X142003526Y-118455619D01*
X142673456Y-118432349D01*
X143184313Y-118220745D01*
X143289098Y-117948703D01*
X142280000Y-116939605D01*
X141270902Y-117948703D01*
X135609470Y-117948703D01*
X135516026Y-117855259D01*
X134694569Y-117515000D01*
X133805431Y-117515000D01*
X132983974Y-117855259D01*
X132355259Y-118483974D01*
X132015000Y-119305431D01*
X130985000Y-119305431D01*
X130985000Y-116483526D01*
X140584381Y-116483526D01*
X140607651Y-117153456D01*
X140819255Y-117664313D01*
X141091297Y-117769098D01*
X142100395Y-116760000D01*
X142459605Y-116760000D01*
X143468703Y-117769098D01*
X143740745Y-117664313D01*
X143975619Y-117036474D01*
X143952349Y-116366544D01*
X143740745Y-115855687D01*
X143468703Y-115750902D01*
X142459605Y-116760000D01*
X142100395Y-116760000D01*
X141091297Y-115750902D01*
X140819255Y-115855687D01*
X140584381Y-116483526D01*
X130985000Y-116483526D01*
X130985000Y-115571297D01*
X141270902Y-115571297D01*
X142280000Y-116580395D01*
X143150395Y-115710000D01*
X145662560Y-115710000D01*
X145662560Y-117810000D01*
X145711843Y-118057765D01*
X145852191Y-118267809D01*
X146062235Y-118408157D01*
X146310000Y-118457440D01*
X148410000Y-118457440D01*
X148657765Y-118408157D01*
X148867809Y-118267809D01*
X149008157Y-118057765D01*
X149057440Y-117810000D01*
X149057440Y-117250000D01*
X151802560Y-117250000D01*
X151802560Y-118850000D01*
X151851843Y-119097765D01*
X151992191Y-119307809D01*
X152202235Y-119448157D01*
X152450000Y-119497440D01*
X154050000Y-119497440D01*
X154297765Y-119448157D01*
X154507516Y-119308005D01*
X155033223Y-119496965D01*
X155603454Y-119469778D01*
X156000221Y-119305431D01*
X159265000Y-119305431D01*
X159265000Y-120194569D01*
X159605259Y-121016026D01*
X160233974Y-121644741D01*
X161055431Y-121985000D01*
X161944569Y-121985000D01*
X162766026Y-121644741D01*
X163394741Y-121016026D01*
X163735000Y-120194569D01*
X163735000Y-119305431D01*
X163394741Y-118483974D01*
X162766026Y-117855259D01*
X161944569Y-117515000D01*
X161055431Y-117515000D01*
X160233974Y-117855259D01*
X159605259Y-118483974D01*
X159265000Y-119305431D01*
X156000221Y-119305431D01*
X156004005Y-119303864D01*
X156078139Y-119057745D01*
X155250000Y-118229605D01*
X155235858Y-118243748D01*
X155056253Y-118064143D01*
X155070395Y-118050000D01*
X155429605Y-118050000D01*
X156257745Y-118878139D01*
X156503864Y-118804005D01*
X156696965Y-118266777D01*
X156669778Y-117696546D01*
X156503864Y-117295995D01*
X156257745Y-117221861D01*
X155429605Y-118050000D01*
X155070395Y-118050000D01*
X155056253Y-118035858D01*
X155235858Y-117856252D01*
X155250000Y-117870395D01*
X156078139Y-117042255D01*
X156004005Y-116796136D01*
X155466777Y-116603035D01*
X154896546Y-116630222D01*
X154506933Y-116791605D01*
X154297765Y-116651843D01*
X154050000Y-116602560D01*
X152450000Y-116602560D01*
X152202235Y-116651843D01*
X151992191Y-116792191D01*
X151851843Y-117002235D01*
X151802560Y-117250000D01*
X149057440Y-117250000D01*
X149057440Y-115710000D01*
X149008157Y-115462235D01*
X148867809Y-115252191D01*
X148657765Y-115111843D01*
X148410000Y-115062560D01*
X146310000Y-115062560D01*
X146062235Y-115111843D01*
X145852191Y-115252191D01*
X145711843Y-115462235D01*
X145662560Y-115710000D01*
X143150395Y-115710000D01*
X143289098Y-115571297D01*
X143184313Y-115299255D01*
X142556474Y-115064381D01*
X141886544Y-115087651D01*
X141375687Y-115299255D01*
X141270902Y-115571297D01*
X130985000Y-115571297D01*
X130985000Y-110375275D01*
X142934331Y-110375275D01*
X142996169Y-110611042D01*
X143497122Y-110787419D01*
X144027440Y-110758664D01*
X144383831Y-110611042D01*
X144445669Y-110375275D01*
X143690000Y-109619605D01*
X142934331Y-110375275D01*
X130985000Y-110375275D01*
X130985000Y-109247122D01*
X142342581Y-109247122D01*
X142371336Y-109777440D01*
X142518958Y-110133831D01*
X142754725Y-110195669D01*
X143510395Y-109440000D01*
X143869605Y-109440000D01*
X144625275Y-110195669D01*
X144861042Y-110133831D01*
X144939775Y-109910212D01*
X145058242Y-110196217D01*
X145433783Y-110571758D01*
X145924452Y-110775000D01*
X146455548Y-110775000D01*
X146946217Y-110571758D01*
X147321758Y-110196217D01*
X147525000Y-109705548D01*
X147525000Y-109174452D01*
X147321758Y-108683783D01*
X146946217Y-108308242D01*
X146455548Y-108105000D01*
X145924452Y-108105000D01*
X145433783Y-108308242D01*
X145058242Y-108683783D01*
X144946721Y-108953017D01*
X144861042Y-108746169D01*
X144625275Y-108684331D01*
X143869605Y-109440000D01*
X143510395Y-109440000D01*
X142754725Y-108684331D01*
X142518958Y-108746169D01*
X142342581Y-109247122D01*
X130985000Y-109247122D01*
X130985000Y-94450000D01*
X133185908Y-94450000D01*
X133301161Y-95029418D01*
X133629375Y-95520625D01*
X133927761Y-95720000D01*
X133629375Y-95919375D01*
X133301161Y-96410582D01*
X133185908Y-96990000D01*
X133301161Y-97569418D01*
X133629375Y-98060625D01*
X133927761Y-98260000D01*
X133629375Y-98459375D01*
X133301161Y-98950582D01*
X133185908Y-99530000D01*
X133301161Y-100109418D01*
X133629375Y-100600625D01*
X133927761Y-100800000D01*
X133629375Y-100999375D01*
X133301161Y-101490582D01*
X133185908Y-102070000D01*
X133301161Y-102649418D01*
X133629375Y-103140625D01*
X133927761Y-103340000D01*
X133629375Y-103539375D01*
X133301161Y-104030582D01*
X133185908Y-104610000D01*
X133301161Y-105189418D01*
X133629375Y-105680625D01*
X133927761Y-105880000D01*
X133629375Y-106079375D01*
X133301161Y-106570582D01*
X133185908Y-107150000D01*
X133301161Y-107729418D01*
X133629375Y-108220625D01*
X134120582Y-108548839D01*
X134553744Y-108635000D01*
X134846256Y-108635000D01*
X135279418Y-108548839D01*
X135345439Y-108504725D01*
X142934331Y-108504725D01*
X143690000Y-109260395D01*
X144445669Y-108504725D01*
X144383831Y-108268958D01*
X143882878Y-108092581D01*
X143352560Y-108121336D01*
X142996169Y-108268958D01*
X142934331Y-108504725D01*
X135345439Y-108504725D01*
X135770625Y-108220625D01*
X135961474Y-107935000D01*
X137607688Y-107935000D01*
X137685000Y-107950378D01*
X137762312Y-107935000D01*
X137762316Y-107935000D01*
X137991292Y-107889454D01*
X138250953Y-107715953D01*
X138294749Y-107650408D01*
X139675000Y-106270157D01*
X139675000Y-106392002D01*
X139840084Y-106392002D01*
X139718096Y-106614039D01*
X139878959Y-107002423D01*
X140254866Y-107417389D01*
X140760959Y-107656914D01*
X140983000Y-107535629D01*
X140983000Y-106392000D01*
X141237000Y-106392000D01*
X141237000Y-107535629D01*
X141459041Y-107656914D01*
X141965134Y-107417389D01*
X142341041Y-107002423D01*
X142501904Y-106614039D01*
X142379915Y-106392000D01*
X141237000Y-106392000D01*
X140983000Y-106392000D01*
X140963000Y-106392000D01*
X140963000Y-106138000D01*
X140983000Y-106138000D01*
X140983000Y-106118000D01*
X141237000Y-106118000D01*
X141237000Y-106138000D01*
X142379915Y-106138000D01*
X142501904Y-105915961D01*
X142341041Y-105527577D01*
X141965134Y-105112611D01*
X141760892Y-105015947D01*
X142144577Y-104759577D01*
X142461740Y-104284909D01*
X142573113Y-103725000D01*
X142461740Y-103165091D01*
X142144577Y-102690423D01*
X141792242Y-102455000D01*
X142144577Y-102219577D01*
X142461740Y-101744909D01*
X142573113Y-101185000D01*
X142461740Y-100625091D01*
X142144577Y-100150423D01*
X141792242Y-99915000D01*
X142144577Y-99679577D01*
X142461740Y-99204909D01*
X142573113Y-98645000D01*
X142461740Y-98085091D01*
X142144577Y-97610423D01*
X141792242Y-97375000D01*
X142144577Y-97139577D01*
X142461740Y-96664909D01*
X142573113Y-96105000D01*
X142461740Y-95545091D01*
X142144577Y-95070423D01*
X141792242Y-94835000D01*
X142144577Y-94599577D01*
X142461740Y-94124909D01*
X142573113Y-93565000D01*
X142461740Y-93005091D01*
X142144577Y-92530423D01*
X141792242Y-92295000D01*
X142144577Y-92059577D01*
X142461740Y-91584909D01*
X142573113Y-91025000D01*
X142461740Y-90465091D01*
X142144577Y-89990423D01*
X142023894Y-89909785D01*
X142157765Y-89883157D01*
X142367809Y-89742809D01*
X142508157Y-89532765D01*
X142557440Y-89285000D01*
X142557440Y-88485000D01*
X147266887Y-88485000D01*
X147378260Y-89044909D01*
X147695423Y-89519577D01*
X148047758Y-89755000D01*
X147695423Y-89990423D01*
X147378260Y-90465091D01*
X147266887Y-91025000D01*
X147378260Y-91584909D01*
X147695423Y-92059577D01*
X148047758Y-92295000D01*
X147695423Y-92530423D01*
X147378260Y-93005091D01*
X147266887Y-93565000D01*
X147378260Y-94124909D01*
X147695423Y-94599577D01*
X148047758Y-94835000D01*
X147695423Y-95070423D01*
X147378260Y-95545091D01*
X147266887Y-96105000D01*
X147378260Y-96664909D01*
X147695423Y-97139577D01*
X148047758Y-97375000D01*
X147695423Y-97610423D01*
X147378260Y-98085091D01*
X147266887Y-98645000D01*
X147378260Y-99204909D01*
X147695423Y-99679577D01*
X148047758Y-99915000D01*
X147695423Y-100150423D01*
X147378260Y-100625091D01*
X147266887Y-101185000D01*
X147378260Y-101744909D01*
X147695423Y-102219577D01*
X148047758Y-102455000D01*
X147695423Y-102690423D01*
X147378260Y-103165091D01*
X147266887Y-103725000D01*
X147378260Y-104284909D01*
X147695423Y-104759577D01*
X148047758Y-104995000D01*
X147695423Y-105230423D01*
X147378260Y-105705091D01*
X147266887Y-106265000D01*
X147378260Y-106824909D01*
X147695423Y-107299577D01*
X148170091Y-107616740D01*
X148588667Y-107700000D01*
X148871333Y-107700000D01*
X149289909Y-107616740D01*
X149764577Y-107299577D01*
X150081740Y-106824909D01*
X150193113Y-106265000D01*
X150081740Y-105705091D01*
X149764577Y-105230423D01*
X149412242Y-104995000D01*
X149764577Y-104759577D01*
X149864521Y-104610000D01*
X151159344Y-104610000D01*
X151283375Y-104795625D01*
X151774582Y-105123839D01*
X152207744Y-105210000D01*
X152500256Y-105210000D01*
X152933418Y-105123839D01*
X153424625Y-104795625D01*
X153752839Y-104304418D01*
X153868092Y-103725000D01*
X153752839Y-103145582D01*
X153424625Y-102654375D01*
X153126239Y-102455000D01*
X153424625Y-102255625D01*
X153752839Y-101764418D01*
X153868092Y-101185000D01*
X153752839Y-100605582D01*
X153424625Y-100114375D01*
X153126239Y-99915000D01*
X153424625Y-99715625D01*
X153752839Y-99224418D01*
X153868092Y-98645000D01*
X153752839Y-98065582D01*
X153424625Y-97574375D01*
X153126239Y-97375000D01*
X153424625Y-97175625D01*
X153548656Y-96990000D01*
X153988422Y-96990000D01*
X157312577Y-100314156D01*
X157361951Y-100388049D01*
X157435844Y-100437423D01*
X157435845Y-100437424D01*
X157448002Y-100445547D01*
X157654690Y-100583652D01*
X157912835Y-100635000D01*
X157912839Y-100635000D01*
X157999999Y-100652337D01*
X158087159Y-100635000D01*
X158680344Y-100635000D01*
X158804375Y-100820625D01*
X159072829Y-101000000D01*
X158804375Y-101179375D01*
X158476161Y-101670582D01*
X158360908Y-102250000D01*
X158476161Y-102829418D01*
X158804375Y-103320625D01*
X159295582Y-103648839D01*
X159728744Y-103735000D01*
X160271256Y-103735000D01*
X160704418Y-103648839D01*
X161195625Y-103320625D01*
X161523839Y-102829418D01*
X161639092Y-102250000D01*
X161523839Y-101670582D01*
X161195625Y-101179375D01*
X160927171Y-101000000D01*
X161195625Y-100820625D01*
X161523839Y-100329418D01*
X161639092Y-99750000D01*
X161523839Y-99170582D01*
X161195625Y-98679375D01*
X160927171Y-98500000D01*
X161195625Y-98320625D01*
X161523839Y-97829418D01*
X161639092Y-97250000D01*
X161523839Y-96670582D01*
X161195625Y-96179375D01*
X160927171Y-96000000D01*
X161195625Y-95820625D01*
X161523839Y-95329418D01*
X161639092Y-94750000D01*
X161523839Y-94170582D01*
X161195625Y-93679375D01*
X161131844Y-93636758D01*
X161359586Y-93484586D01*
X161554126Y-93193435D01*
X161622440Y-92850000D01*
X161622440Y-91650000D01*
X161554126Y-91306565D01*
X161359586Y-91015414D01*
X161068435Y-90820874D01*
X160725000Y-90752560D01*
X159275000Y-90752560D01*
X158931565Y-90820874D01*
X158640414Y-91015414D01*
X158490843Y-91239264D01*
X155172425Y-87920847D01*
X155123049Y-87846951D01*
X154830310Y-87651348D01*
X154572165Y-87600000D01*
X154572161Y-87600000D01*
X154485000Y-87582663D01*
X154397839Y-87600000D01*
X153844478Y-87600000D01*
X153802157Y-87387235D01*
X153661809Y-87177191D01*
X153451765Y-87036843D01*
X153204000Y-86987560D01*
X151504000Y-86987560D01*
X151256235Y-87036843D01*
X151046191Y-87177191D01*
X150905843Y-87387235D01*
X150863522Y-87600000D01*
X149864521Y-87600000D01*
X149764577Y-87450423D01*
X149289909Y-87133260D01*
X148871333Y-87050000D01*
X148588667Y-87050000D01*
X148170091Y-87133260D01*
X147695423Y-87450423D01*
X147378260Y-87925091D01*
X147266887Y-88485000D01*
X142557440Y-88485000D01*
X142557440Y-87685000D01*
X142508157Y-87437235D01*
X142367809Y-87227191D01*
X142157765Y-87086843D01*
X141910000Y-87037560D01*
X140310000Y-87037560D01*
X140062235Y-87086843D01*
X139852191Y-87227191D01*
X139711843Y-87437235D01*
X139662560Y-87685000D01*
X139662560Y-88822282D01*
X137359843Y-91125000D01*
X136197440Y-91125000D01*
X136197440Y-91060000D01*
X136148157Y-90812235D01*
X136007809Y-90602191D01*
X135797765Y-90461843D01*
X135550000Y-90412560D01*
X133850000Y-90412560D01*
X133602235Y-90461843D01*
X133392191Y-90602191D01*
X133251843Y-90812235D01*
X133202560Y-91060000D01*
X133202560Y-92760000D01*
X133251843Y-93007765D01*
X133392191Y-93217809D01*
X133602235Y-93358157D01*
X133647619Y-93367184D01*
X133629375Y-93379375D01*
X133301161Y-93870582D01*
X133185908Y-94450000D01*
X130985000Y-94450000D01*
X130985000Y-85055431D01*
X132015000Y-85055431D01*
X132015000Y-85944569D01*
X132355259Y-86766026D01*
X132983974Y-87394741D01*
X133805431Y-87735000D01*
X134694569Y-87735000D01*
X135516026Y-87394741D01*
X136144741Y-86766026D01*
X136485000Y-85944569D01*
X136485000Y-85055431D01*
X159265000Y-85055431D01*
X159265000Y-85944569D01*
X159605259Y-86766026D01*
X160233974Y-87394741D01*
X161055431Y-87735000D01*
X161944569Y-87735000D01*
X162766026Y-87394741D01*
X163394741Y-86766026D01*
X163735000Y-85944569D01*
X163735000Y-85055431D01*
X163394741Y-84233974D01*
X162766026Y-83605259D01*
X161944569Y-83265000D01*
X161055431Y-83265000D01*
X160233974Y-83605259D01*
X159605259Y-84233974D01*
X159265000Y-85055431D01*
X136485000Y-85055431D01*
X136144741Y-84233974D01*
X135516026Y-83605259D01*
X134694569Y-83265000D01*
X133805431Y-83265000D01*
X132983974Y-83605259D01*
X132355259Y-84233974D01*
X132015000Y-85055431D01*
X130985000Y-85055431D01*
X130985000Y-82235000D01*
X164765000Y-82235000D01*
X164765001Y-123015000D01*
G04 #@! TD*
M02*
