G04 #@! TF.GenerationSoftware,KiCad,Pcbnew,5.0.1*
G04 #@! TF.CreationDate,2019-01-27T14:18:01-03:00*
G04 #@! TF.ProjectId,StepperDriver,537465707065724472697665722E6B69,1.0*
G04 #@! TF.SameCoordinates,Original*
G04 #@! TF.FileFunction,Legend,Top*
G04 #@! TF.FilePolarity,Positive*
%FSLAX46Y46*%
G04 Gerber Fmt 4.6, Leading zero omitted, Abs format (unit mm)*
G04 Created by KiCad (PCBNEW 5.0.1) date Sun 27 Jan 2019 14:18:01 -03*
%MOMM*%
%LPD*%
G01*
G04 APERTURE LIST*
%ADD10C,0.200000*%
%ADD11C,0.125000*%
%ADD12C,0.120000*%
%ADD13C,0.010000*%
%ADD14C,0.150000*%
G04 APERTURE END LIST*
D10*
X154455904Y-89069142D02*
X154455904Y-88916761D01*
X154494000Y-88840571D01*
X154570190Y-88764380D01*
X154722571Y-88726285D01*
X154989238Y-88726285D01*
X155141619Y-88764380D01*
X155217809Y-88840571D01*
X155255904Y-88916761D01*
X155255904Y-89069142D01*
X155217809Y-89145333D01*
X155141619Y-89221523D01*
X154989238Y-89259619D01*
X154722571Y-89259619D01*
X154570190Y-89221523D01*
X154494000Y-89145333D01*
X154455904Y-89069142D01*
X155255904Y-87964380D02*
X155255904Y-88421523D01*
X155255904Y-88192952D02*
X154455904Y-88192952D01*
X154570190Y-88269142D01*
X154646380Y-88345333D01*
X154684476Y-88421523D01*
X154455904Y-91609142D02*
X154455904Y-91456761D01*
X154494000Y-91380571D01*
X154570190Y-91304380D01*
X154722571Y-91266285D01*
X154989238Y-91266285D01*
X155141619Y-91304380D01*
X155217809Y-91380571D01*
X155255904Y-91456761D01*
X155255904Y-91609142D01*
X155217809Y-91685333D01*
X155141619Y-91761523D01*
X154989238Y-91799619D01*
X154722571Y-91799619D01*
X154570190Y-91761523D01*
X154494000Y-91685333D01*
X154455904Y-91609142D01*
X154532095Y-90961523D02*
X154494000Y-90923428D01*
X154455904Y-90847238D01*
X154455904Y-90656761D01*
X154494000Y-90580571D01*
X154532095Y-90542476D01*
X154608285Y-90504380D01*
X154684476Y-90504380D01*
X154798761Y-90542476D01*
X155255904Y-90999619D01*
X155255904Y-90504380D01*
X154455904Y-94149142D02*
X154455904Y-93996761D01*
X154494000Y-93920571D01*
X154570190Y-93844380D01*
X154722571Y-93806285D01*
X154989238Y-93806285D01*
X155141619Y-93844380D01*
X155217809Y-93920571D01*
X155255904Y-93996761D01*
X155255904Y-94149142D01*
X155217809Y-94225333D01*
X155141619Y-94301523D01*
X154989238Y-94339619D01*
X154722571Y-94339619D01*
X154570190Y-94301523D01*
X154494000Y-94225333D01*
X154455904Y-94149142D01*
X154455904Y-93539619D02*
X154455904Y-93044380D01*
X154760666Y-93311047D01*
X154760666Y-93196761D01*
X154798761Y-93120571D01*
X154836857Y-93082476D01*
X154913047Y-93044380D01*
X155103523Y-93044380D01*
X155179714Y-93082476D01*
X155217809Y-93120571D01*
X155255904Y-93196761D01*
X155255904Y-93425333D01*
X155217809Y-93501523D01*
X155179714Y-93539619D01*
X154455904Y-96689142D02*
X154455904Y-96536761D01*
X154494000Y-96460571D01*
X154570190Y-96384380D01*
X154722571Y-96346285D01*
X154989238Y-96346285D01*
X155141619Y-96384380D01*
X155217809Y-96460571D01*
X155255904Y-96536761D01*
X155255904Y-96689142D01*
X155217809Y-96765333D01*
X155141619Y-96841523D01*
X154989238Y-96879619D01*
X154722571Y-96879619D01*
X154570190Y-96841523D01*
X154494000Y-96765333D01*
X154455904Y-96689142D01*
X154722571Y-95660571D02*
X155255904Y-95660571D01*
X154417809Y-95851047D02*
X154989238Y-96041523D01*
X154989238Y-95546285D01*
D11*
X152164843Y-112049404D02*
X152083891Y-112697023D01*
X152112462Y-112773214D01*
X152145796Y-112811309D01*
X152217224Y-112849404D01*
X152369605Y-112849404D01*
X152450558Y-112811309D01*
X152493415Y-112773214D01*
X152541034Y-112697023D01*
X152621986Y-112049404D01*
X153283891Y-112849404D02*
X152902938Y-112849404D01*
X153002938Y-112049404D01*
X153550558Y-112849404D02*
X153650558Y-112049404D01*
X154007700Y-112849404D01*
X154107700Y-112049404D01*
X154441034Y-112125595D02*
X154483891Y-112087500D01*
X154564843Y-112049404D01*
X154755319Y-112049404D01*
X154826748Y-112087500D01*
X154860081Y-112125595D01*
X154888653Y-112201785D01*
X154879129Y-112277976D01*
X154826748Y-112392261D01*
X154312462Y-112849404D01*
X154807700Y-112849404D01*
X155402938Y-112049404D02*
X155479129Y-112049404D01*
X155550558Y-112087500D01*
X155583891Y-112125595D01*
X155612462Y-112201785D01*
X155631510Y-112354166D01*
X155607700Y-112544642D01*
X155550558Y-112697023D01*
X155502938Y-112773214D01*
X155460081Y-112811309D01*
X155379129Y-112849404D01*
X155302938Y-112849404D01*
X155231510Y-112811309D01*
X155198177Y-112773214D01*
X155169605Y-112697023D01*
X155150558Y-112544642D01*
X155174367Y-112354166D01*
X155231510Y-112201785D01*
X155279129Y-112125595D01*
X155321986Y-112087500D01*
X155402938Y-112049404D01*
X156164843Y-112049404D02*
X156241034Y-112049404D01*
X156312462Y-112087500D01*
X156345796Y-112125595D01*
X156374367Y-112201785D01*
X156393415Y-112354166D01*
X156369605Y-112544642D01*
X156312462Y-112697023D01*
X156264843Y-112773214D01*
X156221986Y-112811309D01*
X156141034Y-112849404D01*
X156064843Y-112849404D01*
X155993415Y-112811309D01*
X155960081Y-112773214D01*
X155931510Y-112697023D01*
X155912462Y-112544642D01*
X155936272Y-112354166D01*
X155993415Y-112201785D01*
X156041034Y-112125595D01*
X156083891Y-112087500D01*
X156164843Y-112049404D01*
X156698177Y-112049404D02*
X157193415Y-112049404D01*
X156888653Y-112354166D01*
X157002938Y-112354166D01*
X157074367Y-112392261D01*
X157107700Y-112430357D01*
X157136272Y-112506547D01*
X157112462Y-112697023D01*
X157064843Y-112773214D01*
X157021986Y-112811309D01*
X156941034Y-112849404D01*
X156712462Y-112849404D01*
X156641034Y-112811309D01*
X156607700Y-112773214D01*
X157426748Y-112620833D02*
X157807700Y-112620833D01*
X157321986Y-112849404D02*
X157688653Y-112049404D01*
X157855319Y-112849404D01*
X158731510Y-112849404D02*
X158831510Y-112049404D01*
X159136272Y-112049404D01*
X159207700Y-112087500D01*
X159241034Y-112125595D01*
X159269605Y-112201785D01*
X159255319Y-112316071D01*
X159207700Y-112392261D01*
X159164843Y-112430357D01*
X159083891Y-112468452D01*
X158779129Y-112468452D01*
X159998177Y-112773214D02*
X159955319Y-112811309D01*
X159836272Y-112849404D01*
X159760081Y-112849404D01*
X159650558Y-112811309D01*
X159583891Y-112735119D01*
X159555319Y-112658928D01*
X159536272Y-112506547D01*
X159550558Y-112392261D01*
X159607700Y-112239880D01*
X159655319Y-112163690D01*
X159741034Y-112087500D01*
X159860081Y-112049404D01*
X159936272Y-112049404D01*
X160045796Y-112087500D01*
X160079129Y-112125595D01*
X160650558Y-112430357D02*
X160760081Y-112468452D01*
X160793415Y-112506547D01*
X160821986Y-112582738D01*
X160807700Y-112697023D01*
X160760081Y-112773214D01*
X160717224Y-112811309D01*
X160636272Y-112849404D01*
X160331510Y-112849404D01*
X160431510Y-112049404D01*
X160698177Y-112049404D01*
X160769605Y-112087500D01*
X160802938Y-112125595D01*
X160831510Y-112201785D01*
X160821986Y-112277976D01*
X160774367Y-112354166D01*
X160731510Y-112392261D01*
X160650558Y-112430357D01*
X160383891Y-112430357D01*
X161731510Y-112316071D02*
X161855319Y-112849404D01*
X162112462Y-112316071D01*
X162769605Y-112849404D02*
X162312462Y-112849404D01*
X162541034Y-112849404D02*
X162641034Y-112049404D01*
X162550558Y-112163690D01*
X162464843Y-112239880D01*
X162383891Y-112277976D01*
X163121986Y-112773214D02*
X163155319Y-112811309D01*
X163112462Y-112849404D01*
X163079129Y-112811309D01*
X163121986Y-112773214D01*
X163112462Y-112849404D01*
X163912462Y-112849404D02*
X163455319Y-112849404D01*
X163683891Y-112849404D02*
X163783891Y-112049404D01*
X163693415Y-112163690D01*
X163607700Y-112239880D01*
X163526748Y-112277976D01*
X154112462Y-113793452D02*
X154079129Y-113755357D01*
X154007700Y-113717261D01*
X153931510Y-113717261D01*
X153850558Y-113755357D01*
X153807700Y-113793452D01*
X153760081Y-113869642D01*
X153750558Y-113945833D01*
X153779129Y-114022023D01*
X153812462Y-114060119D01*
X153883891Y-114098214D01*
X153960081Y-114098214D01*
X154041034Y-114060119D01*
X154083891Y-114022023D01*
X154121986Y-113717261D02*
X154083891Y-114022023D01*
X154117224Y-114060119D01*
X154155319Y-114060119D01*
X154236272Y-114022023D01*
X154283891Y-113945833D01*
X154307700Y-113755357D01*
X154245796Y-113641071D01*
X154141034Y-113564880D01*
X153993415Y-113526785D01*
X153836272Y-113564880D01*
X153712462Y-113641071D01*
X153621986Y-113755357D01*
X153564843Y-113907738D01*
X153583891Y-114060119D01*
X153645796Y-114174404D01*
X153750558Y-114250595D01*
X153898177Y-114288690D01*
X154055319Y-114250595D01*
X154179129Y-114174404D01*
X154598177Y-114174404D02*
X154664843Y-113641071D01*
X154655319Y-113717261D02*
X154698177Y-113679166D01*
X154779129Y-113641071D01*
X154893415Y-113641071D01*
X154964843Y-113679166D01*
X154993415Y-113755357D01*
X154941034Y-114174404D01*
X154993415Y-113755357D02*
X155041034Y-113679166D01*
X155121986Y-113641071D01*
X155236272Y-113641071D01*
X155307700Y-113679166D01*
X155336272Y-113755357D01*
X155283891Y-114174404D01*
X156007700Y-114174404D02*
X156060081Y-113755357D01*
X156031510Y-113679166D01*
X155960081Y-113641071D01*
X155807700Y-113641071D01*
X155726748Y-113679166D01*
X156012462Y-114136309D02*
X155931510Y-114174404D01*
X155741034Y-114174404D01*
X155669605Y-114136309D01*
X155641034Y-114060119D01*
X155650558Y-113983928D01*
X155698177Y-113907738D01*
X155779129Y-113869642D01*
X155969605Y-113869642D01*
X156050558Y-113831547D01*
X156341034Y-113641071D02*
X156645796Y-113641071D01*
X156488653Y-113374404D02*
X156402938Y-114060119D01*
X156431510Y-114136309D01*
X156502938Y-114174404D01*
X156579129Y-114174404D01*
X156798177Y-113641071D02*
X157102938Y-113641071D01*
X156945796Y-113374404D02*
X156860081Y-114060119D01*
X156888653Y-114136309D01*
X156960081Y-114174404D01*
X157036272Y-114174404D01*
X157341034Y-113869642D02*
X157950558Y-113869642D01*
X158636272Y-114174404D02*
X158688653Y-113755357D01*
X158660081Y-113679166D01*
X158588653Y-113641071D01*
X158436272Y-113641071D01*
X158355319Y-113679166D01*
X158641034Y-114136309D02*
X158560081Y-114174404D01*
X158369605Y-114174404D01*
X158298177Y-114136309D01*
X158269605Y-114060119D01*
X158279129Y-113983928D01*
X158326748Y-113907738D01*
X158407700Y-113869642D01*
X158598177Y-113869642D01*
X158679129Y-113831547D01*
X159131510Y-114174404D02*
X159060081Y-114136309D01*
X159031510Y-114060119D01*
X159117224Y-113374404D01*
X159745796Y-114136309D02*
X159664843Y-114174404D01*
X159512462Y-114174404D01*
X159441034Y-114136309D01*
X159412462Y-114060119D01*
X159450558Y-113755357D01*
X159498177Y-113679166D01*
X159579129Y-113641071D01*
X159731510Y-113641071D01*
X159802938Y-113679166D01*
X159831510Y-113755357D01*
X159821986Y-113831547D01*
X159431510Y-113907738D01*
X160188653Y-113641071D02*
X160121986Y-114174404D01*
X160179129Y-113717261D02*
X160221986Y-113679166D01*
X160302938Y-113641071D01*
X160417224Y-113641071D01*
X160488653Y-113679166D01*
X160517224Y-113755357D01*
X160464843Y-114174404D01*
X161193415Y-114136309D02*
X161112462Y-114174404D01*
X160960081Y-114174404D01*
X160888653Y-114136309D01*
X160855319Y-114098214D01*
X160826748Y-114022023D01*
X160855319Y-113793452D01*
X160902938Y-113717261D01*
X160945796Y-113679166D01*
X161026748Y-113641071D01*
X161179129Y-113641071D01*
X161250558Y-113679166D01*
X161874367Y-114174404D02*
X161926748Y-113755357D01*
X161898177Y-113679166D01*
X161826748Y-113641071D01*
X161674367Y-113641071D01*
X161593415Y-113679166D01*
X161879129Y-114136309D02*
X161798177Y-114174404D01*
X161607700Y-114174404D01*
X161536272Y-114136309D01*
X161507700Y-114060119D01*
X161517224Y-113983928D01*
X161564843Y-113907738D01*
X161645796Y-113869642D01*
X161836272Y-113869642D01*
X161917224Y-113831547D01*
X162255319Y-114174404D02*
X162321986Y-113641071D01*
X162302938Y-113793452D02*
X162350558Y-113717261D01*
X162393415Y-113679166D01*
X162474367Y-113641071D01*
X162550558Y-113641071D01*
D10*
X141924476Y-121948000D02*
X141848285Y-121909904D01*
X141734000Y-121909904D01*
X141619714Y-121948000D01*
X141543523Y-122024190D01*
X141505428Y-122100380D01*
X141467333Y-122252761D01*
X141467333Y-122367047D01*
X141505428Y-122519428D01*
X141543523Y-122595619D01*
X141619714Y-122671809D01*
X141734000Y-122709904D01*
X141810190Y-122709904D01*
X141924476Y-122671809D01*
X141962571Y-122633714D01*
X141962571Y-122367047D01*
X141810190Y-122367047D01*
X142305428Y-122709904D02*
X142305428Y-121909904D01*
X142762571Y-122709904D01*
X142762571Y-121909904D01*
X143143523Y-122709904D02*
X143143523Y-121909904D01*
X143334000Y-121909904D01*
X143448285Y-121948000D01*
X143524476Y-122024190D01*
X143562571Y-122100380D01*
X143600666Y-122252761D01*
X143600666Y-122367047D01*
X143562571Y-122519428D01*
X143524476Y-122595619D01*
X143448285Y-122671809D01*
X143334000Y-122709904D01*
X143143523Y-122709904D01*
X146039333Y-121909904D02*
X146306000Y-122709904D01*
X146572666Y-121909904D01*
X147296476Y-122633714D02*
X147258380Y-122671809D01*
X147144095Y-122709904D01*
X147067904Y-122709904D01*
X146953619Y-122671809D01*
X146877428Y-122595619D01*
X146839333Y-122519428D01*
X146801238Y-122367047D01*
X146801238Y-122252761D01*
X146839333Y-122100380D01*
X146877428Y-122024190D01*
X146953619Y-121948000D01*
X147067904Y-121909904D01*
X147144095Y-121909904D01*
X147258380Y-121948000D01*
X147296476Y-121986095D01*
X148096476Y-122633714D02*
X148058380Y-122671809D01*
X147944095Y-122709904D01*
X147867904Y-122709904D01*
X147753619Y-122671809D01*
X147677428Y-122595619D01*
X147639333Y-122519428D01*
X147601238Y-122367047D01*
X147601238Y-122252761D01*
X147639333Y-122100380D01*
X147677428Y-122024190D01*
X147753619Y-121948000D01*
X147867904Y-121909904D01*
X147944095Y-121909904D01*
X148058380Y-121948000D01*
X148096476Y-121986095D01*
X163139904Y-103410666D02*
X163939904Y-103144000D01*
X163139904Y-102877333D01*
X163863714Y-102153523D02*
X163901809Y-102191619D01*
X163939904Y-102305904D01*
X163939904Y-102382095D01*
X163901809Y-102496380D01*
X163825619Y-102572571D01*
X163749428Y-102610666D01*
X163597047Y-102648761D01*
X163482761Y-102648761D01*
X163330380Y-102610666D01*
X163254190Y-102572571D01*
X163178000Y-102496380D01*
X163139904Y-102382095D01*
X163139904Y-102305904D01*
X163178000Y-102191619D01*
X163216095Y-102153523D01*
X163863714Y-101353523D02*
X163901809Y-101391619D01*
X163939904Y-101505904D01*
X163939904Y-101582095D01*
X163901809Y-101696380D01*
X163825619Y-101772571D01*
X163749428Y-101810666D01*
X163597047Y-101848761D01*
X163482761Y-101848761D01*
X163330380Y-101810666D01*
X163254190Y-101772571D01*
X163178000Y-101696380D01*
X163139904Y-101582095D01*
X163139904Y-101505904D01*
X163178000Y-101391619D01*
X163216095Y-101353523D01*
X163139904Y-97721142D02*
X163139904Y-97568761D01*
X163178000Y-97492571D01*
X163254190Y-97416380D01*
X163406571Y-97378285D01*
X163673238Y-97378285D01*
X163825619Y-97416380D01*
X163901809Y-97492571D01*
X163939904Y-97568761D01*
X163939904Y-97721142D01*
X163901809Y-97797333D01*
X163825619Y-97873523D01*
X163673238Y-97911619D01*
X163406571Y-97911619D01*
X163254190Y-97873523D01*
X163178000Y-97797333D01*
X163139904Y-97721142D01*
X163139904Y-97111619D02*
X163139904Y-96616380D01*
X163444666Y-96883047D01*
X163444666Y-96768761D01*
X163482761Y-96692571D01*
X163520857Y-96654476D01*
X163597047Y-96616380D01*
X163787523Y-96616380D01*
X163863714Y-96654476D01*
X163901809Y-96692571D01*
X163939904Y-96768761D01*
X163939904Y-96997333D01*
X163901809Y-97073523D01*
X163863714Y-97111619D01*
X163139904Y-92641142D02*
X163139904Y-92488761D01*
X163178000Y-92412571D01*
X163254190Y-92336380D01*
X163406571Y-92298285D01*
X163673238Y-92298285D01*
X163825619Y-92336380D01*
X163901809Y-92412571D01*
X163939904Y-92488761D01*
X163939904Y-92641142D01*
X163901809Y-92717333D01*
X163825619Y-92793523D01*
X163673238Y-92831619D01*
X163406571Y-92831619D01*
X163254190Y-92793523D01*
X163178000Y-92717333D01*
X163139904Y-92641142D01*
X163939904Y-91536380D02*
X163939904Y-91993523D01*
X163939904Y-91764952D02*
X163139904Y-91764952D01*
X163254190Y-91841142D01*
X163330380Y-91917333D01*
X163368476Y-91993523D01*
X163139904Y-95181142D02*
X163139904Y-95028761D01*
X163178000Y-94952571D01*
X163254190Y-94876380D01*
X163406571Y-94838285D01*
X163673238Y-94838285D01*
X163825619Y-94876380D01*
X163901809Y-94952571D01*
X163939904Y-95028761D01*
X163939904Y-95181142D01*
X163901809Y-95257333D01*
X163825619Y-95333523D01*
X163673238Y-95371619D01*
X163406571Y-95371619D01*
X163254190Y-95333523D01*
X163178000Y-95257333D01*
X163139904Y-95181142D01*
X163216095Y-94533523D02*
X163178000Y-94495428D01*
X163139904Y-94419238D01*
X163139904Y-94228761D01*
X163178000Y-94152571D01*
X163216095Y-94114476D01*
X163292285Y-94076380D01*
X163368476Y-94076380D01*
X163482761Y-94114476D01*
X163939904Y-94571619D01*
X163939904Y-94076380D01*
X163139904Y-100261142D02*
X163139904Y-100108761D01*
X163178000Y-100032571D01*
X163254190Y-99956380D01*
X163406571Y-99918285D01*
X163673238Y-99918285D01*
X163825619Y-99956380D01*
X163901809Y-100032571D01*
X163939904Y-100108761D01*
X163939904Y-100261142D01*
X163901809Y-100337333D01*
X163825619Y-100413523D01*
X163673238Y-100451619D01*
X163406571Y-100451619D01*
X163254190Y-100413523D01*
X163178000Y-100337333D01*
X163139904Y-100261142D01*
X163406571Y-99232571D02*
X163939904Y-99232571D01*
X163101809Y-99423047D02*
X163673238Y-99613523D01*
X163673238Y-99118285D01*
X154455904Y-104309142D02*
X154455904Y-104156761D01*
X154494000Y-104080571D01*
X154570190Y-104004380D01*
X154722571Y-103966285D01*
X154989238Y-103966285D01*
X155141619Y-104004380D01*
X155217809Y-104080571D01*
X155255904Y-104156761D01*
X155255904Y-104309142D01*
X155217809Y-104385333D01*
X155141619Y-104461523D01*
X154989238Y-104499619D01*
X154722571Y-104499619D01*
X154570190Y-104461523D01*
X154494000Y-104385333D01*
X154455904Y-104309142D01*
X154455904Y-103699619D02*
X154455904Y-103166285D01*
X155255904Y-103509142D01*
X154455904Y-101769142D02*
X154455904Y-101616761D01*
X154494000Y-101540571D01*
X154570190Y-101464380D01*
X154722571Y-101426285D01*
X154989238Y-101426285D01*
X155141619Y-101464380D01*
X155217809Y-101540571D01*
X155255904Y-101616761D01*
X155255904Y-101769142D01*
X155217809Y-101845333D01*
X155141619Y-101921523D01*
X154989238Y-101959619D01*
X154722571Y-101959619D01*
X154570190Y-101921523D01*
X154494000Y-101845333D01*
X154455904Y-101769142D01*
X154455904Y-100740571D02*
X154455904Y-100892952D01*
X154494000Y-100969142D01*
X154532095Y-101007238D01*
X154646380Y-101083428D01*
X154798761Y-101121523D01*
X155103523Y-101121523D01*
X155179714Y-101083428D01*
X155217809Y-101045333D01*
X155255904Y-100969142D01*
X155255904Y-100816761D01*
X155217809Y-100740571D01*
X155179714Y-100702476D01*
X155103523Y-100664380D01*
X154913047Y-100664380D01*
X154836857Y-100702476D01*
X154798761Y-100740571D01*
X154760666Y-100816761D01*
X154760666Y-100969142D01*
X154798761Y-101045333D01*
X154836857Y-101083428D01*
X154913047Y-101121523D01*
X154455904Y-99229142D02*
X154455904Y-99076761D01*
X154494000Y-99000571D01*
X154570190Y-98924380D01*
X154722571Y-98886285D01*
X154989238Y-98886285D01*
X155141619Y-98924380D01*
X155217809Y-99000571D01*
X155255904Y-99076761D01*
X155255904Y-99229142D01*
X155217809Y-99305333D01*
X155141619Y-99381523D01*
X154989238Y-99419619D01*
X154722571Y-99419619D01*
X154570190Y-99381523D01*
X154494000Y-99305333D01*
X154455904Y-99229142D01*
X154455904Y-98162476D02*
X154455904Y-98543428D01*
X154836857Y-98581523D01*
X154798761Y-98543428D01*
X154760666Y-98467238D01*
X154760666Y-98276761D01*
X154798761Y-98200571D01*
X154836857Y-98162476D01*
X154913047Y-98124380D01*
X155103523Y-98124380D01*
X155179714Y-98162476D01*
X155217809Y-98200571D01*
X155255904Y-98276761D01*
X155255904Y-98467238D01*
X155217809Y-98543428D01*
X155179714Y-98581523D01*
X132521904Y-107383333D02*
X132521904Y-107764285D01*
X131721904Y-107764285D01*
X131721904Y-107192857D02*
X131721904Y-106659523D01*
X132521904Y-107002380D01*
X132521904Y-104633333D02*
X132521904Y-105014285D01*
X131721904Y-105014285D01*
X131721904Y-104023809D02*
X131721904Y-104176190D01*
X131760000Y-104252380D01*
X131798095Y-104290476D01*
X131912380Y-104366666D01*
X132064761Y-104404761D01*
X132369523Y-104404761D01*
X132445714Y-104366666D01*
X132483809Y-104328571D01*
X132521904Y-104252380D01*
X132521904Y-104100000D01*
X132483809Y-104023809D01*
X132445714Y-103985714D01*
X132369523Y-103947619D01*
X132179047Y-103947619D01*
X132102857Y-103985714D01*
X132064761Y-104023809D01*
X132026666Y-104100000D01*
X132026666Y-104252380D01*
X132064761Y-104328571D01*
X132102857Y-104366666D01*
X132179047Y-104404761D01*
X132521904Y-102133333D02*
X132521904Y-102514285D01*
X131721904Y-102514285D01*
X131721904Y-101485714D02*
X131721904Y-101866666D01*
X132102857Y-101904761D01*
X132064761Y-101866666D01*
X132026666Y-101790476D01*
X132026666Y-101600000D01*
X132064761Y-101523809D01*
X132102857Y-101485714D01*
X132179047Y-101447619D01*
X132369523Y-101447619D01*
X132445714Y-101485714D01*
X132483809Y-101523809D01*
X132521904Y-101600000D01*
X132521904Y-101790476D01*
X132483809Y-101866666D01*
X132445714Y-101904761D01*
X132521904Y-99633333D02*
X132521904Y-100014285D01*
X131721904Y-100014285D01*
X131988571Y-99023809D02*
X132521904Y-99023809D01*
X131683809Y-99214285D02*
X132255238Y-99404761D01*
X132255238Y-98909523D01*
X132521904Y-97133333D02*
X132521904Y-97514285D01*
X131721904Y-97514285D01*
X131721904Y-96942857D02*
X131721904Y-96447619D01*
X132026666Y-96714285D01*
X132026666Y-96600000D01*
X132064761Y-96523809D01*
X132102857Y-96485714D01*
X132179047Y-96447619D01*
X132369523Y-96447619D01*
X132445714Y-96485714D01*
X132483809Y-96523809D01*
X132521904Y-96600000D01*
X132521904Y-96828571D01*
X132483809Y-96904761D01*
X132445714Y-96942857D01*
X132521904Y-94633333D02*
X132521904Y-95014285D01*
X131721904Y-95014285D01*
X131798095Y-94404761D02*
X131760000Y-94366666D01*
X131721904Y-94290476D01*
X131721904Y-94100000D01*
X131760000Y-94023809D01*
X131798095Y-93985714D01*
X131874285Y-93947619D01*
X131950476Y-93947619D01*
X132064761Y-93985714D01*
X132521904Y-94442857D01*
X132521904Y-93947619D01*
X132521904Y-92133333D02*
X132521904Y-92514285D01*
X131721904Y-92514285D01*
X132521904Y-91447619D02*
X132521904Y-91904761D01*
X132521904Y-91676190D02*
X131721904Y-91676190D01*
X131836190Y-91752380D01*
X131912380Y-91828571D01*
X131950476Y-91904761D01*
D12*
G04 #@! TO.C,J1*
X133370000Y-108480000D02*
X136030000Y-108480000D01*
X133370000Y-93180000D02*
X133370000Y-108480000D01*
X136030000Y-93180000D02*
X136030000Y-108480000D01*
X133370000Y-93180000D02*
X136030000Y-93180000D01*
X133370000Y-91910000D02*
X133370000Y-90580000D01*
X133370000Y-90580000D02*
X134700000Y-90580000D01*
G04 #@! TO.C,U1*
X145920000Y-87155000D02*
G75*
G02X143920000Y-87155000I-1000000J0D01*
G01*
X143920000Y-87155000D02*
X142270000Y-87155000D01*
X142270000Y-87155000D02*
X142270000Y-107595000D01*
X142270000Y-107595000D02*
X147570000Y-107595000D01*
X147570000Y-107595000D02*
X147570000Y-87155000D01*
X147570000Y-87155000D02*
X145920000Y-87155000D01*
G04 #@! TO.C,C2*
X147360000Y-110560000D02*
X142520000Y-110560000D01*
X147360000Y-108320000D02*
X142520000Y-108320000D01*
X147360000Y-110560000D02*
X147360000Y-108320000D01*
X142520000Y-110560000D02*
X142520000Y-108320000D01*
G04 #@! TO.C,J4*
X151024000Y-87155000D02*
X152354000Y-87155000D01*
X151024000Y-88485000D02*
X151024000Y-87155000D01*
X151024000Y-89755000D02*
X153684000Y-89755000D01*
X153684000Y-89755000D02*
X153684000Y-105055000D01*
X151024000Y-89755000D02*
X151024000Y-105055000D01*
X151024000Y-105055000D02*
X153684000Y-105055000D01*
G04 #@! TO.C,J2*
X146733129Y-115474725D02*
G75*
G02X147360000Y-115330000I626871J-1285275D01*
G01*
X146074176Y-117387362D02*
G75*
G02X146074000Y-116133000I1285824J627362D01*
G01*
X147987362Y-118045824D02*
G75*
G02X146733000Y-118046000I-627362J1285824D01*
G01*
X148646611Y-116133254D02*
G75*
G02X148646000Y-117388000I-1286611J-626746D01*
G01*
X147335720Y-115329060D02*
G75*
G02X147988000Y-115474000I24280J-1430940D01*
G01*
X143710000Y-116760000D02*
G75*
G03X143710000Y-116760000I-1430000J0D01*
G01*
X149960000Y-113210000D02*
X139680000Y-113210000D01*
X149960000Y-114310000D02*
X139680000Y-114310000D01*
X149960000Y-119310000D02*
X139680000Y-119310000D01*
X149960000Y-121220000D02*
X139680000Y-121220000D01*
X149960000Y-112650000D02*
X139680000Y-112650000D01*
X149960000Y-121220000D02*
X149960000Y-112650000D01*
X139680000Y-121220000D02*
X139680000Y-112650000D01*
X148610000Y-121160000D02*
X146110000Y-121160000D01*
X148610000Y-120160000D02*
X146110000Y-120160000D01*
X148610000Y-121160000D02*
X148610000Y-120160000D01*
X146110000Y-121160000D02*
X146110000Y-120160000D01*
X141195000Y-117670000D02*
X141255000Y-117611000D01*
X143150000Y-115715000D02*
X143190000Y-115675000D01*
X141369000Y-117845000D02*
X141409000Y-117805000D01*
X143304000Y-115910000D02*
X143364000Y-115850000D01*
X143530000Y-121160000D02*
X141030000Y-121160000D01*
X143530000Y-120160000D02*
X141030000Y-120160000D01*
X143530000Y-121160000D02*
X143530000Y-120160000D01*
X141030000Y-121160000D02*
X141030000Y-120160000D01*
X150200000Y-113150000D02*
X150200000Y-112410000D01*
X150200000Y-112410000D02*
X149700000Y-112410000D01*
D13*
G04 #@! TO.C,REF\002A\002A*
G36*
X158555814Y-106368931D02*
X158639635Y-106813555D01*
X158948920Y-106941053D01*
X159258206Y-107068551D01*
X159629246Y-106816246D01*
X159733157Y-106745996D01*
X159827087Y-106683272D01*
X159906652Y-106630938D01*
X159967470Y-106591857D01*
X160005157Y-106568893D01*
X160015421Y-106563942D01*
X160033910Y-106576676D01*
X160073420Y-106611882D01*
X160129522Y-106665062D01*
X160197787Y-106731718D01*
X160273786Y-106807354D01*
X160353092Y-106887472D01*
X160431275Y-106967574D01*
X160503907Y-107043164D01*
X160566559Y-107109745D01*
X160614803Y-107162818D01*
X160644210Y-107197887D01*
X160651241Y-107209623D01*
X160641123Y-107231260D01*
X160612759Y-107278662D01*
X160569129Y-107347193D01*
X160513218Y-107432215D01*
X160448006Y-107529093D01*
X160410219Y-107584350D01*
X160341343Y-107685248D01*
X160280140Y-107776299D01*
X160229578Y-107852970D01*
X160192628Y-107910728D01*
X160172258Y-107945043D01*
X160169197Y-107952254D01*
X160176136Y-107972748D01*
X160195051Y-108020513D01*
X160223087Y-108088832D01*
X160257391Y-108170989D01*
X160295109Y-108260270D01*
X160333387Y-108349958D01*
X160369370Y-108433338D01*
X160400206Y-108503694D01*
X160423039Y-108554310D01*
X160435017Y-108578471D01*
X160435724Y-108579422D01*
X160454531Y-108584036D01*
X160504618Y-108594328D01*
X160580793Y-108609287D01*
X160677865Y-108627901D01*
X160790643Y-108649159D01*
X160856442Y-108661418D01*
X160976950Y-108684362D01*
X161085797Y-108706195D01*
X161177476Y-108725722D01*
X161246481Y-108741748D01*
X161287304Y-108753079D01*
X161295511Y-108756674D01*
X161303548Y-108781006D01*
X161310033Y-108835959D01*
X161314970Y-108915108D01*
X161318364Y-109012026D01*
X161320218Y-109120287D01*
X161320538Y-109233465D01*
X161319327Y-109345135D01*
X161316590Y-109448868D01*
X161312331Y-109538241D01*
X161306555Y-109606826D01*
X161299267Y-109648197D01*
X161294895Y-109656810D01*
X161268764Y-109667133D01*
X161213393Y-109681892D01*
X161136107Y-109699352D01*
X161044230Y-109717780D01*
X161012158Y-109723741D01*
X160857524Y-109752066D01*
X160735375Y-109774876D01*
X160641673Y-109793080D01*
X160572384Y-109807583D01*
X160523471Y-109819292D01*
X160490897Y-109829115D01*
X160470628Y-109837956D01*
X160458626Y-109846724D01*
X160456947Y-109848457D01*
X160440184Y-109876371D01*
X160414614Y-109930695D01*
X160382788Y-110004777D01*
X160347260Y-110091965D01*
X160310583Y-110185608D01*
X160275311Y-110279052D01*
X160243996Y-110365647D01*
X160219193Y-110438740D01*
X160203454Y-110491678D01*
X160199332Y-110517811D01*
X160199676Y-110518726D01*
X160213641Y-110540086D01*
X160245322Y-110587084D01*
X160291391Y-110654827D01*
X160348518Y-110738423D01*
X160413373Y-110832982D01*
X160431843Y-110859854D01*
X160497699Y-110957275D01*
X160555650Y-111046163D01*
X160602538Y-111121412D01*
X160635207Y-111177920D01*
X160650500Y-111210581D01*
X160651241Y-111214593D01*
X160638392Y-111235684D01*
X160602888Y-111277464D01*
X160549293Y-111335445D01*
X160482171Y-111405135D01*
X160406087Y-111482045D01*
X160325604Y-111561683D01*
X160245287Y-111639561D01*
X160169699Y-111711186D01*
X160103405Y-111772070D01*
X160050969Y-111817721D01*
X160016955Y-111843650D01*
X160007545Y-111847883D01*
X159985643Y-111837912D01*
X159940800Y-111811020D01*
X159880321Y-111771736D01*
X159833789Y-111740117D01*
X159749475Y-111682098D01*
X159649626Y-111613784D01*
X159549473Y-111545579D01*
X159495627Y-111509075D01*
X159313371Y-111385800D01*
X159160381Y-111468520D01*
X159090682Y-111504759D01*
X159031414Y-111532926D01*
X158991311Y-111548991D01*
X158981103Y-111551226D01*
X158968829Y-111534722D01*
X158944613Y-111488082D01*
X158910263Y-111415609D01*
X158867588Y-111321606D01*
X158818394Y-111210374D01*
X158764490Y-111086215D01*
X158707684Y-110953432D01*
X158649782Y-110816327D01*
X158592593Y-110679202D01*
X158537924Y-110546358D01*
X158487584Y-110422098D01*
X158443380Y-110310725D01*
X158407119Y-110216539D01*
X158380609Y-110143844D01*
X158365658Y-110096941D01*
X158363254Y-110080833D01*
X158382311Y-110060286D01*
X158424036Y-110026933D01*
X158479706Y-109987702D01*
X158484378Y-109984599D01*
X158628264Y-109869423D01*
X158744283Y-109735053D01*
X158831430Y-109585784D01*
X158888699Y-109425913D01*
X158915086Y-109259737D01*
X158909585Y-109091552D01*
X158871190Y-108925655D01*
X158798895Y-108766342D01*
X158777626Y-108731487D01*
X158666996Y-108590737D01*
X158536302Y-108477714D01*
X158390064Y-108393003D01*
X158232808Y-108337194D01*
X158069057Y-108310874D01*
X157903333Y-108314630D01*
X157740162Y-108349050D01*
X157584065Y-108414723D01*
X157439567Y-108512235D01*
X157394869Y-108551813D01*
X157281112Y-108675703D01*
X157198218Y-108806124D01*
X157141356Y-108952315D01*
X157109687Y-109097088D01*
X157101869Y-109259860D01*
X157127938Y-109423440D01*
X157185245Y-109582298D01*
X157271144Y-109730906D01*
X157382986Y-109863735D01*
X157518123Y-109975256D01*
X157535883Y-109987011D01*
X157592150Y-110025508D01*
X157634923Y-110058863D01*
X157655372Y-110080160D01*
X157655669Y-110080833D01*
X157651279Y-110103871D01*
X157633876Y-110156157D01*
X157605268Y-110233390D01*
X157567265Y-110331268D01*
X157521674Y-110445491D01*
X157470303Y-110571758D01*
X157414962Y-110705767D01*
X157357458Y-110843218D01*
X157299601Y-110979808D01*
X157243198Y-111111237D01*
X157190058Y-111233205D01*
X157141990Y-111341409D01*
X157100801Y-111431549D01*
X157068301Y-111499323D01*
X157046297Y-111540430D01*
X157037436Y-111551226D01*
X157010360Y-111542819D01*
X156959697Y-111520272D01*
X156894183Y-111487613D01*
X156858159Y-111468520D01*
X156705168Y-111385800D01*
X156522912Y-111509075D01*
X156429875Y-111572228D01*
X156328015Y-111641727D01*
X156232562Y-111707165D01*
X156184750Y-111740117D01*
X156117505Y-111785273D01*
X156060564Y-111821057D01*
X156021354Y-111842938D01*
X156008619Y-111847563D01*
X155990083Y-111835085D01*
X155949059Y-111800252D01*
X155889525Y-111746678D01*
X155815458Y-111677983D01*
X155730835Y-111597781D01*
X155677315Y-111546286D01*
X155583681Y-111454286D01*
X155502759Y-111371999D01*
X155437823Y-111302945D01*
X155392142Y-111250644D01*
X155368989Y-111218616D01*
X155366768Y-111212116D01*
X155377076Y-111187394D01*
X155405561Y-111137405D01*
X155449063Y-111067212D01*
X155504423Y-110981875D01*
X155568480Y-110886456D01*
X155586697Y-110859854D01*
X155653073Y-110763167D01*
X155712622Y-110676117D01*
X155762016Y-110603595D01*
X155797925Y-110550493D01*
X155817019Y-110521703D01*
X155818864Y-110518726D01*
X155816105Y-110495782D01*
X155801462Y-110445336D01*
X155777487Y-110374041D01*
X155746734Y-110288547D01*
X155711756Y-110195507D01*
X155675107Y-110101574D01*
X155639339Y-110013399D01*
X155607006Y-109937634D01*
X155580662Y-109880931D01*
X155562858Y-109849943D01*
X155561593Y-109848457D01*
X155550706Y-109839601D01*
X155532318Y-109830843D01*
X155502394Y-109821277D01*
X155456897Y-109809996D01*
X155391791Y-109796093D01*
X155303039Y-109778663D01*
X155186607Y-109756798D01*
X155038458Y-109729591D01*
X155006382Y-109723741D01*
X154911314Y-109705374D01*
X154828435Y-109687405D01*
X154765070Y-109671569D01*
X154728542Y-109659600D01*
X154723644Y-109656810D01*
X154715573Y-109632072D01*
X154709013Y-109576790D01*
X154703967Y-109497389D01*
X154700441Y-109400296D01*
X154698439Y-109291938D01*
X154697964Y-109178740D01*
X154699023Y-109067128D01*
X154701618Y-108963529D01*
X154705754Y-108874368D01*
X154711437Y-108806072D01*
X154718669Y-108765066D01*
X154723029Y-108756674D01*
X154747302Y-108748208D01*
X154802574Y-108734435D01*
X154883338Y-108716550D01*
X154984088Y-108695748D01*
X155099317Y-108673223D01*
X155162098Y-108661418D01*
X155281213Y-108639151D01*
X155387435Y-108618979D01*
X155475573Y-108601915D01*
X155540434Y-108588969D01*
X155576826Y-108581155D01*
X155582816Y-108579422D01*
X155592939Y-108559890D01*
X155614338Y-108512843D01*
X155644161Y-108445003D01*
X155679555Y-108363091D01*
X155717668Y-108273828D01*
X155755647Y-108183935D01*
X155790640Y-108100135D01*
X155819794Y-108029147D01*
X155840257Y-107977694D01*
X155849177Y-107952497D01*
X155849343Y-107951396D01*
X155839231Y-107931519D01*
X155810883Y-107885777D01*
X155767277Y-107818717D01*
X155711394Y-107734884D01*
X155646213Y-107638826D01*
X155608321Y-107583650D01*
X155539275Y-107482481D01*
X155477950Y-107390630D01*
X155427337Y-107312744D01*
X155390429Y-107253469D01*
X155370218Y-107217451D01*
X155367299Y-107209377D01*
X155379847Y-107190584D01*
X155414537Y-107150457D01*
X155466937Y-107093493D01*
X155532616Y-107024185D01*
X155607144Y-106947031D01*
X155686087Y-106866525D01*
X155765017Y-106787163D01*
X155839500Y-106713440D01*
X155905106Y-106649852D01*
X155957404Y-106600894D01*
X155991961Y-106571061D01*
X156003522Y-106563942D01*
X156022346Y-106573953D01*
X156067369Y-106602078D01*
X156134213Y-106645454D01*
X156218501Y-106701218D01*
X156315856Y-106766506D01*
X156389293Y-106816246D01*
X156760333Y-107068551D01*
X157378905Y-106813555D01*
X157462725Y-106368931D01*
X157546546Y-105924307D01*
X158471994Y-105924307D01*
X158555814Y-106368931D01*
X158555814Y-106368931D01*
G37*
X158555814Y-106368931D02*
X158639635Y-106813555D01*
X158948920Y-106941053D01*
X159258206Y-107068551D01*
X159629246Y-106816246D01*
X159733157Y-106745996D01*
X159827087Y-106683272D01*
X159906652Y-106630938D01*
X159967470Y-106591857D01*
X160005157Y-106568893D01*
X160015421Y-106563942D01*
X160033910Y-106576676D01*
X160073420Y-106611882D01*
X160129522Y-106665062D01*
X160197787Y-106731718D01*
X160273786Y-106807354D01*
X160353092Y-106887472D01*
X160431275Y-106967574D01*
X160503907Y-107043164D01*
X160566559Y-107109745D01*
X160614803Y-107162818D01*
X160644210Y-107197887D01*
X160651241Y-107209623D01*
X160641123Y-107231260D01*
X160612759Y-107278662D01*
X160569129Y-107347193D01*
X160513218Y-107432215D01*
X160448006Y-107529093D01*
X160410219Y-107584350D01*
X160341343Y-107685248D01*
X160280140Y-107776299D01*
X160229578Y-107852970D01*
X160192628Y-107910728D01*
X160172258Y-107945043D01*
X160169197Y-107952254D01*
X160176136Y-107972748D01*
X160195051Y-108020513D01*
X160223087Y-108088832D01*
X160257391Y-108170989D01*
X160295109Y-108260270D01*
X160333387Y-108349958D01*
X160369370Y-108433338D01*
X160400206Y-108503694D01*
X160423039Y-108554310D01*
X160435017Y-108578471D01*
X160435724Y-108579422D01*
X160454531Y-108584036D01*
X160504618Y-108594328D01*
X160580793Y-108609287D01*
X160677865Y-108627901D01*
X160790643Y-108649159D01*
X160856442Y-108661418D01*
X160976950Y-108684362D01*
X161085797Y-108706195D01*
X161177476Y-108725722D01*
X161246481Y-108741748D01*
X161287304Y-108753079D01*
X161295511Y-108756674D01*
X161303548Y-108781006D01*
X161310033Y-108835959D01*
X161314970Y-108915108D01*
X161318364Y-109012026D01*
X161320218Y-109120287D01*
X161320538Y-109233465D01*
X161319327Y-109345135D01*
X161316590Y-109448868D01*
X161312331Y-109538241D01*
X161306555Y-109606826D01*
X161299267Y-109648197D01*
X161294895Y-109656810D01*
X161268764Y-109667133D01*
X161213393Y-109681892D01*
X161136107Y-109699352D01*
X161044230Y-109717780D01*
X161012158Y-109723741D01*
X160857524Y-109752066D01*
X160735375Y-109774876D01*
X160641673Y-109793080D01*
X160572384Y-109807583D01*
X160523471Y-109819292D01*
X160490897Y-109829115D01*
X160470628Y-109837956D01*
X160458626Y-109846724D01*
X160456947Y-109848457D01*
X160440184Y-109876371D01*
X160414614Y-109930695D01*
X160382788Y-110004777D01*
X160347260Y-110091965D01*
X160310583Y-110185608D01*
X160275311Y-110279052D01*
X160243996Y-110365647D01*
X160219193Y-110438740D01*
X160203454Y-110491678D01*
X160199332Y-110517811D01*
X160199676Y-110518726D01*
X160213641Y-110540086D01*
X160245322Y-110587084D01*
X160291391Y-110654827D01*
X160348518Y-110738423D01*
X160413373Y-110832982D01*
X160431843Y-110859854D01*
X160497699Y-110957275D01*
X160555650Y-111046163D01*
X160602538Y-111121412D01*
X160635207Y-111177920D01*
X160650500Y-111210581D01*
X160651241Y-111214593D01*
X160638392Y-111235684D01*
X160602888Y-111277464D01*
X160549293Y-111335445D01*
X160482171Y-111405135D01*
X160406087Y-111482045D01*
X160325604Y-111561683D01*
X160245287Y-111639561D01*
X160169699Y-111711186D01*
X160103405Y-111772070D01*
X160050969Y-111817721D01*
X160016955Y-111843650D01*
X160007545Y-111847883D01*
X159985643Y-111837912D01*
X159940800Y-111811020D01*
X159880321Y-111771736D01*
X159833789Y-111740117D01*
X159749475Y-111682098D01*
X159649626Y-111613784D01*
X159549473Y-111545579D01*
X159495627Y-111509075D01*
X159313371Y-111385800D01*
X159160381Y-111468520D01*
X159090682Y-111504759D01*
X159031414Y-111532926D01*
X158991311Y-111548991D01*
X158981103Y-111551226D01*
X158968829Y-111534722D01*
X158944613Y-111488082D01*
X158910263Y-111415609D01*
X158867588Y-111321606D01*
X158818394Y-111210374D01*
X158764490Y-111086215D01*
X158707684Y-110953432D01*
X158649782Y-110816327D01*
X158592593Y-110679202D01*
X158537924Y-110546358D01*
X158487584Y-110422098D01*
X158443380Y-110310725D01*
X158407119Y-110216539D01*
X158380609Y-110143844D01*
X158365658Y-110096941D01*
X158363254Y-110080833D01*
X158382311Y-110060286D01*
X158424036Y-110026933D01*
X158479706Y-109987702D01*
X158484378Y-109984599D01*
X158628264Y-109869423D01*
X158744283Y-109735053D01*
X158831430Y-109585784D01*
X158888699Y-109425913D01*
X158915086Y-109259737D01*
X158909585Y-109091552D01*
X158871190Y-108925655D01*
X158798895Y-108766342D01*
X158777626Y-108731487D01*
X158666996Y-108590737D01*
X158536302Y-108477714D01*
X158390064Y-108393003D01*
X158232808Y-108337194D01*
X158069057Y-108310874D01*
X157903333Y-108314630D01*
X157740162Y-108349050D01*
X157584065Y-108414723D01*
X157439567Y-108512235D01*
X157394869Y-108551813D01*
X157281112Y-108675703D01*
X157198218Y-108806124D01*
X157141356Y-108952315D01*
X157109687Y-109097088D01*
X157101869Y-109259860D01*
X157127938Y-109423440D01*
X157185245Y-109582298D01*
X157271144Y-109730906D01*
X157382986Y-109863735D01*
X157518123Y-109975256D01*
X157535883Y-109987011D01*
X157592150Y-110025508D01*
X157634923Y-110058863D01*
X157655372Y-110080160D01*
X157655669Y-110080833D01*
X157651279Y-110103871D01*
X157633876Y-110156157D01*
X157605268Y-110233390D01*
X157567265Y-110331268D01*
X157521674Y-110445491D01*
X157470303Y-110571758D01*
X157414962Y-110705767D01*
X157357458Y-110843218D01*
X157299601Y-110979808D01*
X157243198Y-111111237D01*
X157190058Y-111233205D01*
X157141990Y-111341409D01*
X157100801Y-111431549D01*
X157068301Y-111499323D01*
X157046297Y-111540430D01*
X157037436Y-111551226D01*
X157010360Y-111542819D01*
X156959697Y-111520272D01*
X156894183Y-111487613D01*
X156858159Y-111468520D01*
X156705168Y-111385800D01*
X156522912Y-111509075D01*
X156429875Y-111572228D01*
X156328015Y-111641727D01*
X156232562Y-111707165D01*
X156184750Y-111740117D01*
X156117505Y-111785273D01*
X156060564Y-111821057D01*
X156021354Y-111842938D01*
X156008619Y-111847563D01*
X155990083Y-111835085D01*
X155949059Y-111800252D01*
X155889525Y-111746678D01*
X155815458Y-111677983D01*
X155730835Y-111597781D01*
X155677315Y-111546286D01*
X155583681Y-111454286D01*
X155502759Y-111371999D01*
X155437823Y-111302945D01*
X155392142Y-111250644D01*
X155368989Y-111218616D01*
X155366768Y-111212116D01*
X155377076Y-111187394D01*
X155405561Y-111137405D01*
X155449063Y-111067212D01*
X155504423Y-110981875D01*
X155568480Y-110886456D01*
X155586697Y-110859854D01*
X155653073Y-110763167D01*
X155712622Y-110676117D01*
X155762016Y-110603595D01*
X155797925Y-110550493D01*
X155817019Y-110521703D01*
X155818864Y-110518726D01*
X155816105Y-110495782D01*
X155801462Y-110445336D01*
X155777487Y-110374041D01*
X155746734Y-110288547D01*
X155711756Y-110195507D01*
X155675107Y-110101574D01*
X155639339Y-110013399D01*
X155607006Y-109937634D01*
X155580662Y-109880931D01*
X155562858Y-109849943D01*
X155561593Y-109848457D01*
X155550706Y-109839601D01*
X155532318Y-109830843D01*
X155502394Y-109821277D01*
X155456897Y-109809996D01*
X155391791Y-109796093D01*
X155303039Y-109778663D01*
X155186607Y-109756798D01*
X155038458Y-109729591D01*
X155006382Y-109723741D01*
X154911314Y-109705374D01*
X154828435Y-109687405D01*
X154765070Y-109671569D01*
X154728542Y-109659600D01*
X154723644Y-109656810D01*
X154715573Y-109632072D01*
X154709013Y-109576790D01*
X154703967Y-109497389D01*
X154700441Y-109400296D01*
X154698439Y-109291938D01*
X154697964Y-109178740D01*
X154699023Y-109067128D01*
X154701618Y-108963529D01*
X154705754Y-108874368D01*
X154711437Y-108806072D01*
X154718669Y-108765066D01*
X154723029Y-108756674D01*
X154747302Y-108748208D01*
X154802574Y-108734435D01*
X154883338Y-108716550D01*
X154984088Y-108695748D01*
X155099317Y-108673223D01*
X155162098Y-108661418D01*
X155281213Y-108639151D01*
X155387435Y-108618979D01*
X155475573Y-108601915D01*
X155540434Y-108588969D01*
X155576826Y-108581155D01*
X155582816Y-108579422D01*
X155592939Y-108559890D01*
X155614338Y-108512843D01*
X155644161Y-108445003D01*
X155679555Y-108363091D01*
X155717668Y-108273828D01*
X155755647Y-108183935D01*
X155790640Y-108100135D01*
X155819794Y-108029147D01*
X155840257Y-107977694D01*
X155849177Y-107952497D01*
X155849343Y-107951396D01*
X155839231Y-107931519D01*
X155810883Y-107885777D01*
X155767277Y-107818717D01*
X155711394Y-107734884D01*
X155646213Y-107638826D01*
X155608321Y-107583650D01*
X155539275Y-107482481D01*
X155477950Y-107390630D01*
X155427337Y-107312744D01*
X155390429Y-107253469D01*
X155370218Y-107217451D01*
X155367299Y-107209377D01*
X155379847Y-107190584D01*
X155414537Y-107150457D01*
X155466937Y-107093493D01*
X155532616Y-107024185D01*
X155607144Y-106947031D01*
X155686087Y-106866525D01*
X155765017Y-106787163D01*
X155839500Y-106713440D01*
X155905106Y-106649852D01*
X155957404Y-106600894D01*
X155991961Y-106571061D01*
X156003522Y-106563942D01*
X156022346Y-106573953D01*
X156067369Y-106602078D01*
X156134213Y-106645454D01*
X156218501Y-106701218D01*
X156315856Y-106766506D01*
X156389293Y-106816246D01*
X156760333Y-107068551D01*
X157378905Y-106813555D01*
X157462725Y-106368931D01*
X157546546Y-105924307D01*
X158471994Y-105924307D01*
X158555814Y-106368931D01*
D12*
G04 #@! TO.C,J3*
X162460000Y-89690000D02*
X156490000Y-89690000D01*
X156490000Y-89690000D02*
X156490000Y-104810000D01*
X156490000Y-104810000D02*
X162460000Y-104810000D01*
X162460000Y-104810000D02*
X162460000Y-89690000D01*
X162450000Y-93000000D02*
X161700000Y-93000000D01*
X161700000Y-93000000D02*
X161700000Y-101500000D01*
X161700000Y-101500000D02*
X162450000Y-101500000D01*
X162450000Y-101500000D02*
X162450000Y-93000000D01*
X162450000Y-89700000D02*
X161700000Y-89700000D01*
X161700000Y-89700000D02*
X161700000Y-91500000D01*
X161700000Y-91500000D02*
X162450000Y-91500000D01*
X162450000Y-91500000D02*
X162450000Y-89700000D01*
X162450000Y-103000000D02*
X161700000Y-103000000D01*
X161700000Y-103000000D02*
X161700000Y-104800000D01*
X161700000Y-104800000D02*
X162450000Y-104800000D01*
X162450000Y-104800000D02*
X162450000Y-103000000D01*
X160200000Y-89700000D02*
X160200000Y-90450000D01*
X160200000Y-90450000D02*
X157250000Y-90450000D01*
X157250000Y-90450000D02*
X157250000Y-97250000D01*
X160200000Y-104800000D02*
X160200000Y-104050000D01*
X160200000Y-104050000D02*
X157250000Y-104050000D01*
X157250000Y-104050000D02*
X157250000Y-97250000D01*
X162750000Y-90650000D02*
X162750000Y-89400000D01*
X162750000Y-89400000D02*
X161500000Y-89400000D01*
G04 #@! TO.C,C1*
X156870000Y-118050000D02*
G75*
G03X156870000Y-118050000I-2620000J0D01*
G01*
X154250000Y-119090000D02*
X154250000Y-120630000D01*
X154250000Y-115470000D02*
X154250000Y-117010000D01*
X154290000Y-119090000D02*
X154290000Y-120630000D01*
X154290000Y-115470000D02*
X154290000Y-117010000D01*
X154330000Y-115471000D02*
X154330000Y-117010000D01*
X154330000Y-119090000D02*
X154330000Y-120629000D01*
X154370000Y-115472000D02*
X154370000Y-117010000D01*
X154370000Y-119090000D02*
X154370000Y-120628000D01*
X154410000Y-115474000D02*
X154410000Y-117010000D01*
X154410000Y-119090000D02*
X154410000Y-120626000D01*
X154450000Y-115477000D02*
X154450000Y-117010000D01*
X154450000Y-119090000D02*
X154450000Y-120623000D01*
X154490000Y-115481000D02*
X154490000Y-117010000D01*
X154490000Y-119090000D02*
X154490000Y-120619000D01*
X154530000Y-115485000D02*
X154530000Y-117010000D01*
X154530000Y-119090000D02*
X154530000Y-120615000D01*
X154570000Y-115489000D02*
X154570000Y-117010000D01*
X154570000Y-119090000D02*
X154570000Y-120611000D01*
X154610000Y-115494000D02*
X154610000Y-117010000D01*
X154610000Y-119090000D02*
X154610000Y-120606000D01*
X154650000Y-115500000D02*
X154650000Y-117010000D01*
X154650000Y-119090000D02*
X154650000Y-120600000D01*
X154690000Y-115507000D02*
X154690000Y-117010000D01*
X154690000Y-119090000D02*
X154690000Y-120593000D01*
X154730000Y-115514000D02*
X154730000Y-117010000D01*
X154730000Y-119090000D02*
X154730000Y-120586000D01*
X154770000Y-115522000D02*
X154770000Y-117010000D01*
X154770000Y-119090000D02*
X154770000Y-120578000D01*
X154810000Y-115530000D02*
X154810000Y-117010000D01*
X154810000Y-119090000D02*
X154810000Y-120570000D01*
X154850000Y-115539000D02*
X154850000Y-117010000D01*
X154850000Y-119090000D02*
X154850000Y-120561000D01*
X154890000Y-115549000D02*
X154890000Y-117010000D01*
X154890000Y-119090000D02*
X154890000Y-120551000D01*
X154930000Y-115559000D02*
X154930000Y-117010000D01*
X154930000Y-119090000D02*
X154930000Y-120541000D01*
X154971000Y-115570000D02*
X154971000Y-117010000D01*
X154971000Y-119090000D02*
X154971000Y-120530000D01*
X155011000Y-115582000D02*
X155011000Y-117010000D01*
X155011000Y-119090000D02*
X155011000Y-120518000D01*
X155051000Y-115595000D02*
X155051000Y-117010000D01*
X155051000Y-119090000D02*
X155051000Y-120505000D01*
X155091000Y-115608000D02*
X155091000Y-117010000D01*
X155091000Y-119090000D02*
X155091000Y-120492000D01*
X155131000Y-115622000D02*
X155131000Y-117010000D01*
X155131000Y-119090000D02*
X155131000Y-120478000D01*
X155171000Y-115636000D02*
X155171000Y-117010000D01*
X155171000Y-119090000D02*
X155171000Y-120464000D01*
X155211000Y-115652000D02*
X155211000Y-117010000D01*
X155211000Y-119090000D02*
X155211000Y-120448000D01*
X155251000Y-115668000D02*
X155251000Y-117010000D01*
X155251000Y-119090000D02*
X155251000Y-120432000D01*
X155291000Y-115685000D02*
X155291000Y-117010000D01*
X155291000Y-119090000D02*
X155291000Y-120415000D01*
X155331000Y-115702000D02*
X155331000Y-117010000D01*
X155331000Y-119090000D02*
X155331000Y-120398000D01*
X155371000Y-115721000D02*
X155371000Y-117010000D01*
X155371000Y-119090000D02*
X155371000Y-120379000D01*
X155411000Y-115740000D02*
X155411000Y-117010000D01*
X155411000Y-119090000D02*
X155411000Y-120360000D01*
X155451000Y-115760000D02*
X155451000Y-117010000D01*
X155451000Y-119090000D02*
X155451000Y-120340000D01*
X155491000Y-115782000D02*
X155491000Y-117010000D01*
X155491000Y-119090000D02*
X155491000Y-120318000D01*
X155531000Y-115803000D02*
X155531000Y-117010000D01*
X155531000Y-119090000D02*
X155531000Y-120297000D01*
X155571000Y-115826000D02*
X155571000Y-117010000D01*
X155571000Y-119090000D02*
X155571000Y-120274000D01*
X155611000Y-115850000D02*
X155611000Y-117010000D01*
X155611000Y-119090000D02*
X155611000Y-120250000D01*
X155651000Y-115875000D02*
X155651000Y-117010000D01*
X155651000Y-119090000D02*
X155651000Y-120225000D01*
X155691000Y-115901000D02*
X155691000Y-117010000D01*
X155691000Y-119090000D02*
X155691000Y-120199000D01*
X155731000Y-115928000D02*
X155731000Y-117010000D01*
X155731000Y-119090000D02*
X155731000Y-120172000D01*
X155771000Y-115955000D02*
X155771000Y-117010000D01*
X155771000Y-119090000D02*
X155771000Y-120145000D01*
X155811000Y-115985000D02*
X155811000Y-117010000D01*
X155811000Y-119090000D02*
X155811000Y-120115000D01*
X155851000Y-116015000D02*
X155851000Y-117010000D01*
X155851000Y-119090000D02*
X155851000Y-120085000D01*
X155891000Y-116046000D02*
X155891000Y-117010000D01*
X155891000Y-119090000D02*
X155891000Y-120054000D01*
X155931000Y-116079000D02*
X155931000Y-117010000D01*
X155931000Y-119090000D02*
X155931000Y-120021000D01*
X155971000Y-116113000D02*
X155971000Y-117010000D01*
X155971000Y-119090000D02*
X155971000Y-119987000D01*
X156011000Y-116149000D02*
X156011000Y-117010000D01*
X156011000Y-119090000D02*
X156011000Y-119951000D01*
X156051000Y-116186000D02*
X156051000Y-117010000D01*
X156051000Y-119090000D02*
X156051000Y-119914000D01*
X156091000Y-116224000D02*
X156091000Y-117010000D01*
X156091000Y-119090000D02*
X156091000Y-119876000D01*
X156131000Y-116265000D02*
X156131000Y-117010000D01*
X156131000Y-119090000D02*
X156131000Y-119835000D01*
X156171000Y-116307000D02*
X156171000Y-117010000D01*
X156171000Y-119090000D02*
X156171000Y-119793000D01*
X156211000Y-116351000D02*
X156211000Y-117010000D01*
X156211000Y-119090000D02*
X156211000Y-119749000D01*
X156251000Y-116397000D02*
X156251000Y-117010000D01*
X156251000Y-119090000D02*
X156251000Y-119703000D01*
X156291000Y-116445000D02*
X156291000Y-119655000D01*
X156331000Y-116496000D02*
X156331000Y-119604000D01*
X156371000Y-116550000D02*
X156371000Y-119550000D01*
X156411000Y-116607000D02*
X156411000Y-119493000D01*
X156451000Y-116667000D02*
X156451000Y-119433000D01*
X156491000Y-116731000D02*
X156491000Y-119369000D01*
X156531000Y-116799000D02*
X156531000Y-119301000D01*
X156571000Y-116872000D02*
X156571000Y-119228000D01*
X156611000Y-116952000D02*
X156611000Y-119148000D01*
X156651000Y-117039000D02*
X156651000Y-119061000D01*
X156691000Y-117135000D02*
X156691000Y-118965000D01*
X156731000Y-117245000D02*
X156731000Y-118855000D01*
X156771000Y-117373000D02*
X156771000Y-118727000D01*
X156811000Y-117532000D02*
X156811000Y-118568000D01*
X156851000Y-117766000D02*
X156851000Y-118334000D01*
X151445225Y-116575000D02*
X151945225Y-116575000D01*
X151695225Y-116325000D02*
X151695225Y-116825000D01*
G04 #@! TO.C,J1*
D14*
X134416666Y-88952380D02*
X134416666Y-89666666D01*
X134369047Y-89809523D01*
X134273809Y-89904761D01*
X134130952Y-89952380D01*
X134035714Y-89952380D01*
X135416666Y-89952380D02*
X134845238Y-89952380D01*
X135130952Y-89952380D02*
X135130952Y-88952380D01*
X135035714Y-89095238D01*
X134940476Y-89190476D01*
X134845238Y-89238095D01*
G04 #@! TO.C,U1*
D10*
X144238095Y-85702380D02*
X144238095Y-86511904D01*
X144285714Y-86607142D01*
X144333333Y-86654761D01*
X144428571Y-86702380D01*
X144619047Y-86702380D01*
X144714285Y-86654761D01*
X144761904Y-86607142D01*
X144809523Y-86511904D01*
X144809523Y-85702380D01*
X145809523Y-86702380D02*
X145238095Y-86702380D01*
X145523809Y-86702380D02*
X145523809Y-85702380D01*
X145428571Y-85845238D01*
X145333333Y-85940476D01*
X145238095Y-85988095D01*
G04 #@! TO.C,C2*
X141063333Y-109797142D02*
X141015714Y-109844761D01*
X140872857Y-109892380D01*
X140777619Y-109892380D01*
X140634761Y-109844761D01*
X140539523Y-109749523D01*
X140491904Y-109654285D01*
X140444285Y-109463809D01*
X140444285Y-109320952D01*
X140491904Y-109130476D01*
X140539523Y-109035238D01*
X140634761Y-108940000D01*
X140777619Y-108892380D01*
X140872857Y-108892380D01*
X141015714Y-108940000D01*
X141063333Y-108987619D01*
X141444285Y-108987619D02*
X141491904Y-108940000D01*
X141587142Y-108892380D01*
X141825238Y-108892380D01*
X141920476Y-108940000D01*
X141968095Y-108987619D01*
X142015714Y-109082857D01*
X142015714Y-109178095D01*
X141968095Y-109320952D01*
X141396666Y-109892380D01*
X142015714Y-109892380D01*
G04 #@! TO.C,J4*
X152020666Y-85452380D02*
X152020666Y-86166666D01*
X151973047Y-86309523D01*
X151877809Y-86404761D01*
X151734952Y-86452380D01*
X151639714Y-86452380D01*
X152925428Y-85785714D02*
X152925428Y-86452380D01*
X152687333Y-85404761D02*
X152449238Y-86119047D01*
X153068285Y-86119047D01*
G04 #@! TO.C,J2*
X137966666Y-116152380D02*
X137966666Y-116866666D01*
X137919047Y-117009523D01*
X137823809Y-117104761D01*
X137680952Y-117152380D01*
X137585714Y-117152380D01*
X138395238Y-116247619D02*
X138442857Y-116200000D01*
X138538095Y-116152380D01*
X138776190Y-116152380D01*
X138871428Y-116200000D01*
X138919047Y-116247619D01*
X138966666Y-116342857D01*
X138966666Y-116438095D01*
X138919047Y-116580952D01*
X138347619Y-117152380D01*
X138966666Y-117152380D01*
G04 #@! TO.C,J3*
D14*
X159666666Y-87952380D02*
X159666666Y-88666666D01*
X159619047Y-88809523D01*
X159523809Y-88904761D01*
X159380952Y-88952380D01*
X159285714Y-88952380D01*
X160047619Y-87952380D02*
X160666666Y-87952380D01*
X160333333Y-88333333D01*
X160476190Y-88333333D01*
X160571428Y-88380952D01*
X160619047Y-88428571D01*
X160666666Y-88523809D01*
X160666666Y-88761904D01*
X160619047Y-88857142D01*
X160571428Y-88904761D01*
X160476190Y-88952380D01*
X160190476Y-88952380D01*
X160095238Y-88904761D01*
X160047619Y-88857142D01*
G04 #@! TO.C,C1*
D10*
X153983333Y-121957142D02*
X153935714Y-122004761D01*
X153792857Y-122052380D01*
X153697619Y-122052380D01*
X153554761Y-122004761D01*
X153459523Y-121909523D01*
X153411904Y-121814285D01*
X153364285Y-121623809D01*
X153364285Y-121480952D01*
X153411904Y-121290476D01*
X153459523Y-121195238D01*
X153554761Y-121100000D01*
X153697619Y-121052380D01*
X153792857Y-121052380D01*
X153935714Y-121100000D01*
X153983333Y-121147619D01*
X154935714Y-122052380D02*
X154364285Y-122052380D01*
X154650000Y-122052380D02*
X154650000Y-121052380D01*
X154554761Y-121195238D01*
X154459523Y-121290476D01*
X154364285Y-121338095D01*
G04 #@! TD*
M02*
