M48
;DRILL file {KiCad 5.0.1} date Sun 27 Jan 2019 14:18:05 -03
;FORMAT={-:-/ absolute / inch / decimal}
FMAT,2
INCH,TZ
T1C0.0276
T2C0.0315
T3C0.0374
T4C0.0394
T5C0.0433
%
G90
G05
M72
T1
X5.6571Y-4.3087
X5.7555Y-4.3087
T2
X5.5555Y-3.4837
X5.5555Y-3.5837
X5.5555Y-3.6837
X5.5555Y-3.7837
X5.5555Y-3.8837
X5.5555Y-3.9837
X5.5555Y-4.0837
X5.5555Y-4.1837
X5.8555Y-3.4837
X5.8555Y-3.5837
X5.8555Y-3.6837
X5.8555Y-3.7837
X5.8555Y-3.8837
X5.8555Y-3.9837
X5.8555Y-4.0837
X5.8555Y-4.1837
X6.0335Y-4.6476
X6.1122Y-4.6476
T3
X6.2992Y-3.6319
X6.2992Y-3.7303
X6.2992Y-3.8287
X6.2992Y-3.9272
X6.2992Y-4.0256
T4
X5.3031Y-3.6185
X5.3031Y-3.7185
X5.3031Y-3.8185
X5.3031Y-3.9185
X5.3031Y-4.0185
X5.3031Y-4.1185
X5.3031Y-4.2185
X5.9982Y-3.4837
X5.9982Y-3.5837
X5.9982Y-3.6837
X5.9982Y-3.7837
X5.9982Y-3.8837
X5.9982Y-3.9837
X5.9982Y-4.0837
T5
X5.6016Y-4.5969
X5.8016Y-4.5969
T0
M30
