G04 #@! TF.GenerationSoftware,KiCad,Pcbnew,5.0.1*
G04 #@! TF.CreationDate,2019-01-27T14:18:01-03:00*
G04 #@! TF.ProjectId,StepperDriver,537465707065724472697665722E6B69,1.0*
G04 #@! TF.SameCoordinates,Original*
G04 #@! TF.FileFunction,Soldermask,Bot*
G04 #@! TF.FilePolarity,Negative*
%FSLAX46Y46*%
G04 Gerber Fmt 4.6, Leading zero omitted, Abs format (unit mm)*
G04 Created by KiCad (PCBNEW 5.0.1) date Sun 27 Jan 2019 14:18:01 -03*
%MOMM*%
%LPD*%
G01*
G04 APERTURE LIST*
%ADD10C,0.100000*%
G04 APERTURE END LIST*
D10*
G36*
X161837641Y-118133816D02*
X161981579Y-118162447D01*
X162282042Y-118286903D01*
X162298991Y-118298228D01*
X162552454Y-118467587D01*
X162782413Y-118697546D01*
X162963098Y-118967960D01*
X163087553Y-119268422D01*
X163151000Y-119587389D01*
X163151000Y-119912611D01*
X163087553Y-120231578D01*
X162963098Y-120532040D01*
X162782413Y-120802454D01*
X162552454Y-121032413D01*
X162552451Y-121032415D01*
X162282042Y-121213097D01*
X161981579Y-121337553D01*
X161875256Y-121358702D01*
X161662611Y-121401000D01*
X161337389Y-121401000D01*
X161124744Y-121358702D01*
X161018421Y-121337553D01*
X160717958Y-121213097D01*
X160447549Y-121032415D01*
X160447546Y-121032413D01*
X160217587Y-120802454D01*
X160036902Y-120532040D01*
X159912447Y-120231578D01*
X159849000Y-119912611D01*
X159849000Y-119587389D01*
X159912447Y-119268422D01*
X160036902Y-118967960D01*
X160217587Y-118697546D01*
X160447546Y-118467587D01*
X160701009Y-118298228D01*
X160717958Y-118286903D01*
X161018421Y-118162447D01*
X161162359Y-118133816D01*
X161337389Y-118099000D01*
X161662611Y-118099000D01*
X161837641Y-118133816D01*
X161837641Y-118133816D01*
G37*
G36*
X134587641Y-118133816D02*
X134731579Y-118162447D01*
X135032042Y-118286903D01*
X135048991Y-118298228D01*
X135302454Y-118467587D01*
X135532413Y-118697546D01*
X135713098Y-118967960D01*
X135837553Y-119268422D01*
X135901000Y-119587389D01*
X135901000Y-119912611D01*
X135837553Y-120231578D01*
X135713098Y-120532040D01*
X135532413Y-120802454D01*
X135302454Y-121032413D01*
X135302451Y-121032415D01*
X135032042Y-121213097D01*
X134731579Y-121337553D01*
X134625256Y-121358702D01*
X134412611Y-121401000D01*
X134087389Y-121401000D01*
X133874744Y-121358702D01*
X133768421Y-121337553D01*
X133467958Y-121213097D01*
X133197549Y-121032415D01*
X133197546Y-121032413D01*
X132967587Y-120802454D01*
X132786902Y-120532040D01*
X132662447Y-120231578D01*
X132599000Y-119912611D01*
X132599000Y-119587389D01*
X132662447Y-119268422D01*
X132786902Y-118967960D01*
X132967587Y-118697546D01*
X133197546Y-118467587D01*
X133451009Y-118298228D01*
X133467958Y-118286903D01*
X133768421Y-118162447D01*
X133912359Y-118133816D01*
X134087389Y-118099000D01*
X134412611Y-118099000D01*
X134587641Y-118133816D01*
X134587641Y-118133816D01*
G37*
G36*
X154101000Y-118901000D02*
X152399000Y-118901000D01*
X152399000Y-117199000D01*
X154101000Y-117199000D01*
X154101000Y-118901000D01*
X154101000Y-118901000D01*
G37*
G36*
X155498228Y-117231703D02*
X155653100Y-117295853D01*
X155792481Y-117388985D01*
X155911015Y-117507519D01*
X156004147Y-117646900D01*
X156068297Y-117801772D01*
X156101000Y-117966184D01*
X156101000Y-118133816D01*
X156068297Y-118298228D01*
X156004147Y-118453100D01*
X155911015Y-118592481D01*
X155792481Y-118711015D01*
X155653100Y-118804147D01*
X155498228Y-118868297D01*
X155333816Y-118901000D01*
X155166184Y-118901000D01*
X155001772Y-118868297D01*
X154846900Y-118804147D01*
X154707519Y-118711015D01*
X154588985Y-118592481D01*
X154495853Y-118453100D01*
X154431703Y-118298228D01*
X154399000Y-118133816D01*
X154399000Y-117966184D01*
X154431703Y-117801772D01*
X154495853Y-117646900D01*
X154588985Y-117507519D01*
X154707519Y-117388985D01*
X154846900Y-117295853D01*
X155001772Y-117231703D01*
X155166184Y-117199000D01*
X155333816Y-117199000D01*
X155498228Y-117231703D01*
X155498228Y-117231703D01*
G37*
G36*
X148461000Y-117861000D02*
X146259000Y-117861000D01*
X146259000Y-115659000D01*
X148461000Y-115659000D01*
X148461000Y-117861000D01*
X148461000Y-117861000D01*
G37*
G36*
X142494795Y-115680156D02*
X142601150Y-115701311D01*
X142671990Y-115730654D01*
X142801516Y-115784305D01*
X142981850Y-115904801D01*
X143135199Y-116058150D01*
X143255695Y-116238484D01*
X143338689Y-116438851D01*
X143381000Y-116651560D01*
X143381000Y-116868440D01*
X143338689Y-117081149D01*
X143255695Y-117281516D01*
X143255693Y-117281519D01*
X143183886Y-117388986D01*
X143135199Y-117461850D01*
X142981850Y-117615199D01*
X142981847Y-117615201D01*
X142981846Y-117615202D01*
X142801519Y-117735693D01*
X142801516Y-117735695D01*
X142671990Y-117789346D01*
X142601150Y-117818689D01*
X142494794Y-117839845D01*
X142388440Y-117861000D01*
X142171560Y-117861000D01*
X142065206Y-117839845D01*
X141958850Y-117818689D01*
X141888010Y-117789346D01*
X141758484Y-117735695D01*
X141758481Y-117735693D01*
X141578154Y-117615202D01*
X141578153Y-117615201D01*
X141578150Y-117615199D01*
X141424801Y-117461850D01*
X141376115Y-117388986D01*
X141304307Y-117281519D01*
X141304305Y-117281516D01*
X141221311Y-117081149D01*
X141179000Y-116868440D01*
X141179000Y-116651560D01*
X141221311Y-116438851D01*
X141304305Y-116238484D01*
X141424801Y-116058150D01*
X141578150Y-115904801D01*
X141758484Y-115784305D01*
X141888010Y-115730654D01*
X141958850Y-115701311D01*
X142065205Y-115680156D01*
X142171560Y-115659000D01*
X142388440Y-115659000D01*
X142494795Y-115680156D01*
X142494795Y-115680156D01*
G37*
G36*
X143822004Y-108700544D02*
X143909059Y-108717860D01*
X144045732Y-108774472D01*
X144045733Y-108774473D01*
X144168738Y-108856662D01*
X144273338Y-108961262D01*
X144273340Y-108961265D01*
X144355528Y-109084268D01*
X144412140Y-109220941D01*
X144441000Y-109366033D01*
X144441000Y-109513967D01*
X144412140Y-109659059D01*
X144355528Y-109795732D01*
X144355527Y-109795733D01*
X144273338Y-109918738D01*
X144168738Y-110023338D01*
X144168735Y-110023340D01*
X144045732Y-110105528D01*
X143909059Y-110162140D01*
X143822004Y-110179456D01*
X143763969Y-110191000D01*
X143616031Y-110191000D01*
X143557996Y-110179456D01*
X143470941Y-110162140D01*
X143334268Y-110105528D01*
X143211265Y-110023340D01*
X143211262Y-110023338D01*
X143106662Y-109918738D01*
X143024473Y-109795733D01*
X143024472Y-109795732D01*
X142967860Y-109659059D01*
X142939000Y-109513967D01*
X142939000Y-109366033D01*
X142967860Y-109220941D01*
X143024472Y-109084268D01*
X143106660Y-108961265D01*
X143106662Y-108961262D01*
X143211262Y-108856662D01*
X143334267Y-108774473D01*
X143334268Y-108774472D01*
X143470941Y-108717860D01*
X143557996Y-108700544D01*
X143616031Y-108689000D01*
X143763969Y-108689000D01*
X143822004Y-108700544D01*
X143822004Y-108700544D01*
G37*
G36*
X146322004Y-108700544D02*
X146409059Y-108717860D01*
X146545732Y-108774472D01*
X146545733Y-108774473D01*
X146668738Y-108856662D01*
X146773338Y-108961262D01*
X146773340Y-108961265D01*
X146855528Y-109084268D01*
X146912140Y-109220941D01*
X146941000Y-109366033D01*
X146941000Y-109513967D01*
X146912140Y-109659059D01*
X146855528Y-109795732D01*
X146855527Y-109795733D01*
X146773338Y-109918738D01*
X146668738Y-110023338D01*
X146668735Y-110023340D01*
X146545732Y-110105528D01*
X146409059Y-110162140D01*
X146322004Y-110179456D01*
X146263969Y-110191000D01*
X146116031Y-110191000D01*
X146057996Y-110179456D01*
X145970941Y-110162140D01*
X145834268Y-110105528D01*
X145711265Y-110023340D01*
X145711262Y-110023338D01*
X145606662Y-109918738D01*
X145524473Y-109795733D01*
X145524472Y-109795732D01*
X145467860Y-109659059D01*
X145439000Y-109513967D01*
X145439000Y-109366033D01*
X145467860Y-109220941D01*
X145524472Y-109084268D01*
X145606660Y-108961265D01*
X145606662Y-108961262D01*
X145711262Y-108856662D01*
X145834267Y-108774473D01*
X145834268Y-108774472D01*
X145970941Y-108717860D01*
X146057996Y-108700544D01*
X146116031Y-108689000D01*
X146263969Y-108689000D01*
X146322004Y-108700544D01*
X146322004Y-108700544D01*
G37*
G36*
X134810443Y-106255519D02*
X134876627Y-106262037D01*
X134989853Y-106296384D01*
X135046467Y-106313557D01*
X135185087Y-106387652D01*
X135202991Y-106397222D01*
X135238729Y-106426552D01*
X135340186Y-106509814D01*
X135423448Y-106611271D01*
X135452778Y-106647009D01*
X135452779Y-106647011D01*
X135536443Y-106803533D01*
X135536443Y-106803534D01*
X135587963Y-106973373D01*
X135605359Y-107150000D01*
X135587963Y-107326627D01*
X135553616Y-107439853D01*
X135536443Y-107496467D01*
X135462348Y-107635087D01*
X135452778Y-107652991D01*
X135423448Y-107688729D01*
X135340186Y-107790186D01*
X135238729Y-107873448D01*
X135202991Y-107902778D01*
X135202989Y-107902779D01*
X135046467Y-107986443D01*
X134989853Y-108003616D01*
X134876627Y-108037963D01*
X134810443Y-108044481D01*
X134744260Y-108051000D01*
X134655740Y-108051000D01*
X134589557Y-108044481D01*
X134523373Y-108037963D01*
X134410147Y-108003616D01*
X134353533Y-107986443D01*
X134197011Y-107902779D01*
X134197009Y-107902778D01*
X134161271Y-107873448D01*
X134059814Y-107790186D01*
X133976552Y-107688729D01*
X133947222Y-107652991D01*
X133937652Y-107635087D01*
X133863557Y-107496467D01*
X133846384Y-107439853D01*
X133812037Y-107326627D01*
X133794641Y-107150000D01*
X133812037Y-106973373D01*
X133863557Y-106803534D01*
X133863557Y-106803533D01*
X133947221Y-106647011D01*
X133947222Y-106647009D01*
X133976552Y-106611271D01*
X134059814Y-106509814D01*
X134161271Y-106426552D01*
X134197009Y-106397222D01*
X134214913Y-106387652D01*
X134353533Y-106313557D01*
X134410147Y-106296384D01*
X134523373Y-106262037D01*
X134589557Y-106255519D01*
X134655740Y-106249000D01*
X134744260Y-106249000D01*
X134810443Y-106255519D01*
X134810443Y-106255519D01*
G37*
G36*
X148896821Y-105426313D02*
X148896824Y-105426314D01*
X148896825Y-105426314D01*
X149057239Y-105474975D01*
X149057241Y-105474976D01*
X149057244Y-105474977D01*
X149205078Y-105553995D01*
X149334659Y-105660341D01*
X149441005Y-105789922D01*
X149520023Y-105937756D01*
X149568687Y-106098179D01*
X149585117Y-106265000D01*
X149568687Y-106431821D01*
X149520023Y-106592244D01*
X149441005Y-106740078D01*
X149334659Y-106869659D01*
X149205078Y-106976005D01*
X149057244Y-107055023D01*
X149057241Y-107055024D01*
X149057239Y-107055025D01*
X148896825Y-107103686D01*
X148896824Y-107103686D01*
X148896821Y-107103687D01*
X148771804Y-107116000D01*
X148688196Y-107116000D01*
X148563179Y-107103687D01*
X148563176Y-107103686D01*
X148563175Y-107103686D01*
X148402761Y-107055025D01*
X148402759Y-107055024D01*
X148402756Y-107055023D01*
X148254922Y-106976005D01*
X148125341Y-106869659D01*
X148018995Y-106740078D01*
X147939977Y-106592244D01*
X147891313Y-106431821D01*
X147874883Y-106265000D01*
X147891313Y-106098179D01*
X147939977Y-105937756D01*
X148018995Y-105789922D01*
X148125341Y-105660341D01*
X148254922Y-105553995D01*
X148402756Y-105474977D01*
X148402759Y-105474976D01*
X148402761Y-105474975D01*
X148563175Y-105426314D01*
X148563176Y-105426314D01*
X148563179Y-105426313D01*
X148688196Y-105414000D01*
X148771804Y-105414000D01*
X148896821Y-105426313D01*
X148896821Y-105426313D01*
G37*
G36*
X141276821Y-105426313D02*
X141276824Y-105426314D01*
X141276825Y-105426314D01*
X141437239Y-105474975D01*
X141437241Y-105474976D01*
X141437244Y-105474977D01*
X141585078Y-105553995D01*
X141714659Y-105660341D01*
X141821005Y-105789922D01*
X141900023Y-105937756D01*
X141948687Y-106098179D01*
X141965117Y-106265000D01*
X141948687Y-106431821D01*
X141900023Y-106592244D01*
X141821005Y-106740078D01*
X141714659Y-106869659D01*
X141585078Y-106976005D01*
X141437244Y-107055023D01*
X141437241Y-107055024D01*
X141437239Y-107055025D01*
X141276825Y-107103686D01*
X141276824Y-107103686D01*
X141276821Y-107103687D01*
X141151804Y-107116000D01*
X141068196Y-107116000D01*
X140943179Y-107103687D01*
X140943176Y-107103686D01*
X140943175Y-107103686D01*
X140782761Y-107055025D01*
X140782759Y-107055024D01*
X140782756Y-107055023D01*
X140634922Y-106976005D01*
X140505341Y-106869659D01*
X140398995Y-106740078D01*
X140319977Y-106592244D01*
X140271313Y-106431821D01*
X140254883Y-106265000D01*
X140271313Y-106098179D01*
X140319977Y-105937756D01*
X140398995Y-105789922D01*
X140505341Y-105660341D01*
X140634922Y-105553995D01*
X140782756Y-105474977D01*
X140782759Y-105474976D01*
X140782761Y-105474975D01*
X140943175Y-105426314D01*
X140943176Y-105426314D01*
X140943179Y-105426313D01*
X141068196Y-105414000D01*
X141151804Y-105414000D01*
X141276821Y-105426313D01*
X141276821Y-105426313D01*
G37*
G36*
X134810442Y-103715518D02*
X134876627Y-103722037D01*
X134989853Y-103756384D01*
X135046467Y-103773557D01*
X135185087Y-103847652D01*
X135202991Y-103857222D01*
X135238729Y-103886552D01*
X135340186Y-103969814D01*
X135423448Y-104071271D01*
X135452778Y-104107009D01*
X135452779Y-104107011D01*
X135536443Y-104263533D01*
X135536443Y-104263534D01*
X135587963Y-104433373D01*
X135605359Y-104610000D01*
X135587963Y-104786627D01*
X135553616Y-104899853D01*
X135536443Y-104956467D01*
X135462348Y-105095087D01*
X135452778Y-105112991D01*
X135423448Y-105148729D01*
X135340186Y-105250186D01*
X135238729Y-105333448D01*
X135202991Y-105362778D01*
X135202989Y-105362779D01*
X135046467Y-105446443D01*
X134989853Y-105463616D01*
X134876627Y-105497963D01*
X134810443Y-105504481D01*
X134744260Y-105511000D01*
X134655740Y-105511000D01*
X134589558Y-105504482D01*
X134523373Y-105497963D01*
X134410147Y-105463616D01*
X134353533Y-105446443D01*
X134197011Y-105362779D01*
X134197009Y-105362778D01*
X134161271Y-105333448D01*
X134059814Y-105250186D01*
X133976552Y-105148729D01*
X133947222Y-105112991D01*
X133937652Y-105095087D01*
X133863557Y-104956467D01*
X133846384Y-104899853D01*
X133812037Y-104786627D01*
X133794641Y-104610000D01*
X133812037Y-104433373D01*
X133863557Y-104263534D01*
X133863557Y-104263533D01*
X133947221Y-104107011D01*
X133947222Y-104107009D01*
X133976552Y-104071271D01*
X134059814Y-103969814D01*
X134161271Y-103886552D01*
X134197009Y-103857222D01*
X134214913Y-103847652D01*
X134353533Y-103773557D01*
X134410147Y-103756384D01*
X134523373Y-103722037D01*
X134589558Y-103715518D01*
X134655740Y-103709000D01*
X134744260Y-103709000D01*
X134810442Y-103715518D01*
X134810442Y-103715518D01*
G37*
G36*
X152464442Y-102830518D02*
X152530627Y-102837037D01*
X152643853Y-102871384D01*
X152700467Y-102888557D01*
X152839087Y-102962652D01*
X152856991Y-102972222D01*
X152892729Y-103001552D01*
X152994186Y-103084814D01*
X153077448Y-103186271D01*
X153106778Y-103222009D01*
X153106779Y-103222011D01*
X153190443Y-103378533D01*
X153207616Y-103435147D01*
X153241963Y-103548373D01*
X153259359Y-103725000D01*
X153241963Y-103901627D01*
X153221278Y-103969815D01*
X153190443Y-104071467D01*
X153171445Y-104107009D01*
X153106778Y-104227991D01*
X153077609Y-104263533D01*
X152994186Y-104365186D01*
X152892729Y-104448448D01*
X152856991Y-104477778D01*
X152856989Y-104477779D01*
X152700467Y-104561443D01*
X152693069Y-104563687D01*
X152530627Y-104612963D01*
X152464442Y-104619482D01*
X152398260Y-104626000D01*
X152309740Y-104626000D01*
X152243558Y-104619482D01*
X152177373Y-104612963D01*
X152014931Y-104563687D01*
X152007533Y-104561443D01*
X151851011Y-104477779D01*
X151851009Y-104477778D01*
X151815271Y-104448448D01*
X151713814Y-104365186D01*
X151630391Y-104263533D01*
X151601222Y-104227991D01*
X151536555Y-104107009D01*
X151517557Y-104071467D01*
X151486722Y-103969815D01*
X151466037Y-103901627D01*
X151448641Y-103725000D01*
X151466037Y-103548373D01*
X151500384Y-103435147D01*
X151517557Y-103378533D01*
X151601221Y-103222011D01*
X151601222Y-103222009D01*
X151630552Y-103186271D01*
X151713814Y-103084814D01*
X151815271Y-103001552D01*
X151851009Y-102972222D01*
X151868913Y-102962652D01*
X152007533Y-102888557D01*
X152064147Y-102871384D01*
X152177373Y-102837037D01*
X152243558Y-102830518D01*
X152309740Y-102824000D01*
X152398260Y-102824000D01*
X152464442Y-102830518D01*
X152464442Y-102830518D01*
G37*
G36*
X148896821Y-102886313D02*
X148896824Y-102886314D01*
X148896825Y-102886314D01*
X149057239Y-102934975D01*
X149057241Y-102934976D01*
X149057244Y-102934977D01*
X149205078Y-103013995D01*
X149334659Y-103120341D01*
X149441005Y-103249922D01*
X149520023Y-103397756D01*
X149520024Y-103397759D01*
X149520025Y-103397761D01*
X149565713Y-103548375D01*
X149568687Y-103558179D01*
X149585117Y-103725000D01*
X149568687Y-103891821D01*
X149568686Y-103891824D01*
X149568686Y-103891825D01*
X149565713Y-103901627D01*
X149520023Y-104052244D01*
X149441005Y-104200078D01*
X149334659Y-104329659D01*
X149205078Y-104436005D01*
X149057244Y-104515023D01*
X149057241Y-104515024D01*
X149057239Y-104515025D01*
X148896825Y-104563686D01*
X148896824Y-104563686D01*
X148896821Y-104563687D01*
X148771804Y-104576000D01*
X148688196Y-104576000D01*
X148563179Y-104563687D01*
X148563176Y-104563686D01*
X148563175Y-104563686D01*
X148402761Y-104515025D01*
X148402759Y-104515024D01*
X148402756Y-104515023D01*
X148254922Y-104436005D01*
X148125341Y-104329659D01*
X148018995Y-104200078D01*
X147939977Y-104052244D01*
X147894288Y-103901627D01*
X147891314Y-103891825D01*
X147891314Y-103891824D01*
X147891313Y-103891821D01*
X147874883Y-103725000D01*
X147891313Y-103558179D01*
X147894287Y-103548375D01*
X147939975Y-103397761D01*
X147939976Y-103397759D01*
X147939977Y-103397756D01*
X148018995Y-103249922D01*
X148125341Y-103120341D01*
X148254922Y-103013995D01*
X148402756Y-102934977D01*
X148402759Y-102934976D01*
X148402761Y-102934975D01*
X148563175Y-102886314D01*
X148563176Y-102886314D01*
X148563179Y-102886313D01*
X148688196Y-102874000D01*
X148771804Y-102874000D01*
X148896821Y-102886313D01*
X148896821Y-102886313D01*
G37*
G36*
X141276821Y-102886313D02*
X141276824Y-102886314D01*
X141276825Y-102886314D01*
X141437239Y-102934975D01*
X141437241Y-102934976D01*
X141437244Y-102934977D01*
X141585078Y-103013995D01*
X141714659Y-103120341D01*
X141821005Y-103249922D01*
X141900023Y-103397756D01*
X141900024Y-103397759D01*
X141900025Y-103397761D01*
X141945713Y-103548375D01*
X141948687Y-103558179D01*
X141965117Y-103725000D01*
X141948687Y-103891821D01*
X141948686Y-103891824D01*
X141948686Y-103891825D01*
X141945713Y-103901627D01*
X141900023Y-104052244D01*
X141821005Y-104200078D01*
X141714659Y-104329659D01*
X141585078Y-104436005D01*
X141437244Y-104515023D01*
X141437241Y-104515024D01*
X141437239Y-104515025D01*
X141276825Y-104563686D01*
X141276824Y-104563686D01*
X141276821Y-104563687D01*
X141151804Y-104576000D01*
X141068196Y-104576000D01*
X140943179Y-104563687D01*
X140943176Y-104563686D01*
X140943175Y-104563686D01*
X140782761Y-104515025D01*
X140782759Y-104515024D01*
X140782756Y-104515023D01*
X140634922Y-104436005D01*
X140505341Y-104329659D01*
X140398995Y-104200078D01*
X140319977Y-104052244D01*
X140274288Y-103901627D01*
X140271314Y-103891825D01*
X140271314Y-103891824D01*
X140271313Y-103891821D01*
X140254883Y-103725000D01*
X140271313Y-103558179D01*
X140274287Y-103548375D01*
X140319975Y-103397761D01*
X140319976Y-103397759D01*
X140319977Y-103397756D01*
X140398995Y-103249922D01*
X140505341Y-103120341D01*
X140634922Y-103013995D01*
X140782756Y-102934977D01*
X140782759Y-102934976D01*
X140782761Y-102934975D01*
X140943175Y-102886314D01*
X140943176Y-102886314D01*
X140943179Y-102886313D01*
X141068196Y-102874000D01*
X141151804Y-102874000D01*
X141276821Y-102886313D01*
X141276821Y-102886313D01*
G37*
G36*
X160235443Y-101355519D02*
X160301627Y-101362037D01*
X160414853Y-101396384D01*
X160471467Y-101413557D01*
X160610087Y-101487652D01*
X160627991Y-101497222D01*
X160646289Y-101512239D01*
X160765186Y-101609814D01*
X160829343Y-101687991D01*
X160877778Y-101747009D01*
X160877779Y-101747011D01*
X160961443Y-101903533D01*
X160961443Y-101903534D01*
X161012963Y-102073373D01*
X161030359Y-102250000D01*
X161012963Y-102426627D01*
X160978616Y-102539853D01*
X160961443Y-102596467D01*
X160900658Y-102710186D01*
X160877778Y-102752991D01*
X160848448Y-102788729D01*
X160765186Y-102890186D01*
X160682598Y-102957963D01*
X160627991Y-103002778D01*
X160627989Y-103002779D01*
X160471467Y-103086443D01*
X160414853Y-103103616D01*
X160301627Y-103137963D01*
X160235443Y-103144481D01*
X160169260Y-103151000D01*
X159830740Y-103151000D01*
X159764557Y-103144481D01*
X159698373Y-103137963D01*
X159585147Y-103103616D01*
X159528533Y-103086443D01*
X159372011Y-103002779D01*
X159372009Y-103002778D01*
X159317402Y-102957963D01*
X159234814Y-102890186D01*
X159151552Y-102788729D01*
X159122222Y-102752991D01*
X159099342Y-102710186D01*
X159038557Y-102596467D01*
X159021384Y-102539853D01*
X158987037Y-102426627D01*
X158969641Y-102250000D01*
X158987037Y-102073373D01*
X159038557Y-101903534D01*
X159038557Y-101903533D01*
X159122221Y-101747011D01*
X159122222Y-101747009D01*
X159170657Y-101687991D01*
X159234814Y-101609814D01*
X159353711Y-101512239D01*
X159372009Y-101497222D01*
X159389913Y-101487652D01*
X159528533Y-101413557D01*
X159585147Y-101396384D01*
X159698373Y-101362037D01*
X159764557Y-101355519D01*
X159830740Y-101349000D01*
X160169260Y-101349000D01*
X160235443Y-101355519D01*
X160235443Y-101355519D01*
G37*
G36*
X134810442Y-101175518D02*
X134876627Y-101182037D01*
X134989853Y-101216384D01*
X135046467Y-101233557D01*
X135185087Y-101307652D01*
X135202991Y-101317222D01*
X135238729Y-101346552D01*
X135340186Y-101429814D01*
X135423448Y-101531271D01*
X135452778Y-101567009D01*
X135452779Y-101567011D01*
X135536443Y-101723533D01*
X135536443Y-101723534D01*
X135587963Y-101893373D01*
X135605359Y-102070000D01*
X135587963Y-102246627D01*
X135553616Y-102359853D01*
X135536443Y-102416467D01*
X135531013Y-102426625D01*
X135452778Y-102572991D01*
X135423448Y-102608729D01*
X135340186Y-102710186D01*
X135238729Y-102793448D01*
X135202991Y-102822778D01*
X135202989Y-102822779D01*
X135046467Y-102906443D01*
X134989853Y-102923616D01*
X134876627Y-102957963D01*
X134810443Y-102964481D01*
X134744260Y-102971000D01*
X134655740Y-102971000D01*
X134589557Y-102964481D01*
X134523373Y-102957963D01*
X134410147Y-102923616D01*
X134353533Y-102906443D01*
X134197011Y-102822779D01*
X134197009Y-102822778D01*
X134161271Y-102793448D01*
X134059814Y-102710186D01*
X133976552Y-102608729D01*
X133947222Y-102572991D01*
X133868987Y-102426625D01*
X133863557Y-102416467D01*
X133846384Y-102359853D01*
X133812037Y-102246627D01*
X133794641Y-102070000D01*
X133812037Y-101893373D01*
X133863557Y-101723534D01*
X133863557Y-101723533D01*
X133947221Y-101567011D01*
X133947222Y-101567009D01*
X133976552Y-101531271D01*
X134059814Y-101429814D01*
X134161271Y-101346552D01*
X134197009Y-101317222D01*
X134214913Y-101307652D01*
X134353533Y-101233557D01*
X134410147Y-101216384D01*
X134523373Y-101182037D01*
X134589558Y-101175518D01*
X134655740Y-101169000D01*
X134744260Y-101169000D01*
X134810442Y-101175518D01*
X134810442Y-101175518D01*
G37*
G36*
X152464443Y-100290519D02*
X152530627Y-100297037D01*
X152643853Y-100331384D01*
X152700467Y-100348557D01*
X152839087Y-100422652D01*
X152856991Y-100432222D01*
X152892729Y-100461552D01*
X152994186Y-100544814D01*
X153070630Y-100637963D01*
X153106778Y-100682009D01*
X153106779Y-100682011D01*
X153190443Y-100838533D01*
X153207616Y-100895147D01*
X153241963Y-101008373D01*
X153259359Y-101185000D01*
X153241963Y-101361627D01*
X153221278Y-101429815D01*
X153190443Y-101531467D01*
X153171445Y-101567009D01*
X153106778Y-101687991D01*
X153077609Y-101723533D01*
X152994186Y-101825186D01*
X152898718Y-101903533D01*
X152856991Y-101937778D01*
X152856989Y-101937779D01*
X152700467Y-102021443D01*
X152693069Y-102023687D01*
X152530627Y-102072963D01*
X152464443Y-102079481D01*
X152398260Y-102086000D01*
X152309740Y-102086000D01*
X152243558Y-102079482D01*
X152177373Y-102072963D01*
X152014931Y-102023687D01*
X152007533Y-102021443D01*
X151851011Y-101937779D01*
X151851009Y-101937778D01*
X151809282Y-101903533D01*
X151713814Y-101825186D01*
X151630391Y-101723533D01*
X151601222Y-101687991D01*
X151536555Y-101567009D01*
X151517557Y-101531467D01*
X151486722Y-101429815D01*
X151466037Y-101361627D01*
X151448641Y-101185000D01*
X151466037Y-101008373D01*
X151500384Y-100895147D01*
X151517557Y-100838533D01*
X151601221Y-100682011D01*
X151601222Y-100682009D01*
X151637370Y-100637963D01*
X151713814Y-100544814D01*
X151815271Y-100461552D01*
X151851009Y-100432222D01*
X151868913Y-100422652D01*
X152007533Y-100348557D01*
X152064147Y-100331384D01*
X152177373Y-100297037D01*
X152243557Y-100290519D01*
X152309740Y-100284000D01*
X152398260Y-100284000D01*
X152464443Y-100290519D01*
X152464443Y-100290519D01*
G37*
G36*
X148896821Y-100346313D02*
X148896824Y-100346314D01*
X148896825Y-100346314D01*
X149057239Y-100394975D01*
X149057241Y-100394976D01*
X149057244Y-100394977D01*
X149205078Y-100473995D01*
X149334659Y-100580341D01*
X149441005Y-100709922D01*
X149520023Y-100857756D01*
X149520024Y-100857759D01*
X149520025Y-100857761D01*
X149565713Y-101008375D01*
X149568687Y-101018179D01*
X149585117Y-101185000D01*
X149568687Y-101351821D01*
X149568686Y-101351824D01*
X149568686Y-101351825D01*
X149524581Y-101497221D01*
X149520023Y-101512244D01*
X149441005Y-101660078D01*
X149334659Y-101789659D01*
X149205078Y-101896005D01*
X149057244Y-101975023D01*
X149057241Y-101975024D01*
X149057239Y-101975025D01*
X148896825Y-102023686D01*
X148896824Y-102023686D01*
X148896821Y-102023687D01*
X148771804Y-102036000D01*
X148688196Y-102036000D01*
X148563179Y-102023687D01*
X148563176Y-102023686D01*
X148563175Y-102023686D01*
X148402761Y-101975025D01*
X148402759Y-101975024D01*
X148402756Y-101975023D01*
X148254922Y-101896005D01*
X148125341Y-101789659D01*
X148018995Y-101660078D01*
X147939977Y-101512244D01*
X147935420Y-101497221D01*
X147891314Y-101351825D01*
X147891314Y-101351824D01*
X147891313Y-101351821D01*
X147874883Y-101185000D01*
X147891313Y-101018179D01*
X147894287Y-101008375D01*
X147939975Y-100857761D01*
X147939976Y-100857759D01*
X147939977Y-100857756D01*
X148018995Y-100709922D01*
X148125341Y-100580341D01*
X148254922Y-100473995D01*
X148402756Y-100394977D01*
X148402759Y-100394976D01*
X148402761Y-100394975D01*
X148563175Y-100346314D01*
X148563176Y-100346314D01*
X148563179Y-100346313D01*
X148688196Y-100334000D01*
X148771804Y-100334000D01*
X148896821Y-100346313D01*
X148896821Y-100346313D01*
G37*
G36*
X141276821Y-100346313D02*
X141276824Y-100346314D01*
X141276825Y-100346314D01*
X141437239Y-100394975D01*
X141437241Y-100394976D01*
X141437244Y-100394977D01*
X141585078Y-100473995D01*
X141714659Y-100580341D01*
X141821005Y-100709922D01*
X141900023Y-100857756D01*
X141900024Y-100857759D01*
X141900025Y-100857761D01*
X141945713Y-101008375D01*
X141948687Y-101018179D01*
X141965117Y-101185000D01*
X141948687Y-101351821D01*
X141948686Y-101351824D01*
X141948686Y-101351825D01*
X141904581Y-101497221D01*
X141900023Y-101512244D01*
X141821005Y-101660078D01*
X141714659Y-101789659D01*
X141585078Y-101896005D01*
X141437244Y-101975023D01*
X141437241Y-101975024D01*
X141437239Y-101975025D01*
X141276825Y-102023686D01*
X141276824Y-102023686D01*
X141276821Y-102023687D01*
X141151804Y-102036000D01*
X141068196Y-102036000D01*
X140943179Y-102023687D01*
X140943176Y-102023686D01*
X140943175Y-102023686D01*
X140782761Y-101975025D01*
X140782759Y-101975024D01*
X140782756Y-101975023D01*
X140634922Y-101896005D01*
X140505341Y-101789659D01*
X140398995Y-101660078D01*
X140319977Y-101512244D01*
X140315420Y-101497221D01*
X140271314Y-101351825D01*
X140271314Y-101351824D01*
X140271313Y-101351821D01*
X140254883Y-101185000D01*
X140271313Y-101018179D01*
X140274287Y-101008375D01*
X140319975Y-100857761D01*
X140319976Y-100857759D01*
X140319977Y-100857756D01*
X140398995Y-100709922D01*
X140505341Y-100580341D01*
X140634922Y-100473995D01*
X140782756Y-100394977D01*
X140782759Y-100394976D01*
X140782761Y-100394975D01*
X140943175Y-100346314D01*
X140943176Y-100346314D01*
X140943179Y-100346313D01*
X141068196Y-100334000D01*
X141151804Y-100334000D01*
X141276821Y-100346313D01*
X141276821Y-100346313D01*
G37*
G36*
X160235443Y-98855519D02*
X160301627Y-98862037D01*
X160393199Y-98889815D01*
X160471467Y-98913557D01*
X160581261Y-98972244D01*
X160627991Y-98997222D01*
X160663729Y-99026552D01*
X160765186Y-99109814D01*
X160848448Y-99211271D01*
X160877778Y-99247009D01*
X160877779Y-99247011D01*
X160961443Y-99403533D01*
X160961443Y-99403534D01*
X161012963Y-99573373D01*
X161030359Y-99750000D01*
X161012963Y-99926627D01*
X160980698Y-100032991D01*
X160961443Y-100096467D01*
X160922039Y-100170185D01*
X160877778Y-100252991D01*
X160853332Y-100282778D01*
X160765186Y-100390186D01*
X160663729Y-100473448D01*
X160627991Y-100502778D01*
X160627989Y-100502779D01*
X160471467Y-100586443D01*
X160414853Y-100603616D01*
X160301627Y-100637963D01*
X160235442Y-100644482D01*
X160169260Y-100651000D01*
X159830740Y-100651000D01*
X159764557Y-100644481D01*
X159698373Y-100637963D01*
X159585147Y-100603616D01*
X159528533Y-100586443D01*
X159372011Y-100502779D01*
X159372009Y-100502778D01*
X159336271Y-100473448D01*
X159234814Y-100390186D01*
X159146668Y-100282778D01*
X159122222Y-100252991D01*
X159077961Y-100170185D01*
X159038557Y-100096467D01*
X159019302Y-100032991D01*
X158987037Y-99926627D01*
X158969641Y-99750000D01*
X158987037Y-99573373D01*
X159038557Y-99403534D01*
X159038557Y-99403533D01*
X159122221Y-99247011D01*
X159122222Y-99247009D01*
X159151552Y-99211271D01*
X159234814Y-99109814D01*
X159336271Y-99026552D01*
X159372009Y-98997222D01*
X159418739Y-98972244D01*
X159528533Y-98913557D01*
X159606801Y-98889815D01*
X159698373Y-98862037D01*
X159764557Y-98855519D01*
X159830740Y-98849000D01*
X160169260Y-98849000D01*
X160235443Y-98855519D01*
X160235443Y-98855519D01*
G37*
G36*
X134810443Y-98635519D02*
X134876627Y-98642037D01*
X134989853Y-98676384D01*
X135046467Y-98693557D01*
X135185087Y-98767652D01*
X135202991Y-98777222D01*
X135238729Y-98806552D01*
X135340186Y-98889814D01*
X135423448Y-98991271D01*
X135452778Y-99027009D01*
X135452779Y-99027011D01*
X135536443Y-99183533D01*
X135536443Y-99183534D01*
X135587963Y-99353373D01*
X135605359Y-99530000D01*
X135587963Y-99706627D01*
X135574806Y-99750000D01*
X135536443Y-99876467D01*
X135462348Y-100015087D01*
X135452778Y-100032991D01*
X135423448Y-100068729D01*
X135340186Y-100170186D01*
X135239289Y-100252989D01*
X135202991Y-100282778D01*
X135202989Y-100282779D01*
X135046467Y-100366443D01*
X134989853Y-100383616D01*
X134876627Y-100417963D01*
X134810443Y-100424481D01*
X134744260Y-100431000D01*
X134655740Y-100431000D01*
X134589557Y-100424481D01*
X134523373Y-100417963D01*
X134410147Y-100383616D01*
X134353533Y-100366443D01*
X134197011Y-100282779D01*
X134197009Y-100282778D01*
X134160711Y-100252989D01*
X134059814Y-100170186D01*
X133976552Y-100068729D01*
X133947222Y-100032991D01*
X133937652Y-100015087D01*
X133863557Y-99876467D01*
X133825194Y-99750000D01*
X133812037Y-99706627D01*
X133794641Y-99530000D01*
X133812037Y-99353373D01*
X133863557Y-99183534D01*
X133863557Y-99183533D01*
X133947221Y-99027011D01*
X133947222Y-99027009D01*
X133976552Y-98991271D01*
X134059814Y-98889814D01*
X134161271Y-98806552D01*
X134197009Y-98777222D01*
X134214913Y-98767652D01*
X134353533Y-98693557D01*
X134410147Y-98676384D01*
X134523373Y-98642037D01*
X134589557Y-98635519D01*
X134655740Y-98629000D01*
X134744260Y-98629000D01*
X134810443Y-98635519D01*
X134810443Y-98635519D01*
G37*
G36*
X152464442Y-97750518D02*
X152530627Y-97757037D01*
X152643853Y-97791384D01*
X152700467Y-97808557D01*
X152839087Y-97882652D01*
X152856991Y-97892222D01*
X152892729Y-97921552D01*
X152994186Y-98004814D01*
X153061176Y-98086443D01*
X153106778Y-98142009D01*
X153106779Y-98142011D01*
X153190443Y-98298533D01*
X153207616Y-98355147D01*
X153241963Y-98468373D01*
X153259359Y-98645000D01*
X153241963Y-98821627D01*
X153221278Y-98889815D01*
X153190443Y-98991467D01*
X153171445Y-99027009D01*
X153106778Y-99147991D01*
X153077609Y-99183533D01*
X152994186Y-99285186D01*
X152892729Y-99368448D01*
X152856991Y-99397778D01*
X152856989Y-99397779D01*
X152700467Y-99481443D01*
X152693069Y-99483687D01*
X152530627Y-99532963D01*
X152464443Y-99539481D01*
X152398260Y-99546000D01*
X152309740Y-99546000D01*
X152243557Y-99539481D01*
X152177373Y-99532963D01*
X152014931Y-99483687D01*
X152007533Y-99481443D01*
X151851011Y-99397779D01*
X151851009Y-99397778D01*
X151815271Y-99368448D01*
X151713814Y-99285186D01*
X151630391Y-99183533D01*
X151601222Y-99147991D01*
X151536555Y-99027009D01*
X151517557Y-98991467D01*
X151486722Y-98889815D01*
X151466037Y-98821627D01*
X151448641Y-98645000D01*
X151466037Y-98468373D01*
X151500384Y-98355147D01*
X151517557Y-98298533D01*
X151601221Y-98142011D01*
X151601222Y-98142009D01*
X151646824Y-98086443D01*
X151713814Y-98004814D01*
X151815271Y-97921552D01*
X151851009Y-97892222D01*
X151868913Y-97882652D01*
X152007533Y-97808557D01*
X152064147Y-97791384D01*
X152177373Y-97757037D01*
X152243558Y-97750518D01*
X152309740Y-97744000D01*
X152398260Y-97744000D01*
X152464442Y-97750518D01*
X152464442Y-97750518D01*
G37*
G36*
X141276821Y-97806313D02*
X141276824Y-97806314D01*
X141276825Y-97806314D01*
X141437239Y-97854975D01*
X141437241Y-97854976D01*
X141437244Y-97854977D01*
X141585078Y-97933995D01*
X141714659Y-98040341D01*
X141821005Y-98169922D01*
X141900023Y-98317756D01*
X141900024Y-98317759D01*
X141900025Y-98317761D01*
X141945713Y-98468375D01*
X141948687Y-98478179D01*
X141965117Y-98645000D01*
X141948687Y-98811821D01*
X141948686Y-98811824D01*
X141948686Y-98811825D01*
X141945713Y-98821627D01*
X141900023Y-98972244D01*
X141821005Y-99120078D01*
X141714659Y-99249659D01*
X141585078Y-99356005D01*
X141437244Y-99435023D01*
X141437241Y-99435024D01*
X141437239Y-99435025D01*
X141276825Y-99483686D01*
X141276824Y-99483686D01*
X141276821Y-99483687D01*
X141151804Y-99496000D01*
X141068196Y-99496000D01*
X140943179Y-99483687D01*
X140943176Y-99483686D01*
X140943175Y-99483686D01*
X140782761Y-99435025D01*
X140782759Y-99435024D01*
X140782756Y-99435023D01*
X140634922Y-99356005D01*
X140505341Y-99249659D01*
X140398995Y-99120078D01*
X140319977Y-98972244D01*
X140274288Y-98821627D01*
X140271314Y-98811825D01*
X140271314Y-98811824D01*
X140271313Y-98811821D01*
X140254883Y-98645000D01*
X140271313Y-98478179D01*
X140274287Y-98468375D01*
X140319975Y-98317761D01*
X140319976Y-98317759D01*
X140319977Y-98317756D01*
X140398995Y-98169922D01*
X140505341Y-98040341D01*
X140634922Y-97933995D01*
X140782756Y-97854977D01*
X140782759Y-97854976D01*
X140782761Y-97854975D01*
X140943175Y-97806314D01*
X140943176Y-97806314D01*
X140943179Y-97806313D01*
X141068196Y-97794000D01*
X141151804Y-97794000D01*
X141276821Y-97806313D01*
X141276821Y-97806313D01*
G37*
G36*
X148896821Y-97806313D02*
X148896824Y-97806314D01*
X148896825Y-97806314D01*
X149057239Y-97854975D01*
X149057241Y-97854976D01*
X149057244Y-97854977D01*
X149205078Y-97933995D01*
X149334659Y-98040341D01*
X149441005Y-98169922D01*
X149520023Y-98317756D01*
X149520024Y-98317759D01*
X149520025Y-98317761D01*
X149565713Y-98468375D01*
X149568687Y-98478179D01*
X149585117Y-98645000D01*
X149568687Y-98811821D01*
X149568686Y-98811824D01*
X149568686Y-98811825D01*
X149565713Y-98821627D01*
X149520023Y-98972244D01*
X149441005Y-99120078D01*
X149334659Y-99249659D01*
X149205078Y-99356005D01*
X149057244Y-99435023D01*
X149057241Y-99435024D01*
X149057239Y-99435025D01*
X148896825Y-99483686D01*
X148896824Y-99483686D01*
X148896821Y-99483687D01*
X148771804Y-99496000D01*
X148688196Y-99496000D01*
X148563179Y-99483687D01*
X148563176Y-99483686D01*
X148563175Y-99483686D01*
X148402761Y-99435025D01*
X148402759Y-99435024D01*
X148402756Y-99435023D01*
X148254922Y-99356005D01*
X148125341Y-99249659D01*
X148018995Y-99120078D01*
X147939977Y-98972244D01*
X147894288Y-98821627D01*
X147891314Y-98811825D01*
X147891314Y-98811824D01*
X147891313Y-98811821D01*
X147874883Y-98645000D01*
X147891313Y-98478179D01*
X147894287Y-98468375D01*
X147939975Y-98317761D01*
X147939976Y-98317759D01*
X147939977Y-98317756D01*
X148018995Y-98169922D01*
X148125341Y-98040341D01*
X148254922Y-97933995D01*
X148402756Y-97854977D01*
X148402759Y-97854976D01*
X148402761Y-97854975D01*
X148563175Y-97806314D01*
X148563176Y-97806314D01*
X148563179Y-97806313D01*
X148688196Y-97794000D01*
X148771804Y-97794000D01*
X148896821Y-97806313D01*
X148896821Y-97806313D01*
G37*
G36*
X160235443Y-96355519D02*
X160301627Y-96362037D01*
X160414853Y-96396384D01*
X160471467Y-96413557D01*
X160608884Y-96487009D01*
X160627991Y-96497222D01*
X160663729Y-96526552D01*
X160765186Y-96609814D01*
X160847125Y-96709659D01*
X160877778Y-96747009D01*
X160877779Y-96747011D01*
X160961443Y-96903533D01*
X160961443Y-96903534D01*
X161012963Y-97073373D01*
X161030359Y-97250000D01*
X161012963Y-97426627D01*
X160978616Y-97539853D01*
X160961443Y-97596467D01*
X160887348Y-97735087D01*
X160877778Y-97752991D01*
X160848448Y-97788729D01*
X160765186Y-97890186D01*
X160663729Y-97973448D01*
X160627991Y-98002778D01*
X160627989Y-98002779D01*
X160471467Y-98086443D01*
X160414853Y-98103616D01*
X160301627Y-98137963D01*
X160260526Y-98142011D01*
X160169260Y-98151000D01*
X159830740Y-98151000D01*
X159739474Y-98142011D01*
X159698373Y-98137963D01*
X159585147Y-98103616D01*
X159528533Y-98086443D01*
X159372011Y-98002779D01*
X159372009Y-98002778D01*
X159336271Y-97973448D01*
X159234814Y-97890186D01*
X159151552Y-97788729D01*
X159122222Y-97752991D01*
X159112652Y-97735087D01*
X159038557Y-97596467D01*
X159021384Y-97539853D01*
X158987037Y-97426627D01*
X158969641Y-97250000D01*
X158987037Y-97073373D01*
X159038557Y-96903534D01*
X159038557Y-96903533D01*
X159122221Y-96747011D01*
X159122222Y-96747009D01*
X159152875Y-96709659D01*
X159234814Y-96609814D01*
X159336271Y-96526552D01*
X159372009Y-96497222D01*
X159391116Y-96487009D01*
X159528533Y-96413557D01*
X159585147Y-96396384D01*
X159698373Y-96362037D01*
X159764557Y-96355519D01*
X159830740Y-96349000D01*
X160169260Y-96349000D01*
X160235443Y-96355519D01*
X160235443Y-96355519D01*
G37*
G36*
X134810443Y-96095519D02*
X134876627Y-96102037D01*
X134989853Y-96136384D01*
X135046467Y-96153557D01*
X135185087Y-96227652D01*
X135202991Y-96237222D01*
X135238729Y-96266552D01*
X135340186Y-96349814D01*
X135423448Y-96451271D01*
X135452778Y-96487009D01*
X135452779Y-96487011D01*
X135536443Y-96643533D01*
X135536443Y-96643534D01*
X135587963Y-96813373D01*
X135605359Y-96990000D01*
X135587963Y-97166627D01*
X135562672Y-97250000D01*
X135536443Y-97336467D01*
X135488252Y-97426625D01*
X135452778Y-97492991D01*
X135423448Y-97528729D01*
X135340186Y-97630186D01*
X135238729Y-97713448D01*
X135202991Y-97742778D01*
X135202989Y-97742779D01*
X135046467Y-97826443D01*
X134989853Y-97843616D01*
X134876627Y-97877963D01*
X134810442Y-97884482D01*
X134744260Y-97891000D01*
X134655740Y-97891000D01*
X134589558Y-97884482D01*
X134523373Y-97877963D01*
X134410147Y-97843616D01*
X134353533Y-97826443D01*
X134197011Y-97742779D01*
X134197009Y-97742778D01*
X134161271Y-97713448D01*
X134059814Y-97630186D01*
X133976552Y-97528729D01*
X133947222Y-97492991D01*
X133911748Y-97426625D01*
X133863557Y-97336467D01*
X133837328Y-97250000D01*
X133812037Y-97166627D01*
X133794641Y-96990000D01*
X133812037Y-96813373D01*
X133863557Y-96643534D01*
X133863557Y-96643533D01*
X133947221Y-96487011D01*
X133947222Y-96487009D01*
X133976552Y-96451271D01*
X134059814Y-96349814D01*
X134161271Y-96266552D01*
X134197009Y-96237222D01*
X134214913Y-96227652D01*
X134353533Y-96153557D01*
X134410147Y-96136384D01*
X134523373Y-96102037D01*
X134589558Y-96095518D01*
X134655740Y-96089000D01*
X134744260Y-96089000D01*
X134810443Y-96095519D01*
X134810443Y-96095519D01*
G37*
G36*
X152464443Y-95210519D02*
X152530627Y-95217037D01*
X152643853Y-95251384D01*
X152700467Y-95268557D01*
X152839087Y-95342652D01*
X152856991Y-95352222D01*
X152892729Y-95381552D01*
X152994186Y-95464814D01*
X153077448Y-95566271D01*
X153106778Y-95602009D01*
X153106779Y-95602011D01*
X153190443Y-95758533D01*
X153207616Y-95815147D01*
X153241963Y-95928373D01*
X153259359Y-96105000D01*
X153241963Y-96281627D01*
X153221278Y-96349815D01*
X153190443Y-96451467D01*
X153165986Y-96497222D01*
X153106778Y-96607991D01*
X153077609Y-96643533D01*
X152994186Y-96745186D01*
X152892729Y-96828448D01*
X152856991Y-96857778D01*
X152856989Y-96857779D01*
X152700467Y-96941443D01*
X152693069Y-96943687D01*
X152530627Y-96992963D01*
X152464442Y-96999482D01*
X152398260Y-97006000D01*
X152309740Y-97006000D01*
X152243557Y-96999481D01*
X152177373Y-96992963D01*
X152014931Y-96943687D01*
X152007533Y-96941443D01*
X151851011Y-96857779D01*
X151851009Y-96857778D01*
X151815271Y-96828448D01*
X151713814Y-96745186D01*
X151630391Y-96643533D01*
X151601222Y-96607991D01*
X151542014Y-96497222D01*
X151517557Y-96451467D01*
X151486722Y-96349815D01*
X151466037Y-96281627D01*
X151448641Y-96105000D01*
X151466037Y-95928373D01*
X151500384Y-95815147D01*
X151517557Y-95758533D01*
X151601221Y-95602011D01*
X151601222Y-95602009D01*
X151630552Y-95566271D01*
X151713814Y-95464814D01*
X151815271Y-95381552D01*
X151851009Y-95352222D01*
X151868913Y-95342652D01*
X152007533Y-95268557D01*
X152064147Y-95251384D01*
X152177373Y-95217037D01*
X152243558Y-95210518D01*
X152309740Y-95204000D01*
X152398260Y-95204000D01*
X152464443Y-95210519D01*
X152464443Y-95210519D01*
G37*
G36*
X148896821Y-95266313D02*
X148896824Y-95266314D01*
X148896825Y-95266314D01*
X149057239Y-95314975D01*
X149057241Y-95314976D01*
X149057244Y-95314977D01*
X149205078Y-95393995D01*
X149334659Y-95500341D01*
X149441005Y-95629922D01*
X149520023Y-95777756D01*
X149520024Y-95777759D01*
X149520025Y-95777761D01*
X149565713Y-95928375D01*
X149568687Y-95938179D01*
X149585117Y-96105000D01*
X149568687Y-96271821D01*
X149568686Y-96271824D01*
X149568686Y-96271825D01*
X149541321Y-96362037D01*
X149520023Y-96432244D01*
X149441005Y-96580078D01*
X149334659Y-96709659D01*
X149205078Y-96816005D01*
X149057244Y-96895023D01*
X149057241Y-96895024D01*
X149057239Y-96895025D01*
X148896825Y-96943686D01*
X148896824Y-96943686D01*
X148896821Y-96943687D01*
X148771804Y-96956000D01*
X148688196Y-96956000D01*
X148563179Y-96943687D01*
X148563176Y-96943686D01*
X148563175Y-96943686D01*
X148402761Y-96895025D01*
X148402759Y-96895024D01*
X148402756Y-96895023D01*
X148254922Y-96816005D01*
X148125341Y-96709659D01*
X148018995Y-96580078D01*
X147939977Y-96432244D01*
X147918680Y-96362037D01*
X147891314Y-96271825D01*
X147891314Y-96271824D01*
X147891313Y-96271821D01*
X147874883Y-96105000D01*
X147891313Y-95938179D01*
X147894287Y-95928375D01*
X147939975Y-95777761D01*
X147939976Y-95777759D01*
X147939977Y-95777756D01*
X148018995Y-95629922D01*
X148125341Y-95500341D01*
X148254922Y-95393995D01*
X148402756Y-95314977D01*
X148402759Y-95314976D01*
X148402761Y-95314975D01*
X148563175Y-95266314D01*
X148563176Y-95266314D01*
X148563179Y-95266313D01*
X148688196Y-95254000D01*
X148771804Y-95254000D01*
X148896821Y-95266313D01*
X148896821Y-95266313D01*
G37*
G36*
X141276821Y-95266313D02*
X141276824Y-95266314D01*
X141276825Y-95266314D01*
X141437239Y-95314975D01*
X141437241Y-95314976D01*
X141437244Y-95314977D01*
X141585078Y-95393995D01*
X141714659Y-95500341D01*
X141821005Y-95629922D01*
X141900023Y-95777756D01*
X141900024Y-95777759D01*
X141900025Y-95777761D01*
X141945713Y-95928375D01*
X141948687Y-95938179D01*
X141965117Y-96105000D01*
X141948687Y-96271821D01*
X141948686Y-96271824D01*
X141948686Y-96271825D01*
X141921321Y-96362037D01*
X141900023Y-96432244D01*
X141821005Y-96580078D01*
X141714659Y-96709659D01*
X141585078Y-96816005D01*
X141437244Y-96895023D01*
X141437241Y-96895024D01*
X141437239Y-96895025D01*
X141276825Y-96943686D01*
X141276824Y-96943686D01*
X141276821Y-96943687D01*
X141151804Y-96956000D01*
X141068196Y-96956000D01*
X140943179Y-96943687D01*
X140943176Y-96943686D01*
X140943175Y-96943686D01*
X140782761Y-96895025D01*
X140782759Y-96895024D01*
X140782756Y-96895023D01*
X140634922Y-96816005D01*
X140505341Y-96709659D01*
X140398995Y-96580078D01*
X140319977Y-96432244D01*
X140298680Y-96362037D01*
X140271314Y-96271825D01*
X140271314Y-96271824D01*
X140271313Y-96271821D01*
X140254883Y-96105000D01*
X140271313Y-95938179D01*
X140274287Y-95928375D01*
X140319975Y-95777761D01*
X140319976Y-95777759D01*
X140319977Y-95777756D01*
X140398995Y-95629922D01*
X140505341Y-95500341D01*
X140634922Y-95393995D01*
X140782756Y-95314977D01*
X140782759Y-95314976D01*
X140782761Y-95314975D01*
X140943175Y-95266314D01*
X140943176Y-95266314D01*
X140943179Y-95266313D01*
X141068196Y-95254000D01*
X141151804Y-95254000D01*
X141276821Y-95266313D01*
X141276821Y-95266313D01*
G37*
G36*
X160235443Y-93855519D02*
X160301627Y-93862037D01*
X160401190Y-93892239D01*
X160471467Y-93913557D01*
X160534050Y-93947009D01*
X160627991Y-93997222D01*
X160663729Y-94026552D01*
X160765186Y-94109814D01*
X160843454Y-94205185D01*
X160877778Y-94247009D01*
X160877779Y-94247011D01*
X160961443Y-94403533D01*
X160965225Y-94416000D01*
X161012963Y-94573373D01*
X161030359Y-94750000D01*
X161012963Y-94926627D01*
X160978616Y-95039853D01*
X160961443Y-95096467D01*
X160896996Y-95217037D01*
X160877778Y-95252991D01*
X160866844Y-95266314D01*
X160765186Y-95390186D01*
X160674250Y-95464814D01*
X160627991Y-95502778D01*
X160627989Y-95502779D01*
X160471467Y-95586443D01*
X160420152Y-95602009D01*
X160301627Y-95637963D01*
X160235442Y-95644482D01*
X160169260Y-95651000D01*
X159830740Y-95651000D01*
X159764558Y-95644482D01*
X159698373Y-95637963D01*
X159579848Y-95602009D01*
X159528533Y-95586443D01*
X159372011Y-95502779D01*
X159372009Y-95502778D01*
X159325750Y-95464814D01*
X159234814Y-95390186D01*
X159133156Y-95266314D01*
X159122222Y-95252991D01*
X159103004Y-95217037D01*
X159038557Y-95096467D01*
X159021384Y-95039853D01*
X158987037Y-94926627D01*
X158969641Y-94750000D01*
X158987037Y-94573373D01*
X159034775Y-94416000D01*
X159038557Y-94403533D01*
X159122221Y-94247011D01*
X159122222Y-94247009D01*
X159156546Y-94205185D01*
X159234814Y-94109814D01*
X159336271Y-94026552D01*
X159372009Y-93997222D01*
X159465950Y-93947009D01*
X159528533Y-93913557D01*
X159598810Y-93892239D01*
X159698373Y-93862037D01*
X159764557Y-93855519D01*
X159830740Y-93849000D01*
X160169260Y-93849000D01*
X160235443Y-93855519D01*
X160235443Y-93855519D01*
G37*
G36*
X134810443Y-93555519D02*
X134876627Y-93562037D01*
X134989853Y-93596384D01*
X135046467Y-93613557D01*
X135185087Y-93687652D01*
X135202991Y-93697222D01*
X135238729Y-93726552D01*
X135340186Y-93809814D01*
X135423448Y-93911271D01*
X135452778Y-93947009D01*
X135452779Y-93947011D01*
X135536443Y-94103533D01*
X135553616Y-94160147D01*
X135587963Y-94273373D01*
X135605359Y-94450000D01*
X135587963Y-94626627D01*
X135553616Y-94739853D01*
X135536443Y-94796467D01*
X135466871Y-94926625D01*
X135452778Y-94952991D01*
X135423448Y-94988729D01*
X135340186Y-95090186D01*
X135238729Y-95173448D01*
X135202991Y-95202778D01*
X135202989Y-95202779D01*
X135046467Y-95286443D01*
X134989853Y-95303616D01*
X134876627Y-95337963D01*
X134810442Y-95344482D01*
X134744260Y-95351000D01*
X134655740Y-95351000D01*
X134589558Y-95344482D01*
X134523373Y-95337963D01*
X134410147Y-95303616D01*
X134353533Y-95286443D01*
X134197011Y-95202779D01*
X134197009Y-95202778D01*
X134161271Y-95173448D01*
X134059814Y-95090186D01*
X133976552Y-94988729D01*
X133947222Y-94952991D01*
X133933129Y-94926625D01*
X133863557Y-94796467D01*
X133846384Y-94739853D01*
X133812037Y-94626627D01*
X133794641Y-94450000D01*
X133812037Y-94273373D01*
X133846384Y-94160147D01*
X133863557Y-94103533D01*
X133947221Y-93947011D01*
X133947222Y-93947009D01*
X133976552Y-93911271D01*
X134059814Y-93809814D01*
X134161271Y-93726552D01*
X134197009Y-93697222D01*
X134214913Y-93687652D01*
X134353533Y-93613557D01*
X134410147Y-93596384D01*
X134523373Y-93562037D01*
X134589557Y-93555519D01*
X134655740Y-93549000D01*
X134744260Y-93549000D01*
X134810443Y-93555519D01*
X134810443Y-93555519D01*
G37*
G36*
X152464443Y-92670519D02*
X152530627Y-92677037D01*
X152643853Y-92711384D01*
X152700467Y-92728557D01*
X152787311Y-92774977D01*
X152856991Y-92812222D01*
X152892729Y-92841552D01*
X152994186Y-92924814D01*
X153045557Y-92987411D01*
X153106778Y-93062009D01*
X153106779Y-93062011D01*
X153190443Y-93218533D01*
X153207616Y-93275147D01*
X153241963Y-93388373D01*
X153259359Y-93565000D01*
X153241963Y-93741627D01*
X153221278Y-93809815D01*
X153190443Y-93911467D01*
X153171445Y-93947009D01*
X153106778Y-94067991D01*
X153077609Y-94103533D01*
X152994186Y-94205186D01*
X152892729Y-94288448D01*
X152856991Y-94317778D01*
X152856989Y-94317779D01*
X152700467Y-94401443D01*
X152693069Y-94403687D01*
X152530627Y-94452963D01*
X152464443Y-94459481D01*
X152398260Y-94466000D01*
X152309740Y-94466000D01*
X152243558Y-94459482D01*
X152177373Y-94452963D01*
X152014931Y-94403687D01*
X152007533Y-94401443D01*
X151851011Y-94317779D01*
X151851009Y-94317778D01*
X151815271Y-94288448D01*
X151713814Y-94205186D01*
X151630391Y-94103533D01*
X151601222Y-94067991D01*
X151536555Y-93947009D01*
X151517557Y-93911467D01*
X151486722Y-93809815D01*
X151466037Y-93741627D01*
X151448641Y-93565000D01*
X151466037Y-93388373D01*
X151500384Y-93275147D01*
X151517557Y-93218533D01*
X151601221Y-93062011D01*
X151601222Y-93062009D01*
X151662443Y-92987411D01*
X151713814Y-92924814D01*
X151815271Y-92841552D01*
X151851009Y-92812222D01*
X151920689Y-92774977D01*
X152007533Y-92728557D01*
X152064147Y-92711384D01*
X152177373Y-92677037D01*
X152243557Y-92670519D01*
X152309740Y-92664000D01*
X152398260Y-92664000D01*
X152464443Y-92670519D01*
X152464443Y-92670519D01*
G37*
G36*
X141276821Y-92726313D02*
X141276824Y-92726314D01*
X141276825Y-92726314D01*
X141437239Y-92774975D01*
X141437241Y-92774976D01*
X141437244Y-92774977D01*
X141585078Y-92853995D01*
X141714659Y-92960341D01*
X141821005Y-93089922D01*
X141900023Y-93237756D01*
X141900024Y-93237759D01*
X141900025Y-93237761D01*
X141945713Y-93388375D01*
X141948687Y-93398179D01*
X141965117Y-93565000D01*
X141948687Y-93731821D01*
X141948686Y-93731824D01*
X141948686Y-93731825D01*
X141909187Y-93862037D01*
X141900023Y-93892244D01*
X141821005Y-94040078D01*
X141714659Y-94169659D01*
X141585078Y-94276005D01*
X141437244Y-94355023D01*
X141437241Y-94355024D01*
X141437239Y-94355025D01*
X141276825Y-94403686D01*
X141276824Y-94403686D01*
X141276821Y-94403687D01*
X141151804Y-94416000D01*
X141068196Y-94416000D01*
X140943179Y-94403687D01*
X140943176Y-94403686D01*
X140943175Y-94403686D01*
X140782761Y-94355025D01*
X140782759Y-94355024D01*
X140782756Y-94355023D01*
X140634922Y-94276005D01*
X140505341Y-94169659D01*
X140398995Y-94040078D01*
X140319977Y-93892244D01*
X140310814Y-93862037D01*
X140271314Y-93731825D01*
X140271314Y-93731824D01*
X140271313Y-93731821D01*
X140254883Y-93565000D01*
X140271313Y-93398179D01*
X140274287Y-93388375D01*
X140319975Y-93237761D01*
X140319976Y-93237759D01*
X140319977Y-93237756D01*
X140398995Y-93089922D01*
X140505341Y-92960341D01*
X140634922Y-92853995D01*
X140782756Y-92774977D01*
X140782759Y-92774976D01*
X140782761Y-92774975D01*
X140943175Y-92726314D01*
X140943176Y-92726314D01*
X140943179Y-92726313D01*
X141068196Y-92714000D01*
X141151804Y-92714000D01*
X141276821Y-92726313D01*
X141276821Y-92726313D01*
G37*
G36*
X148896821Y-92726313D02*
X148896824Y-92726314D01*
X148896825Y-92726314D01*
X149057239Y-92774975D01*
X149057241Y-92774976D01*
X149057244Y-92774977D01*
X149205078Y-92853995D01*
X149334659Y-92960341D01*
X149441005Y-93089922D01*
X149520023Y-93237756D01*
X149520024Y-93237759D01*
X149520025Y-93237761D01*
X149565713Y-93388375D01*
X149568687Y-93398179D01*
X149585117Y-93565000D01*
X149568687Y-93731821D01*
X149568686Y-93731824D01*
X149568686Y-93731825D01*
X149529187Y-93862037D01*
X149520023Y-93892244D01*
X149441005Y-94040078D01*
X149334659Y-94169659D01*
X149205078Y-94276005D01*
X149057244Y-94355023D01*
X149057241Y-94355024D01*
X149057239Y-94355025D01*
X148896825Y-94403686D01*
X148896824Y-94403686D01*
X148896821Y-94403687D01*
X148771804Y-94416000D01*
X148688196Y-94416000D01*
X148563179Y-94403687D01*
X148563176Y-94403686D01*
X148563175Y-94403686D01*
X148402761Y-94355025D01*
X148402759Y-94355024D01*
X148402756Y-94355023D01*
X148254922Y-94276005D01*
X148125341Y-94169659D01*
X148018995Y-94040078D01*
X147939977Y-93892244D01*
X147930814Y-93862037D01*
X147891314Y-93731825D01*
X147891314Y-93731824D01*
X147891313Y-93731821D01*
X147874883Y-93565000D01*
X147891313Y-93398179D01*
X147894287Y-93388375D01*
X147939975Y-93237761D01*
X147939976Y-93237759D01*
X147939977Y-93237756D01*
X148018995Y-93089922D01*
X148125341Y-92960341D01*
X148254922Y-92853995D01*
X148402756Y-92774977D01*
X148402759Y-92774976D01*
X148402761Y-92774975D01*
X148563175Y-92726314D01*
X148563176Y-92726314D01*
X148563179Y-92726313D01*
X148688196Y-92714000D01*
X148771804Y-92714000D01*
X148896821Y-92726313D01*
X148896821Y-92726313D01*
G37*
G36*
X160883600Y-91352989D02*
X160916649Y-91363014D01*
X160947106Y-91379294D01*
X160973799Y-91401201D01*
X160995706Y-91427894D01*
X161011986Y-91458351D01*
X161022011Y-91491400D01*
X161026000Y-91531904D01*
X161026000Y-92968096D01*
X161022011Y-93008600D01*
X161011986Y-93041649D01*
X160995706Y-93072106D01*
X160973799Y-93098799D01*
X160947106Y-93120706D01*
X160916649Y-93136986D01*
X160883600Y-93147011D01*
X160843096Y-93151000D01*
X159156904Y-93151000D01*
X159116400Y-93147011D01*
X159083351Y-93136986D01*
X159052894Y-93120706D01*
X159026201Y-93098799D01*
X159004294Y-93072106D01*
X158988014Y-93041649D01*
X158977989Y-93008600D01*
X158974000Y-92968096D01*
X158974000Y-91531904D01*
X158977989Y-91491400D01*
X158988014Y-91458351D01*
X159004294Y-91427894D01*
X159026201Y-91401201D01*
X159052894Y-91379294D01*
X159083351Y-91363014D01*
X159116400Y-91352989D01*
X159156904Y-91349000D01*
X160843096Y-91349000D01*
X160883600Y-91352989D01*
X160883600Y-91352989D01*
G37*
G36*
X135601000Y-92811000D02*
X133799000Y-92811000D01*
X133799000Y-91009000D01*
X135601000Y-91009000D01*
X135601000Y-92811000D01*
X135601000Y-92811000D01*
G37*
G36*
X152464443Y-90130519D02*
X152530627Y-90137037D01*
X152643853Y-90171384D01*
X152700467Y-90188557D01*
X152787311Y-90234977D01*
X152856991Y-90272222D01*
X152892729Y-90301552D01*
X152994186Y-90384814D01*
X153077448Y-90486271D01*
X153106778Y-90522009D01*
X153106779Y-90522011D01*
X153190443Y-90678533D01*
X153207616Y-90735147D01*
X153241963Y-90848373D01*
X153259359Y-91025000D01*
X153241963Y-91201627D01*
X153207616Y-91314853D01*
X153190443Y-91371467D01*
X153121698Y-91500078D01*
X153106778Y-91527991D01*
X153078620Y-91562301D01*
X152994186Y-91665186D01*
X152892729Y-91748448D01*
X152856991Y-91777778D01*
X152856989Y-91777779D01*
X152700467Y-91861443D01*
X152693069Y-91863687D01*
X152530627Y-91912963D01*
X152464442Y-91919482D01*
X152398260Y-91926000D01*
X152309740Y-91926000D01*
X152243558Y-91919482D01*
X152177373Y-91912963D01*
X152014931Y-91863687D01*
X152007533Y-91861443D01*
X151851011Y-91777779D01*
X151851009Y-91777778D01*
X151815271Y-91748448D01*
X151713814Y-91665186D01*
X151629380Y-91562301D01*
X151601222Y-91527991D01*
X151586302Y-91500078D01*
X151517557Y-91371467D01*
X151500384Y-91314853D01*
X151466037Y-91201627D01*
X151448641Y-91025000D01*
X151466037Y-90848373D01*
X151500384Y-90735147D01*
X151517557Y-90678533D01*
X151601221Y-90522011D01*
X151601222Y-90522009D01*
X151630552Y-90486271D01*
X151713814Y-90384814D01*
X151815271Y-90301552D01*
X151851009Y-90272222D01*
X151920689Y-90234977D01*
X152007533Y-90188557D01*
X152064147Y-90171384D01*
X152177373Y-90137037D01*
X152243557Y-90130519D01*
X152309740Y-90124000D01*
X152398260Y-90124000D01*
X152464443Y-90130519D01*
X152464443Y-90130519D01*
G37*
G36*
X148896821Y-90186313D02*
X148896824Y-90186314D01*
X148896825Y-90186314D01*
X149057239Y-90234975D01*
X149057241Y-90234976D01*
X149057244Y-90234977D01*
X149205078Y-90313995D01*
X149334659Y-90420341D01*
X149441005Y-90549922D01*
X149520023Y-90697756D01*
X149520024Y-90697759D01*
X149520025Y-90697761D01*
X149565713Y-90848375D01*
X149568687Y-90858179D01*
X149585117Y-91025000D01*
X149568687Y-91191821D01*
X149568686Y-91191824D01*
X149568686Y-91191825D01*
X149521008Y-91349000D01*
X149520023Y-91352244D01*
X149441005Y-91500078D01*
X149334659Y-91629659D01*
X149205078Y-91736005D01*
X149057244Y-91815023D01*
X149057241Y-91815024D01*
X149057239Y-91815025D01*
X148896825Y-91863686D01*
X148896824Y-91863686D01*
X148896821Y-91863687D01*
X148771804Y-91876000D01*
X148688196Y-91876000D01*
X148563179Y-91863687D01*
X148563176Y-91863686D01*
X148563175Y-91863686D01*
X148402761Y-91815025D01*
X148402759Y-91815024D01*
X148402756Y-91815023D01*
X148254922Y-91736005D01*
X148125341Y-91629659D01*
X148018995Y-91500078D01*
X147939977Y-91352244D01*
X147938993Y-91349000D01*
X147891314Y-91191825D01*
X147891314Y-91191824D01*
X147891313Y-91191821D01*
X147874883Y-91025000D01*
X147891313Y-90858179D01*
X147894287Y-90848375D01*
X147939975Y-90697761D01*
X147939976Y-90697759D01*
X147939977Y-90697756D01*
X148018995Y-90549922D01*
X148125341Y-90420341D01*
X148254922Y-90313995D01*
X148402756Y-90234977D01*
X148402759Y-90234976D01*
X148402761Y-90234975D01*
X148563175Y-90186314D01*
X148563176Y-90186314D01*
X148563179Y-90186313D01*
X148688196Y-90174000D01*
X148771804Y-90174000D01*
X148896821Y-90186313D01*
X148896821Y-90186313D01*
G37*
G36*
X141276821Y-90186313D02*
X141276824Y-90186314D01*
X141276825Y-90186314D01*
X141437239Y-90234975D01*
X141437241Y-90234976D01*
X141437244Y-90234977D01*
X141585078Y-90313995D01*
X141714659Y-90420341D01*
X141821005Y-90549922D01*
X141900023Y-90697756D01*
X141900024Y-90697759D01*
X141900025Y-90697761D01*
X141945713Y-90848375D01*
X141948687Y-90858179D01*
X141965117Y-91025000D01*
X141948687Y-91191821D01*
X141948686Y-91191824D01*
X141948686Y-91191825D01*
X141901008Y-91349000D01*
X141900023Y-91352244D01*
X141821005Y-91500078D01*
X141714659Y-91629659D01*
X141585078Y-91736005D01*
X141437244Y-91815023D01*
X141437241Y-91815024D01*
X141437239Y-91815025D01*
X141276825Y-91863686D01*
X141276824Y-91863686D01*
X141276821Y-91863687D01*
X141151804Y-91876000D01*
X141068196Y-91876000D01*
X140943179Y-91863687D01*
X140943176Y-91863686D01*
X140943175Y-91863686D01*
X140782761Y-91815025D01*
X140782759Y-91815024D01*
X140782756Y-91815023D01*
X140634922Y-91736005D01*
X140505341Y-91629659D01*
X140398995Y-91500078D01*
X140319977Y-91352244D01*
X140318993Y-91349000D01*
X140271314Y-91191825D01*
X140271314Y-91191824D01*
X140271313Y-91191821D01*
X140254883Y-91025000D01*
X140271313Y-90858179D01*
X140274287Y-90848375D01*
X140319975Y-90697761D01*
X140319976Y-90697759D01*
X140319977Y-90697756D01*
X140398995Y-90549922D01*
X140505341Y-90420341D01*
X140634922Y-90313995D01*
X140782756Y-90234977D01*
X140782759Y-90234976D01*
X140782761Y-90234975D01*
X140943175Y-90186314D01*
X140943176Y-90186314D01*
X140943179Y-90186313D01*
X141068196Y-90174000D01*
X141151804Y-90174000D01*
X141276821Y-90186313D01*
X141276821Y-90186313D01*
G37*
G36*
X153255000Y-89386000D02*
X151453000Y-89386000D01*
X151453000Y-87584000D01*
X153255000Y-87584000D01*
X153255000Y-89386000D01*
X153255000Y-89386000D01*
G37*
G36*
X148896821Y-87646313D02*
X148896824Y-87646314D01*
X148896825Y-87646314D01*
X149057239Y-87694975D01*
X149057241Y-87694976D01*
X149057244Y-87694977D01*
X149205078Y-87773995D01*
X149334659Y-87880341D01*
X149441005Y-88009922D01*
X149520023Y-88157756D01*
X149568687Y-88318179D01*
X149585117Y-88485000D01*
X149568687Y-88651821D01*
X149520023Y-88812244D01*
X149441005Y-88960078D01*
X149334659Y-89089659D01*
X149205078Y-89196005D01*
X149057244Y-89275023D01*
X149057241Y-89275024D01*
X149057239Y-89275025D01*
X148896825Y-89323686D01*
X148896824Y-89323686D01*
X148896821Y-89323687D01*
X148771804Y-89336000D01*
X148688196Y-89336000D01*
X148563179Y-89323687D01*
X148563176Y-89323686D01*
X148563175Y-89323686D01*
X148402761Y-89275025D01*
X148402759Y-89275024D01*
X148402756Y-89275023D01*
X148254922Y-89196005D01*
X148125341Y-89089659D01*
X148018995Y-88960078D01*
X147939977Y-88812244D01*
X147891313Y-88651821D01*
X147874883Y-88485000D01*
X147891313Y-88318179D01*
X147939977Y-88157756D01*
X148018995Y-88009922D01*
X148125341Y-87880341D01*
X148254922Y-87773995D01*
X148402756Y-87694977D01*
X148402759Y-87694976D01*
X148402761Y-87694975D01*
X148563175Y-87646314D01*
X148563176Y-87646314D01*
X148563179Y-87646313D01*
X148688196Y-87634000D01*
X148771804Y-87634000D01*
X148896821Y-87646313D01*
X148896821Y-87646313D01*
G37*
G36*
X141961000Y-89336000D02*
X140259000Y-89336000D01*
X140259000Y-87634000D01*
X141961000Y-87634000D01*
X141961000Y-89336000D01*
X141961000Y-89336000D01*
G37*
G36*
X134625256Y-83891298D02*
X134731579Y-83912447D01*
X135032042Y-84036903D01*
X135298852Y-84215180D01*
X135302454Y-84217587D01*
X135532413Y-84447546D01*
X135713098Y-84717960D01*
X135837553Y-85018422D01*
X135901000Y-85337389D01*
X135901000Y-85662611D01*
X135837553Y-85981578D01*
X135713098Y-86282040D01*
X135532413Y-86552454D01*
X135302454Y-86782413D01*
X135302451Y-86782415D01*
X135032042Y-86963097D01*
X134731579Y-87087553D01*
X134625256Y-87108702D01*
X134412611Y-87151000D01*
X134087389Y-87151000D01*
X133874744Y-87108702D01*
X133768421Y-87087553D01*
X133467958Y-86963097D01*
X133197549Y-86782415D01*
X133197546Y-86782413D01*
X132967587Y-86552454D01*
X132786902Y-86282040D01*
X132662447Y-85981578D01*
X132599000Y-85662611D01*
X132599000Y-85337389D01*
X132662447Y-85018422D01*
X132786902Y-84717960D01*
X132967587Y-84447546D01*
X133197546Y-84217587D01*
X133201148Y-84215180D01*
X133467958Y-84036903D01*
X133768421Y-83912447D01*
X133874744Y-83891298D01*
X134087389Y-83849000D01*
X134412611Y-83849000D01*
X134625256Y-83891298D01*
X134625256Y-83891298D01*
G37*
G36*
X161875256Y-83891298D02*
X161981579Y-83912447D01*
X162282042Y-84036903D01*
X162548852Y-84215180D01*
X162552454Y-84217587D01*
X162782413Y-84447546D01*
X162963098Y-84717960D01*
X163087553Y-85018422D01*
X163151000Y-85337389D01*
X163151000Y-85662611D01*
X163087553Y-85981578D01*
X162963098Y-86282040D01*
X162782413Y-86552454D01*
X162552454Y-86782413D01*
X162552451Y-86782415D01*
X162282042Y-86963097D01*
X161981579Y-87087553D01*
X161875256Y-87108702D01*
X161662611Y-87151000D01*
X161337389Y-87151000D01*
X161124744Y-87108702D01*
X161018421Y-87087553D01*
X160717958Y-86963097D01*
X160447549Y-86782415D01*
X160447546Y-86782413D01*
X160217587Y-86552454D01*
X160036902Y-86282040D01*
X159912447Y-85981578D01*
X159849000Y-85662611D01*
X159849000Y-85337389D01*
X159912447Y-85018422D01*
X160036902Y-84717960D01*
X160217587Y-84447546D01*
X160447546Y-84217587D01*
X160451148Y-84215180D01*
X160717958Y-84036903D01*
X161018421Y-83912447D01*
X161124744Y-83891298D01*
X161337389Y-83849000D01*
X161662611Y-83849000D01*
X161875256Y-83891298D01*
X161875256Y-83891298D01*
G37*
M02*
